Fraunces-RegularOpMid.ufo
<glyph name="dollar" format="2">
  <advance width="491.8888888888889"/>
  <unicode hex="0024"/>
  <outline>
    <contour>
      <point x="253.44444444444446" y="0.0" type="curve" smooth="yes"/>
      <point x="374.3341625207297" y="0.0"/>
      <point x="446.1666666666667" y="74.69899560577527"/>
      <point x="446.1666666666667" y="164.36111111111111" type="curve" smooth="yes"/>
      <point x="446.1666666666667" y="229.18038821954485"/>
      <point x="402.1688740104554" y="287.95374564361634"/>
      <point x="270.25" y="340.8888888888889" type="curve" smooth="yes"/>
      <point x="161.69444444444446" y="381.47222222222223"/>
      <point x="123.16666666666667" y="422.8888888888889"/>
      <point x="123.16666666666667" y="482.0" type="curve" smooth="yes"/>
      <point x="123.16666666666667" y="560.4444444444445"/>
      <point x="183.33333333333334" y="606.1944444444445"/>
      <point x="256.02777777777777" y="606.1944444444445" type="curve" smooth="yes"/>
      <point x="312.97222222222223" y="606.1944444444445"/>
      <point x="349.44444444444446" y="570.036231884058"/>
      <point x="349.44444444444446" y="522.5555555555555" type="curve" smooth="yes"/>
      <point x="349.44444444444446" y="491.27777777777777" type="line" smooth="yes"/>
      <point x="349.44444444444446" y="461.27777777777777"/>
      <point x="370.8611111111111" y="440.27777777777777"/>
      <point x="396.80555555555554" y="440.27777777777777" type="curve" smooth="yes"/>
      <point x="421.22222222222223" y="440.27777777777777"/>
      <point x="443.1666666666667" y="463.22222222222223"/>
      <point x="443.1666666666667" y="492.1666666666667" type="curve" smooth="yes"/>
      <point x="443.1666666666667" y="567.5833333333334"/>
      <point x="361.05617628801986" y="629.0"/>
      <point x="258.3888888888889" y="629.0" type="curve" smooth="yes"/>
      <point x="134.06234567901237" y="629.0"/>
      <point x="49.72222222222222" y="551.6388888888889"/>
      <point x="49.72222222222222" y="458.27777777777777" type="curve" smooth="yes"/>
      <point x="49.72222222222222" y="377.80555555555554"/>
      <point x="103.25" y="323.9166666666667"/>
      <point x="232.11111111111111" y="276.1111111111111" type="curve" smooth="yes"/>
      <point x="339.7656013650657" y="235.50448604678866"/>
      <point x="375.72222222222223" y="192.63587424633937"/>
      <point x="375.72222222222223" y="137.63888888888889" type="curve" smooth="yes"/>
      <point x="375.72222222222223" y="65.75102880658437"/>
      <point x="326.6111111111111" y="23.27777777777778"/>
      <point x="255.44444444444446" y="23.27777777777778" type="curve" smooth="yes"/>
      <point x="186.44444444444446" y="23.27777777777778"/>
      <point x="144.44444444444446" y="61.09669479606188"/>
      <point x="144.44444444444446" y="111.16666666666667" type="curve" smooth="yes"/>
      <point x="144.44444444444446" y="147.72222222222223" type="line" smooth="yes"/>
      <point x="144.44444444444446" y="178.72222222222223"/>
      <point x="124.55555555555556" y="198.72222222222223"/>
      <point x="100.72222222222223" y="198.72222222222223" type="curve" smooth="yes"/>
      <point x="73.72222222222223" y="198.72222222222223"/>
      <point x="51.72222222222222" y="174.13888888888889"/>
      <point x="51.72222222222222" y="141.55555555555554" type="curve" smooth="yes"/>
      <point x="51.72222222222222" y="63.77777777777778"/>
      <point x="142.77777777777777" y="0.0"/>
    </contour>
    <contour>
      <point x="239.13888888888889" y="301.3333333333333" type="line"/>
      <point x="239.13888888888889" y="56.777777777777764"/>
      <point x="214.55555555555554" y="7.051334008780816"/>
      <point x="214.55555555555554" y="-32.44444444444444" type="curve" smooth="yes"/>
      <point x="214.55555555555554" y="-62.3070987654321"/>
      <point x="232.89605734767025" y="-75.27777777777777"/>
      <point x="252.91666666666666" y="-75.27777777777777" type="curve" smooth="yes"/>
      <point x="273.7404214559387" y="-75.27777777777777"/>
      <point x="289.73014093115313" y="-61.69883987454708"/>
      <point x="290.3333333333333" y="-32.44444444444444" type="curve" smooth="yes"/>
      <point x="290.7912418895627" y="7.052878137389673"/>
      <point x="265.75" y="56.30555555555556"/>
      <point x="265.75" y="301.3333333333333" type="curve"/>
    </contour>
    <contour>
      <point x="263.75" y="325.5" type="line"/>
      <point x="263.75" y="572.4166666666666"/>
      <point x="288.80555555555554" y="619.7622622622623"/>
      <point x="288.80555555555554" y="660.6388888888889" type="curve" smooth="yes"/>
      <point x="288.80555555555554" y="690.4259259259259"/>
      <point x="269.8405017921147" y="704.0"/>
      <point x="250.44444444444446" y="704.0" type="curve" smooth="yes"/>
      <point x="230.34259259259258" y="704.0"/>
      <point x="212.55555555555554" y="690.9444444444445"/>
      <point x="212.55555555555554" y="661.5833333333334" type="curve" smooth="yes"/>
      <point x="212.55555555555554" y="622.9937810945273"/>
      <point x="238.08333409337718" y="574.3057402462068"/>
      <point x="237.61111111111111" y="325.5" type="curve"/>
    </contour>
  </outline>
</glyph>
<glyph name="parenleft" format="2">
  <advance width="381.27777777777777"/>
  <unicode hex="0028"/>
  <outline>
    <contour>
      <point x="85.72222222222223" y="287.0" type="curve" smooth="yes"/>
      <point x="85.72222222222223" y="59.13439635535307"/>
      <point x="212.82600249755154" y="-113.53174426357913"/>
      <point x="355.19444444444446" y="-165.13888888888889" type="curve" smooth="yes"/>
      <point x="358.19444444444446" y="-166.13888888888889"/>
      <point x="360.19444444444446" y="-166.13888888888889"/>
      <point x="363.19444444444446" y="-166.13888888888889" type="curve" smooth="yes"/>
      <point x="369.55555555555554" y="-166.13888888888889"/>
      <point x="373.44444444444446" y="-161.30555555555554"/>
      <point x="373.44444444444446" y="-155.0" type="curve" smooth="yes"/>
      <point x="373.44444444444446" y="-151.11111111111111"/>
      <point x="370.97222222222223" y="-145.22222222222223"/>
      <point x="364.6111111111111" y="-143.27777777777777" type="curve" smooth="yes"/>
      <point x="241.88789802365872" y="-85.93315397524583"/>
      <point x="165.27777777777777" y="68.27949245541838"/>
      <point x="165.27777777777777" y="287.0" type="curve" smooth="yes"/>
      <point x="165.27777777777777" y="509.3827160493827"/>
      <point x="241.90275980918454" y="666.749756372188"/>
      <point x="364.6111111111111" y="722.5555555555555" type="curve" smooth="yes"/>
      <point x="370.97222222222223" y="725.5"/>
      <point x="373.44444444444446" y="730.3888888888889"/>
      <point x="373.44444444444446" y="735.2777777777778" type="curve" smooth="yes"/>
      <point x="373.44444444444446" y="740.5833333333334"/>
      <point x="369.55555555555554" y="746.4166666666666"/>
      <point x="363.72222222222223" y="746.4166666666666" type="curve" smooth="yes"/>
      <point x="360.72222222222223" y="746.4166666666666"/>
      <point x="358.72222222222223" y="746.4166666666666"/>
      <point x="355.72222222222223" y="745.4166666666666" type="curve" smooth="yes"/>
      <point x="212.8143628286986" y="692.2748052185361"/>
      <point x="85.72222222222223" y="518.5151515151515"/>
    </contour>
  </outline>
</glyph>
<glyph name="asterisk" format="2">
  <advance width="453.75"/>
  <unicode hex="002A"/>
  <outline>
    <contour>
      <point x="235.38888888888889" y="526.5555555555555" type="line"/>
      <point x="235.38888888888889" y="611.4722222222222"/>
      <point x="270.80555555555554" y="632.4722222222222"/>
      <point x="270.80555555555554" y="677.3888888888889" type="curve" smooth="yes"/>
      <point x="270.80555555555554" y="711.6388888888889"/>
      <point x="249.02777777777777" y="727.0"/>
      <point x="226.72222222222223" y="727.0" type="curve" smooth="yes"/>
      <point x="205.30555555555554" y="727.0"/>
      <point x="184.36111111111111" y="710.5833333333334"/>
      <point x="183.36111111111111" y="679.2777777777778" type="curve" smooth="yes"/>
      <point x="182.36111111111111" y="634.3611111111111"/>
      <point x="218.77777777777777" y="613.4166666666666"/>
      <point x="218.77777777777777" y="526.5555555555555" type="curve"/>
    </contour>
    <contour>
      <point x="229.55555555555554" y="534.8611111111111" type="line"/>
      <point x="148.63888888888889" y="560.9722222222222"/>
      <point x="139.63888888888889" y="601.3888888888889"/>
      <point x="96.66666666666666" y="615.2222222222222" type="curve" smooth="yes"/>
      <point x="64.41666666666667" y="625.6388888888889"/>
      <point x="43.111111111111114" y="609.8055555555555"/>
      <point x="36.166666666666664" y="588.5" type="curve" smooth="yes"/>
      <point x="29.694444444444443" y="568.0833333333334"/>
      <point x="38.638888888888886" y="543.1388888888889"/>
      <point x="67.94444444444444" y="532.7222222222222" type="curve" smooth="yes"/>
      <point x="110.38888888888889" y="517.8888888888889"/>
      <point x="141.80555555555554" y="545.8333333333334"/>
      <point x="224.13888888888889" y="519.1944444444445" type="curve"/>
    </contour>
    <contour>
      <point x="219.30555555555554" y="531.9166666666666" type="line"/>
      <point x="169.55555555555554" y="463.1111111111111"/>
      <point x="128.61111111111111" y="467.05555555555554"/>
      <point x="101.94444444444444" y="430.5" type="curve" smooth="yes"/>
      <point x="82.11111111111111" y="402.72222222222223"/>
      <point x="91.0" y="377.47222222222223"/>
      <point x="108.83333333333333" y="364.5833333333333" type="curve" smooth="yes"/>
      <point x="125.77777777777777" y="352.1111111111111"/>
      <point x="152.66666666666666" y="352.5833333333333"/>
      <point x="172.08333333333334" y="377.4166666666667" type="curve" smooth="yes"/>
      <point x="199.22222222222223" y="413.44444444444446"/>
      <point x="181.75" y="451.8611111111111"/>
      <point x="232.97222222222223" y="522.1388888888889" type="curve"/>
    </contour>
    <contour>
      <point x="219.30555555555554" y="521.1944444444445" type="line"/>
      <point x="267.94444444444446" y="451.80555555555554"/>
      <point x="251.0" y="414.3888888888889"/>
      <point x="276.6111111111111" y="377.30555555555554" type="curve" smooth="yes"/>
      <point x="296.44444444444446" y="349.52777777777777"/>
      <point x="323.1666666666667" y="349.47222222222223"/>
      <point x="341.52777777777777" y="362.3611111111111" type="curve" smooth="yes"/>
      <point x="359.0" y="374.77777777777777"/>
      <point x="366.52777777777777" y="399.6666666666667"/>
      <point x="349.6388888888889" y="426.02777777777777" type="curve" smooth="yes"/>
      <point x="324.5" y="463.5833333333333"/>
      <point x="282.6111111111111" y="460.1111111111111"/>
      <point x="232.97222222222223" y="530.9722222222222" type="curve"/>
    </contour>
    <contour>
      <point x="229.55555555555554" y="518.25" type="line"/>
      <point x="309.94444444444446" y="544.4166666666666"/>
      <point x="341.4166666666667" y="517.4722222222222"/>
      <point x="383.8611111111111" y="531.3055555555555" type="curve" smooth="yes"/>
      <point x="416.1111111111111" y="541.7222222222222"/>
      <point x="424.05555555555554" y="566.9722222222222"/>
      <point x="417.1111111111111" y="588.2777777777778" type="curve" smooth="yes"/>
      <point x="410.6388888888889" y="608.6944444444445"/>
      <point x="388.75" y="623.6944444444445"/>
      <point x="358.44444444444446" y="614.75" type="curve" smooth="yes"/>
      <point x="315.47222222222223" y="601.9166666666666"/>
      <point x="307.0" y="560.5"/>
      <point x="224.13888888888889" y="533.9166666666666" type="curve"/>
    </contour>
  </outline>
</glyph>
<glyph name="plus" format="2">
  <advance width="498.0"/>
  <unicode hex="002B"/>
  <outline>
    <contour>
      <point x="50.0" y="303.0" type="curve" smooth="yes"/>
      <point x="50.0" y="286.05555555555554"/>
      <point x="66.47222222222223" y="272.5833333333333"/>
      <point x="84.41666666666667" y="272.5833333333333" type="curve" smooth="yes"/>
      <point x="131.38888888888889" y="272.5833333333333"/>
      <point x="190.47222222222223" y="290.80555555555554"/>
      <point x="252.0" y="290.80555555555554" type="curve" smooth="yes"/>
      <point x="311.3611111111111" y="290.80555555555554"/>
      <point x="370.6111111111111" y="272.5833333333333"/>
      <point x="413.5833333333333" y="272.5833333333333" type="curve" smooth="yes"/>
      <point x="434.52777777777777" y="272.5833333333333"/>
      <point x="448.0" y="286.05555555555554"/>
      <point x="448.0" y="303.0" type="curve" smooth="yes"/>
      <point x="448.0" y="320.94444444444446"/>
      <point x="433.52777777777777" y="335.4166666666667"/>
      <point x="413.5833333333333" y="335.4166666666667" type="curve" smooth="yes"/>
      <point x="370.6111111111111" y="335.4166666666667"/>
      <point x="311.3611111111111" y="317.19444444444446"/>
      <point x="252.0" y="317.19444444444446" type="curve" smooth="yes"/>
      <point x="186.11111111111111" y="317.19444444444446"/>
      <point x="131.38888888888889" y="335.4166666666667"/>
      <point x="85.41666666666667" y="335.4166666666667" type="curve" smooth="yes"/>
      <point x="67.94444444444444" y="335.4166666666667"/>
      <point x="50.0" y="320.94444444444446"/>
    </contour>
    <contour>
      <point x="253.0" y="103.0" type="curve" smooth="yes"/>
      <point x="269.94444444444446" y="103.0"/>
      <point x="283.4166666666667" y="118.94444444444444"/>
      <point x="283.4166666666667" y="136.88888888888889" type="curve" smooth="yes"/>
      <point x="283.4166666666667" y="183.86111111111111"/>
      <point x="265.19444444444446" y="242.94444444444446"/>
      <point x="265.19444444444446" y="305.0" type="curve" smooth="yes"/>
      <point x="265.19444444444446" y="364.8888888888889"/>
      <point x="282.8888888888889" y="424.1388888888889"/>
      <point x="282.8888888888889" y="467.1111111111111" type="curve" smooth="yes"/>
      <point x="282.8888888888889" y="488.05555555555554"/>
      <point x="269.94444444444446" y="501.0"/>
      <point x="253.0" y="501.0" type="curve" smooth="yes"/>
      <point x="235.05555555555554" y="501.0"/>
      <point x="220.58333333333334" y="487.05555555555554"/>
      <point x="220.58333333333334" y="467.1111111111111" type="curve" smooth="yes"/>
      <point x="220.58333333333334" y="424.1388888888889"/>
      <point x="238.80555555555554" y="364.8888888888889"/>
      <point x="238.80555555555554" y="305.0" type="curve" smooth="yes"/>
      <point x="238.80555555555554" y="239.11111111111111"/>
      <point x="220.58333333333334" y="183.86111111111111"/>
      <point x="220.58333333333334" y="137.88888888888889" type="curve" smooth="yes"/>
      <point x="220.58333333333334" y="120.94444444444444"/>
      <point x="235.05555555555554" y="103.0"/>
    </contour>
  </outline>
</glyph>
<glyph name="comma" format="2">
  <advance width="265.52777777777777"/>
  <unicode hex="002C"/>
  <outline>
    <contour>
      <point x="127.58333333333333" y="-14.305555555555555" type="curve" smooth="yes"/>
      <point x="154.02777777777777" y="-14.305555555555555" type="line" smooth="yes"/>
      <point x="165.91666666666666" y="-14.305555555555555"/>
      <point x="170.86111111111111" y="-21.25"/>
      <point x="170.86111111111111" y="-33.666666666666664" type="curve" smooth="yes"/>
      <point x="170.86111111111111" y="-120.25210970464134"/>
      <point x="128.45646598929858" y="-173.72154175741915"/>
      <point x="80.63888888888889" y="-180.02777777777777" type="curve" smooth="yes"/>
      <point x="66.97222222222223" y="-182.38888888888889"/>
      <point x="62.083333333333336" y="-188.18849206349205"/>
      <point x="62.083333333333336" y="-196.52777777777777" type="curve" smooth="yes"/>
      <point x="62.083333333333336" y="-206.3671497584541"/>
      <point x="68.97916666666667" y="-213.08333333333334"/>
      <point x="81.52777777777777" y="-213.08333333333334" type="curve" smooth="yes"/>
      <point x="138.52777777777777" y="-213.08333333333334"/>
      <point x="210.80555555555554" y="-146.3082788671024"/>
      <point x="210.80555555555554" y="-1.3611111111111112" type="curve" smooth="yes"/>
      <point x="210.80555555555554" y="73.83333333333333"/>
      <point x="177.82777777777778" y="107.72222222222223"/>
      <point x="133.0" y="107.72222222222223" type="curve" smooth="yes"/>
      <point x="97.58333333333333" y="107.72222222222223"/>
      <point x="69.22222222222223" y="80.30555555555556"/>
      <point x="69.22222222222223" y="47.416666666666664" type="curve" smooth="yes"/>
      <point x="69.22222222222223" y="11.583333333333334"/>
      <point x="94.16666666666667" y="-14.305555555555555"/>
    </contour>
  </outline>
</glyph>
<glyph name="hyphen" format="2">
  <advance width="372.3611111111111"/>
  <unicode hex="002D"/>
  <outline>
    <contour>
      <point x="315.8333333333333" y="268.44444444444446" type="curve" smooth="yes"/>
      <point x="79.63888888888889" y="268.44444444444446" type="line" smooth="yes"/>
      <point x="68.02777777777777" y="268.44444444444446"/>
      <point x="62.25" y="264.6111111111111"/>
      <point x="56.888888888888886" y="253.47222222222223" type="curve" smooth="yes"/>
      <point x="45.55555555555556" y="231.91666666666666" type="line" smooth="yes"/>
      <point x="43.083333333333336" y="226.5"/>
      <point x="42.083333333333336" y="223.02777777777777"/>
      <point x="42.083333333333336" y="220.08333333333334" type="curve" smooth="yes"/>
      <point x="42.083333333333336" y="211.83333333333334"/>
      <point x="48.861111111111114" y="207.0"/>
      <point x="57.58333333333333" y="207.0" type="curve" smooth="yes"/>
      <point x="291.1388888888889" y="207.0" type="line" smooth="yes"/>
      <point x="303.80555555555554" y="207.0"/>
      <point x="310.1111111111111" y="211.36111111111111"/>
      <point x="316.0" y="223.55555555555554" type="curve" smooth="yes"/>
      <point x="327.3333333333333" y="244.58333333333334" type="line" smooth="yes"/>
      <point x="330.3333333333333" y="250.52777777777777"/>
      <point x="330.27777777777777" y="252.94444444444446"/>
      <point x="330.27777777777777" y="255.88888888888889" type="curve" smooth="yes"/>
      <point x="330.27777777777777" y="263.6111111111111"/>
      <point x="324.02777777777777" y="268.44444444444446"/>
    </contour>
  </outline>
</glyph>
<glyph name="zero" format="2">
  <advance width="570.4722222222222"/>
  <unicode hex="0030"/>
  <outline>
    <contour>
      <point x="281.5" y="650.0" type="curve" smooth="yes"/>
      <point x="136.66666666666666" y="650.0"/>
      <point x="43.77777777777778" y="525.0633652822152"/>
      <point x="43.77777777777778" y="327.0" type="curve" smooth="yes"/>
      <point x="43.77777777777778" y="108.78188131313131"/>
      <point x="129.66666666666666" y="-12.36111111111111"/>
      <point x="281.5" y="-12.36111111111111" type="curve" smooth="yes"/>
      <point x="422.3333333333333" y="-12.36111111111111"/>
      <point x="526.2222222222222" y="105.3633207070707"/>
      <point x="526.2222222222222" y="327.0" type="curve" smooth="yes"/>
      <point x="526.2222222222222" y="528.108626198083"/>
      <point x="428.3333333333333" y="650.0"/>
    </contour>
    <contour>
      <point x="429.77777777777777" y="291.27777777777777" type="curve" smooth="yes"/>
      <point x="429.77777777777777" y="95.22863247863248"/>
      <point x="370.02777777777777" y="22.805555555555557"/>
      <point x="291.22222222222223" y="22.805555555555557" type="curve" smooth="yes"/>
      <point x="191.22222222222223" y="22.805555555555557"/>
      <point x="138.22222222222223" y="120.4796849087894"/>
      <point x="138.22222222222223" y="355.72222222222223" type="curve" smooth="yes"/>
      <point x="138.22222222222223" y="522.655701754386"/>
      <point x="184.91666666666666" y="614.8333333333334"/>
      <point x="274.77777777777777" y="614.8333333333334" type="curve" smooth="yes"/>
      <point x="372.77777777777777" y="614.8333333333334"/>
      <point x="429.77777777777777" y="514.6183535020168"/>
    </contour>
  </outline>
</glyph>
<glyph name="one" format="2">
  <advance width="407.1666666666667"/>
  <unicode hex="0031"/>
  <outline>
    <contour>
      <point x="69.75" y="564.1388888888889" type="line" smooth="yes"/>
      <point x="54.97222222222222" y="564.1388888888889"/>
      <point x="48.083333333333336" y="571.5"/>
      <point x="48.083333333333336" y="581.8055555555555" type="curve" smooth="yes"/>
      <point x="48.083333333333336" y="592.1111111111111"/>
      <point x="56.916666666666664" y="599.9444444444445"/>
      <point x="71.63888888888889" y="599.9444444444445" type="curve" smooth="yes"/>
      <point x="117.80555555555556" y="599.9444444444445" type="line" smooth="yes"/>
      <point x="160.61111111111111" y="599.9444444444445"/>
      <point x="186.1645609888423" y="610.2123698468299"/>
      <point x="214.19444444444446" y="639.9722222222222" type="curve" smooth="yes"/>
      <point x="222.02777777777777" y="649.2777777777778"/>
      <point x="229.33333333333334" y="653.1666666666666"/>
      <point x="240.05555555555554" y="653.1666666666666" type="curve" smooth="yes"/>
      <point x="251.77777777777777" y="653.1666666666666"/>
      <point x="258.6111111111111" y="646.2777777777778"/>
      <point x="258.6111111111111" y="630.1388888888889" type="curve" smooth="yes"/>
      <point x="258.6111111111111" y="84.0" type="line" smooth="yes"/>
      <point x="258.6111111111111" y="59.69444444444444"/>
      <point x="277.5" y="42.916666666666664"/>
      <point x="301.80555555555554" y="39.861111111111114" type="curve" smooth="yes"/>
      <point x="370.8333333333333" y="30.583333333333332" type="line" smooth="yes"/>
      <point x="382.55555555555554" y="29.583333333333332"/>
      <point x="390.3333333333333" y="24.75"/>
      <point x="390.3333333333333" y="15.972222222222221" type="curve" smooth="yes"/>
      <point x="390.3333333333333" y="4.833333333333333"/>
      <point x="384.02777777777777" y="0.0"/>
      <point x="370.8333333333333" y="0.0" type="curve" smooth="yes"/>
      <point x="53.111111111111114" y="0.0" type="line" smooth="yes"/>
      <point x="39.916666666666664" y="0.0"/>
      <point x="32.083333333333336" y="5.361111111111111"/>
      <point x="32.083333333333336" y="17.02777777777778" type="curve" smooth="yes"/>
      <point x="32.083333333333336" y="27.27777777777778"/>
      <point x="39.916666666666664" y="32.58333333333333"/>
      <point x="54.111111111111114" y="33.58333333333333" type="curve" smooth="yes"/>
      <point x="119.08333333333333" y="41.27777777777778" type="line" smooth="yes"/>
      <point x="148.44444444444446" y="44.33333333333333"/>
      <point x="172.80555555555554" y="58.166666666666664"/>
      <point x="172.80555555555554" y="84.0" type="curve" smooth="yes"/>
      <point x="172.80555555555554" y="498.1666666666667" type="line" smooth="yes"/>
      <point x="172.80555555555554" y="544.5"/>
      <point x="152.80555555555554" y="564.1388888888889"/>
      <point x="119.80555555555556" y="564.1388888888889" type="curve" smooth="yes"/>
    </contour>
  </outline>
</glyph>
<glyph name="three" format="2">
  <advance width="477.0"/>
  <unicode hex="0033"/>
  <outline>
    <contour>
      <point x="208.58333333333334" y="331.22222222222223" type="line"/>
      <point x="427.8333333333333" y="587.0" type="line" smooth="yes"/>
      <point x="439.0833333333333" y="599.7222222222222"/>
      <point x="444.6666666666667" y="609.7222222222222"/>
      <point x="444.6666666666667" y="619.1944444444445" type="curve" smooth="yes"/>
      <point x="444.6666666666667" y="629.8611111111111"/>
      <point x="433.47222222222223" y="637.6388888888889"/>
      <point x="424.22222222222223" y="637.6388888888889" type="curve" smooth="yes"/>
      <point x="99.22222222222223" y="637.6388888888889" type="line" smooth="yes"/>
      <point x="84.66666666666667" y="637.6388888888889"/>
      <point x="75.83333333333333" y="626.0277777777778"/>
      <point x="73.88888888888889" y="609.5833333333334" type="curve" smooth="yes"/>
      <point x="58.611111111111114" y="499.9166666666667" type="line" smooth="yes"/>
      <point x="56.611111111111114" y="485.6666666666667"/>
      <point x="63.97222222222222" y="478.8333333333333"/>
      <point x="71.75" y="478.8333333333333" type="curve" smooth="yes"/>
      <point x="80.94444444444444" y="478.8333333333333"/>
      <point x="88.25" y="486.55555555555554"/>
      <point x="92.08333333333333" y="494.22222222222223" type="curve" smooth="yes"/>
      <point x="115.52777777777777" y="539.5833333333334" type="line" smooth="yes"/>
      <point x="125.88888888888889" y="559.3055555555555"/>
      <point x="139.66666666666666" y="566.7222222222222"/>
      <point x="160.80555555555554" y="566.7222222222222" type="curve" smooth="yes"/>
      <point x="380.77777777777777" y="566.7222222222222" type="line"/>
      <point x="376.3611111111111" y="585.7222222222222" type="line"/>
      <point x="171.22222222222223" y="344.94444444444446" type="line" smooth="yes"/>
      <point x="166.80555555555554" y="340.05555555555554"/>
      <point x="163.86111111111111" y="334.69444444444446"/>
      <point x="163.86111111111111" y="328.8611111111111" type="curve" smooth="yes"/>
      <point x="163.86111111111111" y="319.6111111111111"/>
      <point x="171.69444444444446" y="312.77777777777777"/>
      <point x="183.0" y="312.77777777777777" type="curve" smooth="yes"/>
      <point x="215.36111111111111" y="312.77777777777777" type="line" smooth="yes"/>
      <point x="298.9446334089191" y="312.77777777777777"/>
      <point x="355.30555555555554" y="261.6111111111111"/>
      <point x="355.30555555555554" y="155.52777777777777" type="curve" smooth="yes"/>
      <point x="355.30555555555554" y="77.72222222222223"/>
      <point x="309.6666666666667" y="19.63888888888889"/>
      <point x="242.97222222222223" y="18.63888888888889" type="curve" smooth="yes"/>
      <point x="180.97222222222223" y="17.63888888888889"/>
      <point x="144.25" y="53.916666666666664"/>
      <point x="144.25" y="98.72222222222223" type="curve" smooth="yes"/>
      <point x="144.25" y="124.72222222222223" type="line" smooth="yes"/>
      <point x="144.25" y="158.55555555555554"/>
      <point x="120.41666666666667" y="182.44444444444446"/>
      <point x="91.11111111111111" y="182.44444444444446" type="curve" smooth="yes"/>
      <point x="61.69444444444444" y="182.44444444444446"/>
      <point x="36.80555555555556" y="158.55555555555554"/>
      <point x="36.80555555555556" y="126.72222222222223" type="curve" smooth="yes"/>
      <point x="36.80555555555556" y="49.94444444444444"/>
      <point x="100.0" y="-12.36111111111111"/>
      <point x="220.41666666666666" y="-12.36111111111111" type="curve" smooth="yes"/>
      <point x="342.55555555555554" y="-12.36111111111111"/>
      <point x="437.80555555555554" y="68.22222222222223"/>
      <point x="437.80555555555554" y="182.66666666666666" type="curve" smooth="yes"/>
      <point x="437.80555555555554" y="295.3611111111111"/>
      <point x="356.8008130081301" y="345.77777777777777"/>
      <point x="230.08333333333334" y="345.77777777777777" type="curve" smooth="yes"/>
      <point x="224.97222222222223" y="345.77777777777777"/>
      <point x="209.5" y="345.77777777777777"/>
      <point x="202.86111111111111" y="345.77777777777777" type="curve"/>
    </contour>
  </outline>
</glyph>
<glyph name="five" format="2">
  <advance width="487.3333333333333"/>
  <unicode hex="0035"/>
  <outline>
    <contour>
      <point x="47.666666666666664" y="122.25" type="curve" smooth="yes"/>
      <point x="47.666666666666664" y="47.361111111111114"/>
      <point x="118.75" y="-12.36111111111111"/>
      <point x="221.55555555555554" y="-12.36111111111111" type="curve" smooth="yes"/>
      <point x="352.5416666666667" y="-12.36111111111111"/>
      <point x="453.0" y="73.38028515240903"/>
      <point x="453.0" y="203.25" type="curve" smooth="yes"/>
      <point x="453.0" y="313.62158469945354"/>
      <point x="373.1111111111111" y="388.72222222222223"/>
      <point x="254.33333333333334" y="388.72222222222223" type="curve" smooth="yes"/>
      <point x="188.22222222222223" y="388.72222222222223"/>
      <point x="133.11111111111111" y="357.55555555555554"/>
      <point x="93.05555555555556" y="295.44444444444446" type="curve"/>
      <point x="112.55555555555556" y="290.72222222222223" type="line"/>
      <point x="112.55555555555556" y="588.6944444444445" type="line"/>
      <point x="94.11111111111111" y="581.6944444444445" type="line"/>
      <point x="137.55110332580497" y="534.7518718506875"/>
      <point x="203.3264241398759" y="506.47222222222223"/>
      <point x="286.1388888888889" y="506.47222222222223" type="curve" smooth="yes"/>
      <point x="386.8005698005698" y="506.47222222222223"/>
      <point x="447.5833333333333" y="560.5385572139304"/>
      <point x="447.5833333333333" y="643.5" type="curve" smooth="yes"/>
      <point x="447.5833333333333" y="652.3333333333334"/>
      <point x="442.22222222222223" y="656.2777777777778"/>
      <point x="435.44444444444446" y="656.2777777777778" type="curve" smooth="yes"/>
      <point x="428.72222222222223" y="656.2777777777778"/>
      <point x="423.4166666666667" y="651.4444444444445"/>
      <point x="418.6388888888889" y="640.7777777777778" type="curve" smooth="yes"/>
      <point x="404.44444444444446" y="602.6666666666666"/>
      <point x="373.80555555555554" y="582.5"/>
      <point x="317.5" y="582.5" type="curve" smooth="yes"/>
      <point x="224.30555555555554" y="582.5"/>
      <point x="145.30555555555554" y="654.75"/>
      <point x="105.08333333333333" y="654.75" type="curve" smooth="yes"/>
      <point x="81.69444444444444" y="654.75"/>
      <point x="71.44444444444444" y="641.2752525252525"/>
      <point x="71.44444444444444" y="619.1111111111111" type="curve" smooth="yes"/>
      <point x="71.44444444444444" y="277.44444444444446" type="line" smooth="yes"/>
      <point x="71.44444444444444" y="266.72222222222223"/>
      <point x="79.16666666666667" y="257.94444444444446"/>
      <point x="87.88888888888889" y="257.94444444444446" type="curve" smooth="yes"/>
      <point x="96.13888888888889" y="257.94444444444446"/>
      <point x="103.80555555555556" y="262.25"/>
      <point x="111.58333333333334" y="272.9166666666667" type="curve" smooth="yes"/>
      <point x="153.30555555555554" y="328.3888888888889"/>
      <point x="193.27777777777777" y="348.6666666666667"/>
      <point x="236.13888888888889" y="348.6666666666667" type="curve" smooth="yes"/>
      <point x="315.6111111111111" y="348.6666666666667"/>
      <point x="361.0833333333333" y="288.1870796341135"/>
      <point x="361.0833333333333" y="179.0" type="curve" smooth="yes"/>
      <point x="361.0833333333333" y="73.68311621452234"/>
      <point x="310.44444444444446" y="20.166666666666664"/>
      <point x="240.80555555555554" y="20.166666666666664" type="curve" smooth="yes"/>
      <point x="183.97435897435898" y="20.166666666666664"/>
      <point x="154.11111111111111" y="51.25156494522692"/>
      <point x="154.11111111111111" y="94.52777777777777" type="curve" smooth="yes"/>
      <point x="154.11111111111111" y="121.25" type="line" smooth="yes"/>
      <point x="154.11111111111111" y="157.13888888888889"/>
      <point x="131.4496124031008" y="180.55555555555554"/>
      <point x="101.44444444444444" y="180.55555555555554" type="curve" smooth="yes"/>
      <point x="71.65637860082305" y="180.55555555555554"/>
      <point x="47.666666666666664" y="155.66666666666666"/>
    </contour>
  </outline>
</glyph>
<glyph name="six" format="2">
  <advance width="525.7222222222222"/>
  <unicode hex="0036"/>
  <outline>
    <contour>
      <point x="296.30555555555554" y="650.5277777777778" type="curve" smooth="yes"/>
      <point x="156.22222222222223" y="650.5277777777778"/>
      <point x="48.97222222222222" y="542.7777777777778"/>
      <point x="48.97222222222222" y="300.8611111111111" type="curve" smooth="yes"/>
      <point x="48.97222222222222" y="96.83333333333333"/>
      <point x="139.57936507936506" y="-12.36111111111111"/>
      <point x="266.19444444444446" y="-12.36111111111111" type="curve" smooth="yes"/>
      <point x="394.5" y="-12.36111111111111"/>
      <point x="484.4166666666667" y="84.36111111111111"/>
      <point x="484.4166666666667" y="207.25" type="curve" smooth="yes"/>
      <point x="484.4166666666667" y="331.77777777777777"/>
      <point x="407.5" y="398.6666666666667"/>
      <point x="307.44444444444446" y="398.6666666666667" type="curve" smooth="yes"/>
      <point x="208.86516203703704" y="398.6666666666667"/>
      <point x="122.86111111111111" y="332.55555555555554"/>
      <point x="122.86111111111111" y="209.33333333333334" type="curve"/>
      <point x="146.0" y="196.38888888888889" type="line"/>
      <point x="146.0" y="302.94444444444446"/>
      <point x="210.50045167118338" y="356.8888888888889"/>
      <point x="279.0" y="356.8888888888889" type="curve" smooth="yes"/>
      <point x="347.3888888888889" y="356.8888888888889"/>
      <point x="396.80555555555554" y="297.0833333333333"/>
      <point x="396.80555555555554" y="185.33333333333334" type="curve" smooth="yes"/>
      <point x="396.80555555555554" y="80.38888888888889"/>
      <point x="349.6388888888889" y="25.52777777777778"/>
      <point x="282.27777777777777" y="25.52777777777778" type="curve" smooth="yes"/>
      <point x="200.15660542432195" y="25.52777777777778"/>
      <point x="139.47222222222223" y="100.72222222222223"/>
      <point x="139.47222222222223" y="308.30555555555554" type="curve" smooth="yes"/>
      <point x="139.47222222222223" y="533.1111111111111"/>
      <point x="205.03329528158295" y="616.3055555555555"/>
      <point x="285.1111111111111" y="616.3055555555555" type="curve" smooth="yes"/>
      <point x="334.87373737373736" y="616.3055555555555"/>
      <point x="362.02777777777777" y="587.1388888888889"/>
      <point x="362.02777777777777" y="549.0555555555555" type="curve" smooth="yes"/>
      <point x="362.02777777777777" y="529.3611111111111" type="line" smooth="yes"/>
      <point x="362.02777777777777" y="489.8888888888889"/>
      <point x="383.1666666666667" y="468.47222222222223"/>
      <point x="415.1666666666667" y="468.47222222222223" type="curve" smooth="yes"/>
      <point x="448.5833333333333" y="468.47222222222223"/>
      <point x="467.3611111111111" y="490.4166666666667"/>
      <point x="467.3611111111111" y="527.3611111111111" type="curve" smooth="yes"/>
      <point x="467.3611111111111" y="592.4722222222222"/>
      <point x="400.5" y="650.5277777777778"/>
    </contour>
  </outline>
</glyph>
<glyph name="seven" format="2">
  <advance width="437.0"/>
  <unicode hex="0037"/>
  <outline>
    <contour>
      <point x="356.55555555555554" y="549.9166666666666" type="curve" smooth="yes"/>
      <point x="296.25" y="454.6388888888889" type="line" smooth="yes"/>
      <point x="184.08333333333334" y="278.3333333333333"/>
      <point x="137.55555555555554" y="180.13888888888889"/>
      <point x="137.55555555555554" y="86.66666666666667" type="curve" smooth="yes"/>
      <point x="137.55555555555554" y="21.77777777777778"/>
      <point x="164.33333333333334" y="-12.36111111111111"/>
      <point x="204.47222222222223" y="-12.36111111111111" type="curve" smooth="yes"/>
      <point x="244.61111111111111" y="-12.36111111111111"/>
      <point x="265.99828864821484" y="14.30292515041634"/>
      <point x="266.5" y="49.30555555555556" type="curve" smooth="yes"/>
      <point x="266.5" y="93.58218390804598"/>
      <point x="226.94444444444446" y="132.96675415573054"/>
      <point x="226.94444444444446" y="191.88888888888889" type="curve" smooth="yes"/>
      <point x="226.94444444444446" y="261.7302371541502"/>
      <point x="260.2485062941008" y="335.6810435504087"/>
      <point x="321.47222222222223" y="429.0" type="curve" smooth="yes"/>
      <point x="412.8888888888889" y="571.4166666666666" type="line" smooth="yes"/>
      <point x="426.02777777777777" y="590.9166666666666"/>
      <point x="432.0833333333333" y="603.6388888888889"/>
      <point x="432.0833333333333" y="618.25" type="curve" smooth="yes"/>
      <point x="432.0833333333333" y="629.3888888888889"/>
      <point x="423.25" y="637.6388888888889"/>
      <point x="411.6388888888889" y="637.6388888888889" type="curve" smooth="yes"/>
      <point x="73.72222222222223" y="637.6388888888889" type="line" smooth="yes"/>
      <point x="59.166666666666664" y="637.6388888888889"/>
      <point x="50.333333333333336" y="626.0277777777778"/>
      <point x="48.388888888888886" y="609.5833333333334" type="curve" smooth="yes"/>
      <point x="33.111111111111114" y="497.80555555555554" type="line" smooth="yes"/>
      <point x="31.11111111111111" y="483.55555555555554"/>
      <point x="38.47222222222222" y="476.72222222222223"/>
      <point x="46.25" y="476.72222222222223" type="curve" smooth="yes"/>
      <point x="55.44444444444444" y="476.72222222222223"/>
      <point x="62.75" y="484.44444444444446"/>
      <point x="66.58333333333333" y="492.1111111111111" type="curve" smooth="yes"/>
      <point x="90.02777777777777" y="537.4722222222222" type="line" smooth="yes"/>
      <point x="100.38888888888889" y="557.1944444444445"/>
      <point x="114.16666666666667" y="564.6111111111111"/>
      <point x="135.30555555555554" y="564.6111111111111" type="curve" smooth="yes"/>
      <point x="388.6666666666667" y="564.6111111111111" type="line"/>
      <point x="378.6111111111111" y="609.9166666666666" type="line"/>
      <point x="378.6111111111111" y="591.9166666666666"/>
      <point x="371.5" y="573.4444444444445"/>
    </contour>
  </outline>
</glyph>
<glyph name="eight" format="2">
  <advance width="501.5"/>
  <unicode hex="0038"/>
  <outline>
    <contour>
      <point x="248.02777777777777" y="-12.36111111111111" type="curve" smooth="yes"/>
      <point x="359.6388888888889" y="-12.36111111111111"/>
      <point x="447.4166666666667" y="57.111111111111114"/>
      <point x="447.4166666666667" y="154.0" type="curve" smooth="yes"/>
      <point x="447.4166666666667" y="221.83333333333334"/>
      <point x="402.47222222222223" y="286.94444444444446"/>
      <point x="285.27777777777777" y="332.4166666666667" type="curve" smooth="yes"/>
      <point x="169.02777777777777" y="376.0"/>
      <point x="130.22222222222223" y="429.47222222222223"/>
      <point x="130.22222222222223" y="500.80555555555554" type="curve" smooth="yes"/>
      <point x="130.22222222222223" y="567.3055555555555"/>
      <point x="177.91666666666666" y="613.0555555555555"/>
      <point x="250.33333333333334" y="613.0555555555555" type="curve" smooth="yes"/>
      <point x="326.19444444444446" y="613.0555555555555"/>
      <point x="372.6666666666667" y="559.6111111111111"/>
      <point x="372.6666666666667" y="488.72222222222223" type="curve" smooth="yes"/>
      <point x="372.6666666666667" y="424.8611111111111"/>
      <point x="334.97222222222223" y="355.52777777777777"/>
      <point x="280.9166666666667" y="324.0" type="curve"/>
      <point x="290.9166666666667" y="302.0" type="line"/>
      <point x="384.75" y="325.0"/>
      <point x="454.1666666666667" y="405.8888888888889"/>
      <point x="454.1666666666667" y="489.0" type="curve" smooth="yes"/>
      <point x="454.1666666666667" y="582.2777777777778"/>
      <point x="374.0833333333333" y="650.4722222222222"/>
      <point x="263.77777777777777" y="650.4722222222222" type="curve" smooth="yes"/>
      <point x="140.69444444444446" y="650.4722222222222"/>
      <point x="52.19444444444444" y="573.3888888888889"/>
      <point x="52.19444444444444" y="473.55555555555554" type="curve" smooth="yes"/>
      <point x="52.19444444444444" y="385.77777777777777"/>
      <point x="106.66666666666667" y="320.0833333333333"/>
      <point x="227.55555555555554" y="273.02777777777777" type="curve" smooth="yes"/>
      <point x="335.3888888888889" y="231.5"/>
      <point x="365.9166666666667" y="185.05555555555554"/>
      <point x="365.9166666666667" y="129.63888888888889" type="curve" smooth="yes"/>
      <point x="365.9166666666667" y="62.083333333333336"/>
      <point x="324.47222222222223" y="22.694444444444443"/>
      <point x="257.05555555555554" y="22.694444444444443" type="curve" smooth="yes"/>
      <point x="185.22222222222223" y="22.694444444444443"/>
      <point x="138.0" y="68.52777777777777"/>
      <point x="138.0" y="150.5" type="curve" smooth="yes"/>
      <point x="138.0" y="207.11111111111111"/>
      <point x="166.86111111111111" y="260.55555555555554"/>
      <point x="222.08333333333334" y="295.3888888888889" type="curve"/>
      <point x="214.5" y="306.22222222222223" type="line"/>
      <point x="117.44444444444444" y="288.22222222222223"/>
      <point x="57.55555555555556" y="222.30555555555554"/>
      <point x="57.55555555555556" y="142.0" type="curve" smooth="yes"/>
      <point x="57.55555555555556" y="49.0"/>
      <point x="131.58333333333334" y="-12.36111111111111"/>
    </contour>
  </outline>
</glyph>
<glyph name="less" format="2">
  <advance width="509.55555555555554"/>
  <unicode hex="003C"/>
  <outline>
    <contour>
      <point x="453.25" y="120.69444444444444" type="curve" smooth="yes"/>
      <point x="459.25" y="138.47222222222223"/>
      <point x="448.3720764657836" y="160.32785065599708"/>
      <point x="424.8611111111111" y="172.08333333333334" type="curve" smooth="yes"/>
      <point x="348.6666666666667" y="210.38888888888889"/>
      <point x="241.82104218140313" y="251.65605603147606"/>
      <point x="78.25" y="312.5833333333333" type="curve"/>
      <point x="77.72222222222223" y="300.80555555555554" type="line"/>
      <point x="241.18520943612947" y="361.16005085477303"/>
      <point x="348.765663978042" y="400.99324593596754"/>
      <point x="426.27777777777777" y="440.19444444444446" type="curve" smooth="yes"/>
      <point x="452.35352818067344" y="453.4684307570034"/>
      <point x="463.56700922650634" y="473.17697847148526"/>
      <point x="453.72222222222223" y="493.47222222222223" type="curve" smooth="yes"/>
      <point x="445.55508535421984" y="510.92567792051335"/>
      <point x="424.1195455882279" y="515.1118123029569"/>
      <point x="398.97222222222223" y="500.44444444444446" type="curve" smooth="yes"/>
      <point x="329.53852847283775" y="460.9492302543363"/>
      <point x="212.946728139361" y="390.70441180815317"/>
      <point x="57.083333333333336" y="326.1388888888889" type="curve" smooth="yes"/>
      <point x="45.47222222222222" y="321.25"/>
      <point x="40.0" y="314.52777777777777"/>
      <point x="40.0" y="306.1666666666667" type="curve" smooth="yes"/>
      <point x="40.0" y="298.3333333333333"/>
      <point x="44.416666666666664" y="291.0833333333333"/>
      <point x="57.083333333333336" y="285.6666666666667" type="curve" smooth="yes"/>
      <point x="212.86111111111111" y="221.13888888888889"/>
      <point x="330.52777777777777" y="152.25"/>
      <point x="398.97222222222223" y="111.36111111111111" type="curve" smooth="yes"/>
      <point x="424.5917678104501" y="95.27707658593197"/>
      <point x="447.19444444444446" y="102.27777777777777"/>
    </contour>
  </outline>
</glyph>
<glyph name="question" format="2">
  <advance width="423.5"/>
  <unicode hex="003F"/>
  <outline>
    <contour>
      <point x="151.41666666666666" y="286.47222222222223" type="line" smooth="yes"/>
      <point x="150.41666666666666" y="293.47222222222223"/>
      <point x="150.41666666666666" y="295.47222222222223"/>
      <point x="150.41666666666666" y="299.47222222222223" type="curve" smooth="yes"/>
      <point x="150.41666666666666" y="311.25"/>
      <point x="157.30555555555554" y="321.55555555555554"/>
      <point x="170.55555555555554" y="329.9166666666667" type="curve" smooth="yes"/>
      <point x="225.77777777777777" y="366.72222222222223" type="line" smooth="yes"/>
      <point x="289.01528189442206" y="408.8413871112835"/>
      <point x="317.4166666666667" y="456.76960784313724"/>
      <point x="317.4166666666667" y="536.9166666666666" type="curve" smooth="yes"/>
      <point x="317.4166666666667" y="636.1365058638021"/>
      <point x="276.47222222222223" y="684.1388888888889"/>
      <point x="213.05555555555554" y="684.1388888888889" type="curve" smooth="yes"/>
      <point x="158.30555555555554" y="684.1388888888889"/>
      <point x="127.13888888888889" y="659.9166666666666"/>
      <point x="127.13888888888889" y="599.3611111111111" type="curve" smooth="yes"/>
      <point x="127.13888888888889" y="577.6388888888889" type="line" smooth="yes"/>
      <point x="127.13888888888889" y="547.8611111111111"/>
      <point x="103.83333333333333" y="526.0833333333334"/>
      <point x="76.05555555555556" y="526.0833333333334" type="curve" smooth="yes"/>
      <point x="47.638888888888886" y="526.0833333333334"/>
      <point x="28.694444444444443" y="544.9166666666666"/>
      <point x="28.694444444444443" y="577.6388888888889" type="curve" smooth="yes"/>
      <point x="28.694444444444443" y="643.5277777777778"/>
      <point x="104.52777777777777" y="712.3611111111111"/>
      <point x="224.63888888888889" y="712.3611111111111" type="curve" smooth="yes"/>
      <point x="339.55555555555554" y="712.3611111111111"/>
      <point x="405.22222222222223" y="649.6557734204792"/>
      <point x="405.22222222222223" y="544.9166666666666" type="curve" smooth="yes"/>
      <point x="405.22222222222223" y="460.4932249322493"/>
      <point x="355.82308192911063" y="394.24585447041227"/>
      <point x="254.0" y="344.44444444444446" type="curve" smooth="yes"/>
      <point x="237.44444444444446" y="337.0833333333333" type="line" smooth="yes"/>
      <point x="221.02777777777777" y="329.55555555555554"/>
      <point x="213.55555555555554" y="315.6111111111111"/>
      <point x="211.02777777777777" y="291.9166666666667" type="curve" smooth="yes"/>
      <point x="199.80555555555554" y="191.08333333333334" type="line" smooth="yes"/>
      <point x="198.33333333333334" y="178.94444444444446"/>
      <point x="193.5" y="173.11111111111111"/>
      <point x="182.77777777777777" y="173.11111111111111" type="curve" smooth="yes"/>
      <point x="170.52777777777777" y="173.11111111111111"/>
      <point x="166.11111111111111" y="181.36111111111111"/>
      <point x="164.63888888888889" y="191.55555555555554" type="curve" smooth="yes"/>
    </contour>
    <component base="period" xScale="0.9329999999999999" yScale="0.9329999999999999" xOffset="68.80555555555556" yOffset="2.0"/>
  </outline>
</glyph>
<glyph name="at" format="2">
  <advance width="764.2777777777778"/>
  <unicode hex="0040"/>
  <outline>
    <contour>
      <point x="472.8611111111111" y="240.58333333333334" type="curve"/>
      <point x="473.1388888888889" y="259.02777777777777" type="line"/>
      <point x="451.65713748523825" y="269.4845416164253"/>
      <point x="422.4229088639201" y="278.72222222222223"/>
      <point x="382.9166666666667" y="278.72222222222223" type="curve" smooth="yes"/>
      <point x="288.2531692766592" y="278.72222222222223"/>
      <point x="240.94444444444446" y="236.30555555555554"/>
      <point x="240.94444444444446" y="180.88888888888889" type="curve" smooth="yes"/>
      <point x="240.94444444444446" y="123.94444444444444"/>
      <point x="284.4555555555556" y="89.0"/>
      <point x="350.25" y="89.0" type="curve" smooth="yes"/>
      <point x="402.58628841607566" y="89.0"/>
      <point x="452.5995142822191" y="113.7665348167319"/>
      <point x="484.02777777777777" y="156.36111111111111" type="curve"/>
      <point x="468.8888888888889" y="173.80555555555554" type="line"/>
      <point x="451.44162730506855" y="143.60254028666498"/>
      <point x="417.79766414141415" y="128.44444444444446"/>
      <point x="380.72222222222223" y="128.44444444444446" type="curve" smooth="yes"/>
      <point x="342.18305374339855" y="128.44444444444446"/>
      <point x="315.5" y="150.61111111111111"/>
      <point x="315.5" y="189.88888888888889" type="curve" smooth="yes"/>
      <point x="315.5" y="225.11111111111111"/>
      <point x="338.7699413036762" y="255.33333333333334"/>
      <point x="388.77777777777777" y="255.33333333333334" type="curve" smooth="yes"/>
      <point x="422.51666666666665" y="255.33333333333334"/>
      <point x="450.01003843192143" y="248.60896001855653"/>
    </contour>
    <contour>
      <point x="266.4166666666667" y="372.3888888888889" type="curve" smooth="yes"/>
      <point x="266.4166666666667" y="349.5"/>
      <point x="281.93067226890753" y="333.55555555555554"/>
      <point x="303.3611111111111" y="333.55555555555554" type="curve" smooth="yes"/>
      <point x="329.18766937669375" y="333.55555555555554"/>
      <point x="346.6111111111111" y="352.57505910165486"/>
      <point x="346.6111111111111" y="377.75" type="curve" smooth="yes"/>
      <point x="346.6111111111111" y="395.75" type="line" smooth="yes"/>
      <point x="346.6111111111111" y="424.11111111111114"/>
      <point x="365.6666666666667" y="438.0833333333333"/>
      <point x="394.25" y="438.0833333333333" type="curve" smooth="yes"/>
      <point x="430.77777777777777" y="438.0833333333333"/>
      <point x="454.19444444444446" y="413.37573099415204"/>
      <point x="454.19444444444446" y="347.27777777777777" type="curve" smooth="yes"/>
      <point x="454.19444444444446" y="196.0" type="line" smooth="yes"/>
      <point x="454.19444444444446" y="119.0"/>
      <point x="503.54097909790977" y="89.0"/>
      <point x="558.5555555555555" y="89.0" type="curve" smooth="yes"/>
      <point x="645.3888888888889" y="89.0"/>
      <point x="713.2777777777778" y="166.84103410341035"/>
      <point x="713.2777777777778" y="301.0" type="curve" smooth="yes"/>
      <point x="713.2777777777778" y="487.0"/>
      <point x="585.3888888888889" y="614.0"/>
      <point x="409.55555555555554" y="614.0" type="curve" smooth="yes"/>
      <point x="200.30555555555554" y="614.0"/>
      <point x="47.0" y="468.0"/>
      <point x="47.0" y="267.0" type="curve" smooth="yes"/>
      <point x="47.0" y="56.0"/>
      <point x="186.83333333333334" y="-83.0"/>
      <point x="396.55555555555554" y="-83.0" type="curve" smooth="yes"/>
      <point x="520.5555555555555" y="-83.0"/>
      <point x="627.6111111111111" y="-27.194444444444443"/>
      <point x="689.5" y="47.66666666666667" type="curve" smooth="yes"/>
      <point x="695.3333333333334" y="55.02777777777778"/>
      <point x="698.2777777777778" y="61.388888888888886"/>
      <point x="698.2777777777778" y="66.75" type="curve" smooth="yes"/>
      <point x="698.2777777777778" y="72.11111111111111"/>
      <point x="694.6794871794872" y="76.52777777777777"/>
      <point x="688.5" y="76.52777777777777" type="curve" smooth="yes"/>
      <point x="683.7488425925926" y="76.52777777777777"/>
      <point x="678.1068446038244" y="73.96795571493543"/>
      <point x="671.8333333333334" y="67.16666666666667" type="curve" smooth="yes"/>
      <point x="620.0340669683771" y="5.354374278091525"/>
      <point x="518.9166666666666" y="-49.47222222222222"/>
      <point x="397.02777777777777" y="-49.47222222222222" type="curve" smooth="yes"/>
      <point x="213.75" y="-49.47222222222222"/>
      <point x="83.05555555555556" y="81.91666666666667"/>
      <point x="83.05555555555556" y="267.0" type="curve" smooth="yes"/>
      <point x="83.05555555555556" y="449.5"/>
      <point x="220.57999236349752" y="582.8333333333334"/>
      <point x="406.72222222222223" y="582.8333333333334" type="curve" smooth="yes"/>
      <point x="562.4722222222222" y="582.8333333333334"/>
      <point x="678.1666666666666" y="467.5"/>
      <point x="678.1666666666666" y="300.0" type="curve" smooth="yes"/>
      <point x="678.1666666666666" y="183.6539735099338"/>
      <point x="635.2571225071225" y="123.16666666666667"/>
      <point x="573.8055555555555" y="123.16666666666667" type="curve" smooth="yes"/>
      <point x="536.054856743536" y="123.16666666666667"/>
      <point x="516.9166666666666" y="147.16666666666666"/>
      <point x="516.9166666666666" y="188.16666666666666" type="curve" smooth="yes"/>
      <point x="516.9166666666666" y="364.27777777777777" type="line" smooth="yes"/>
      <point x="516.9166666666666" y="428.6691919191919"/>
      <point x="472.2325564728815" y="459.0"/>
      <point x="410.8611111111111" y="459.0" type="curve" smooth="yes"/>
      <point x="320.3089225589226" y="459.0"/>
      <point x="266.4166666666667" y="413.75"/>
    </contour>
  </outline>
</glyph>
<glyph name="C" format="2">
  <advance width="660.3055555555555"/>
  <unicode hex="0043"/>
  <anchor x="358.30555555555554" y="775.0" name="center"/>
  <outline>
    <contour>
      <point x="629.0833333333334" y="160.44444444444446" type="curve" smooth="yes"/>
      <point x="629.0833333333334" y="166.86111111111111"/>
      <point x="626.1388888888889" y="171.27777777777777"/>
      <point x="620.3055555555555" y="171.27777777777777" type="curve" smooth="yes"/>
      <point x="615.4722222222222" y="171.27777777777777"/>
      <point x="610.5833333333334" y="167.38888888888889"/>
      <point x="604.3333333333334" y="159.08333333333334" type="curve" smooth="yes"/>
      <point x="571.6237964871198" y="96.41323382373582"/>
      <point x="501.6396691635456" y="58.05555555555556"/>
      <point x="410.47222222222223" y="58.05555555555556" type="curve" smooth="yes"/>
      <point x="242.74157955865272" y="58.05555555555556"/>
      <point x="127.66666666666667" y="182.22222222222223"/>
      <point x="127.66666666666667" y="376.94444444444446" type="curve" smooth="yes"/>
      <point x="127.66666666666667" y="564.7976333734457"/>
      <point x="231.72222222222223" y="676.4166666666666"/>
      <point x="376.30555555555554" y="676.4166666666666" type="curve" smooth="yes"/>
      <point x="465.6882059364329" y="676.4166666666666"/>
      <point x="529.551861390485" y="630.7667351549924"/>
      <point x="593.2222222222222" y="529.4444444444445" type="curve" smooth="yes"/>
      <point x="603.8244528952665" y="514.9434985419872"/>
      <point x="610.3913043478261" y="510.5833333333333"/>
      <point x="618.75" y="510.5833333333333" type="curve" smooth="yes"/>
      <point x="627.0" y="510.5833333333333"/>
      <point x="633.3055555555555" y="517.4166666666666"/>
      <point x="633.3055555555555" y="526.7222222222222" type="curve" smooth="yes"/>
      <point x="633.3055555555555" y="532.6111111111111"/>
      <point x="632.3611111111111" y="536.5"/>
      <point x="627.4722222222222" y="551.6944444444445" type="curve" smooth="yes"/>
      <point x="582.0833333333334" y="693.1388888888889" type="line" smooth="yes"/>
      <point x="576.7222222222222" y="709.1666666666666"/>
      <point x="571.3611111111111" y="715.0"/>
      <point x="562.5833333333334" y="715.0" type="curve" smooth="yes"/>
      <point x="548.8611111111111" y="715.0"/>
      <point x="533.1944444444445" y="683.3611111111111"/>
      <point x="514.8333333333334" y="683.3611111111111" type="curve" smooth="yes"/>
      <point x="495.68518518518516" y="683.3611111111111"/>
      <point x="450.1525647420709" y="713.0"/>
      <point x="378.30555555555554" y="713.0" type="curve" smooth="yes"/>
      <point x="182.58499170812604" y="713.0"/>
      <point x="38.583333333333336" y="557.885752688172"/>
      <point x="38.583333333333336" y="338.0" type="curve" smooth="yes"/>
      <point x="38.583333333333336" y="129.89122971285894"/>
      <point x="165.57463186077644" y="-15.0"/>
      <point x="363.30555555555554" y="-15.0" type="curve" smooth="yes"/>
      <point x="514.5287141073658" y="-15.0"/>
      <point x="629.0833333333334" y="78.55707994579946"/>
    </contour>
  </outline>
</glyph>
<glyph name="E" format="2">
  <advance width="595.8611111111111"/>
  <unicode hex="0045"/>
  <anchor x="318.05555555555554" y="-63.55555555555556" name="right"/>
  <outline>
    <contour>
      <point x="181.61111111111111" y="358.1388888888889" type="line"/>
      <point x="175.61111111111111" y="325.8611111111111" type="line"/>
      <point x="348.80555555555554" y="325.8611111111111" type="line" smooth="yes"/>
      <point x="398.97222222222223" y="325.8611111111111"/>
      <point x="424.44444444444446" y="310.3333333333333"/>
      <point x="443.9166666666667" y="276.4166666666667" type="curve" smooth="yes"/>
      <point x="452.6388888888889" y="263.69444444444446"/>
      <point x="459.0427927927928" y="257.8611111111111"/>
      <point x="468.25" y="257.8611111111111" type="curve" smooth="yes"/>
      <point x="475.76633986928107" y="257.8611111111111"/>
      <point x="481.02777777777777" y="262.27777777777777"/>
      <point x="481.02777777777777" y="270.6388888888889" type="curve" smooth="yes"/>
      <point x="481.02777777777777" y="272.9555555555556"/>
      <point x="481.25731176153624" y="277.1872054627828"/>
      <point x="479.02777777777777" y="284.5833333333333" type="curve" smooth="yes"/>
      <point x="442.9166666666667" y="412.4166666666667" type="line" smooth="yes"/>
      <point x="440.44444444444446" y="421.25"/>
      <point x="436.63095238095235" y="426.1388888888889"/>
      <point x="428.25" y="426.1388888888889" type="curve" smooth="yes"/>
      <point x="421.0145502645503" y="426.1388888888889"/>
      <point x="415.94444444444446" y="419.6666666666667"/>
      <point x="413.05555555555554" y="409.72222222222223" type="curve" smooth="yes"/>
      <point x="402.97222222222223" y="374.8888888888889"/>
      <point x="382.55555555555554" y="358.1388888888889"/>
      <point x="346.80555555555554" y="358.1388888888889" type="curve" smooth="yes"/>
    </contour>
    <contour>
      <point x="29.444444444444443" y="686.9166666666666" type="curve" smooth="yes"/>
      <point x="29.444444444444443" y="678.3712121212121"/>
      <point x="35.33333333333333" y="674.7222222222222"/>
      <point x="49.166666666666664" y="671.25" type="curve" smooth="yes"/>
      <point x="95.66666666666667" y="660.0833333333334" type="line" smooth="yes"/>
      <point x="111.19308380271178" y="656.2856998805219"/>
      <point x="119.44444444444444" y="644.3862847222222"/>
      <point x="119.44444444444444" y="626.7222222222222" type="curve" smooth="yes"/>
      <point x="119.44444444444444" y="77.61111111111111" type="line" smooth="yes"/>
      <point x="119.44444444444444" y="54.47222222222222"/>
      <point x="110.23850632690952" y="43.10437430808156"/>
      <point x="89.36111111111111" y="37.75" type="curve" smooth="yes"/>
      <point x="46.361111111111114" y="28.63888888888889" type="line" smooth="yes"/>
      <point x="34.22222222222222" y="25.27777777777778"/>
      <point x="29.444444444444443" y="20.536324786324784"/>
      <point x="29.444444444444443" y="11.083333333333332" type="curve" smooth="yes"/>
      <point x="29.444444444444443" y="3.5"/>
      <point x="36.75" y="0.0"/>
      <point x="48.41666666666667" y="0.0" type="curve" smooth="yes"/>
      <point x="446.0833333333333" y="0.0" type="line" smooth="yes"/>
      <point x="464.2212643678161" y="0.0"/>
      <point x="474.68055555555554" y="-19.72222222222222"/>
      <point x="492.02777777777777" y="-19.72222222222222" type="curve" smooth="yes"/>
      <point x="503.55555555555554" y="-19.72222222222222"/>
      <point x="511.69444444444446" y="-13.833333333333332"/>
      <point x="514.1666666666666" y="-3.0" type="curve" smooth="yes"/>
      <point x="553.0277777777778" y="152.30555555555554" type="line" smooth="yes"/>
      <point x="555.5" y="163.19444444444446"/>
      <point x="555.9722222222222" y="170.08333333333334"/>
      <point x="555.9722222222222" y="175.02777777777777" type="curve" smooth="yes"/>
      <point x="555.9722222222222" y="183.38888888888889"/>
      <point x="551.5555555555555" y="188.27777777777777"/>
      <point x="543.25" y="188.27777777777777" type="curve" smooth="yes"/>
      <point x="535.0" y="188.27777777777777"/>
      <point x="526.6944444444445" y="181.44444444444446"/>
      <point x="518.5" y="166.36111111111111" type="curve" smooth="yes"/>
      <point x="472.44444444444446" y="62.80555555555556"/>
      <point x="437.94444444444446" y="36.166666666666664"/>
      <point x="381.97222222222223" y="36.166666666666664" type="curve" smooth="yes"/>
      <point x="272.3333333333333" y="36.166666666666664" type="line" smooth="yes"/>
      <point x="232.61111111111111" y="36.166666666666664"/>
      <point x="210.25" y="54.94444444444444"/>
      <point x="210.25" y="83.61111111111111" type="curve" smooth="yes"/>
      <point x="210.25" y="665.8333333333334" type="line"/>
      <point x="351.69444444444446" y="665.8333333333334" type="line" smooth="yes"/>
      <point x="415.1111111111111" y="665.8333333333334"/>
      <point x="456.02777777777777" y="639.7222222222222"/>
      <point x="505.0833333333333" y="557.4722222222222" type="curve" smooth="yes"/>
      <point x="514.8055555555555" y="542.8055555555555"/>
      <point x="523.0555555555555" y="537.5"/>
      <point x="531.3055555555555" y="537.5" type="curve" smooth="yes"/>
      <point x="537.6111111111111" y="537.5"/>
      <point x="542.9722222222222" y="542.3888888888889"/>
      <point x="542.9722222222222" y="550.6944444444445" type="curve" smooth="yes"/>
      <point x="542.9722222222222" y="554.1111111111111"/>
      <point x="542.5" y="560.4722222222222"/>
      <point x="540.5555555555555" y="568.3055555555555" type="curve" smooth="yes"/>
      <point x="503.3333333333333" y="706.2222222222222" type="line" smooth="yes"/>
      <point x="499.9166666666667" y="718.9444444444445"/>
      <point x="496.9146825396826" y="723.8333333333334"/>
      <point x="486.30555555555554" y="723.8333333333334" type="curve" smooth="yes"/>
      <point x="479.47222222222223" y="723.8333333333334"/>
      <point x="473.70882058498177" y="720.6676411699635"/>
      <point x="467.75" y="713.0" type="curve" smooth="yes"/>
      <point x="462.3333333333333" y="704.4722222222222"/>
      <point x="450.1331417624521" y="700.0"/>
      <point x="440.8611111111111" y="700.0" type="curve" smooth="yes"/>
      <point x="48.111111111111114" y="700.0" type="line" smooth="yes"/>
      <point x="36.33333333333333" y="700.0"/>
      <point x="29.444444444444443" y="695.015873015873"/>
    </contour>
  </outline>
</glyph>
<glyph name="G" format="2">
  <advance width="719.7222222222222"/>
  <unicode hex="0047"/>
  <outline>
    <contour>
      <point x="633.2777777777778" y="14.972222222222221" type="curve" smooth="yes"/>
      <point x="633.2777777777778" y="212.61111111111111" type="line" smooth="yes"/>
      <point x="633.2777777777778" y="231.91666666666666"/>
      <point x="639.6388888888889" y="244.22222222222223"/>
      <point x="653.0" y="249.22222222222223" type="curve" smooth="yes"/>
      <point x="684.8333333333334" y="262.6111111111111" type="line" smooth="yes"/>
      <point x="698.3888888888889" y="267.5"/>
      <point x="702.2777777777778" y="270.9166666666667"/>
      <point x="702.2777777777778" y="278.22222222222223" type="curve" smooth="yes"/>
      <point x="702.2777777777778" y="286.0"/>
      <point x="695.0277777777778" y="290.3611111111111"/>
      <point x="683.4166666666666" y="290.3611111111111" type="curve" smooth="yes"/>
      <point x="457.19444444444446" y="290.3611111111111" type="line" smooth="yes"/>
      <point x="443.52777777777777" y="290.3611111111111"/>
      <point x="436.22222222222223" y="285.47222222222223"/>
      <point x="436.22222222222223" y="276.6388888888889" type="curve" smooth="yes"/>
      <point x="436.22222222222223" y="267.3333333333333"/>
      <point x="443.05555555555554" y="262.5"/>
      <point x="455.77777777777777" y="260.5" type="curve" smooth="yes"/>
      <point x="511.4166666666667" y="249.75" type="line" smooth="yes"/>
      <point x="532.0277777777778" y="245.80555555555554"/>
      <point x="544.2222222222222" y="235.33333333333334"/>
      <point x="544.2222222222222" y="219.97222222222223" type="curve" smooth="yes"/>
      <point x="544.2222222222222" y="98.61111111111111" type="line" smooth="yes"/>
      <point x="544.2222222222222" y="55.97222222222222"/>
      <point x="499.94444444444446" y="33.916666666666664"/>
      <point x="404.4166666666667" y="33.916666666666664" type="curve" smooth="yes"/>
      <point x="247.19444444444446" y="33.916666666666664"/>
      <point x="141.02777777777777" y="163.1164021164021"/>
      <point x="141.02777777777777" y="365.0" type="curve" smooth="yes"/>
      <point x="141.02777777777777" y="552.0864920104051"/>
      <point x="236.9415322580645" y="677.4722222222222"/>
      <point x="394.1666666666667" y="677.4722222222222" type="curve" smooth="yes"/>
      <point x="475.4044652128764" y="677.4722222222222"/>
      <point x="553.0058127802434" y="629.9794851979217"/>
      <point x="616.0277777777778" y="528.6666666666666" type="curve" smooth="yes"/>
      <point x="625.6388888888889" y="515.5277777777778"/>
      <point x="632.4722222222222" y="511.5833333333333"/>
      <point x="640.25" y="511.5833333333333" type="curve" smooth="yes"/>
      <point x="648.207671957672" y="511.5833333333333"/>
      <point x="653.3888888888889" y="517.0944444444444"/>
      <point x="653.3888888888889" y="524.8333333333334" type="curve" smooth="yes"/>
      <point x="653.3888888888889" y="533.0"/>
      <point x="651.4332529429895" y="539.125496151017"/>
      <point x="647.9722222222222" y="551.8611111111111" type="curve" smooth="yes"/>
      <point x="610.1944444444445" y="693.9722222222222" type="line" smooth="yes"/>
      <point x="605.8333333333334" y="708.6388888888889"/>
      <point x="600.3611111111111" y="713.0"/>
      <point x="592.5277777777778" y="713.0" type="curve" smooth="yes"/>
      <point x="578.1666666666666" y="713.0"/>
      <point x="556.6111111111111" y="684.5277777777778"/>
      <point x="537.1388888888889" y="684.5277777777778" type="curve" smooth="yes"/>
      <point x="518.1944444444445" y="684.5277777777778"/>
      <point x="481.25" y="713.5277777777778"/>
      <point x="401.8888888888889" y="713.5277777777778" type="curve" smooth="yes"/>
      <point x="180.47222222222223" y="713.5277777777778"/>
      <point x="38.583333333333336" y="553.6924398625429"/>
      <point x="38.583333333333336" y="330.0" type="curve" smooth="yes"/>
      <point x="38.583333333333336" y="123.04861111111111"/>
      <point x="178.52777777777777" y="-12.88888888888889"/>
      <point x="369.55555555555554" y="-12.88888888888889" type="curve" smooth="yes"/>
      <point x="464.30555555555554" y="-12.88888888888889"/>
      <point x="518.3333333333334" y="27.75"/>
      <point x="545.4722222222222" y="27.75" type="curve" smooth="yes"/>
      <point x="565.8333333333334" y="27.75"/>
      <point x="589.1666666666666" y="-12.88888888888889"/>
      <point x="608.3055555555555" y="-12.88888888888889" type="curve" smooth="yes"/>
      <point x="625.8611111111111" y="-12.88888888888889"/>
      <point x="633.2777777777778" y="-1.6388888888888888"/>
    </contour>
  </outline>
</glyph>
<glyph name="H" format="2">
  <advance width="758.1388888888889"/>
  <unicode hex="0048"/>
  <outline>
    <contour>
      <point x="170.33333333333334" y="351.0833333333333" type="line"/>
      <point x="170.33333333333334" y="313.9166666666667" type="line"/>
      <point x="582.6666666666666" y="313.9166666666667" type="line"/>
      <point x="582.6666666666666" y="351.0833333333333" type="line"/>
    </contour>
    <component base="I" xOffset="-5.75"/>
    <component base="I" xOffset="412.1388888888889"/>
  </outline>
</glyph>
<glyph name="I" format="2">
  <advance width="351.75"/>
  <unicode hex="0049"/>
  <outline>
    <contour>
      <point x="221.27777777777777" y="69.83333333333333" type="curve" smooth="yes"/>
      <point x="221.27777777777777" y="624.9444444444445" type="line" smooth="yes"/>
      <point x="221.27777777777777" y="647.1944444444445"/>
      <point x="230.11111111111111" y="657.5555555555555"/>
      <point x="250.36111111111111" y="662.0277777777778" type="curve" smooth="yes"/>
      <point x="293.8333333333333" y="672.7777777777778" type="line" smooth="yes"/>
      <point x="304.5" y="674.7222222222222"/>
      <point x="311.27777777777777" y="678.6111111111111"/>
      <point x="311.27777777777777" y="687.3333333333334" type="curve" smooth="yes"/>
      <point x="311.27777777777777" y="696.1111111111111"/>
      <point x="304.44444444444446" y="700.0"/>
      <point x="290.8333333333333" y="700.0" type="curve" smooth="yes"/>
      <point x="60.916666666666664" y="700.0" type="line" smooth="yes"/>
      <point x="46.30555555555556" y="700.0"/>
      <point x="40.47222222222222" y="696.1111111111111"/>
      <point x="40.47222222222222" y="687.3333333333334" type="curve" smooth="yes"/>
      <point x="40.47222222222222" y="678.6111111111111"/>
      <point x="46.77777777777778" y="674.7222222222222"/>
      <point x="57.916666666666664" y="672.7777777777778" type="curve" smooth="yes"/>
      <point x="101.38888888888889" y="662.0277777777778" type="line" smooth="yes"/>
      <point x="120.63888888888889" y="657.5555555555555"/>
      <point x="130.47222222222223" y="647.1944444444445"/>
      <point x="130.47222222222223" y="624.9444444444445" type="curve" smooth="yes"/>
      <point x="130.47222222222223" y="69.83333333333333" type="line" smooth="yes"/>
      <point x="130.47222222222223" y="49.638888888888886"/>
      <point x="120.63888888888889" y="39.80555555555556"/>
      <point x="100.86111111111111" y="35.861111111111114" type="curve" smooth="yes"/>
      <point x="58.97222222222222" y="27.75" type="line" smooth="yes"/>
      <point x="46.77777777777778" y="25.333333333333332"/>
      <point x="40.47222222222222" y="21.916666666666664"/>
      <point x="40.47222222222222" y="12.666666666666666" type="curve" smooth="yes"/>
      <point x="40.47222222222222" y="3.888888888888889"/>
      <point x="45.77777777777778" y="0.0"/>
      <point x="59.861111111111114" y="0.0" type="curve" smooth="yes"/>
      <point x="291.8888888888889" y="0.0" type="line" smooth="yes"/>
      <point x="304.97222222222223" y="0.0"/>
      <point x="311.27777777777777" y="3.888888888888889"/>
      <point x="311.27777777777777" y="12.666666666666666" type="curve" smooth="yes"/>
      <point x="311.27777777777777" y="21.38888888888889"/>
      <point x="304.5" y="24.805555555555557"/>
      <point x="293.8333333333333" y="27.22222222222222" type="curve" smooth="yes"/>
      <point x="250.36111111111111" y="35.861111111111114" type="line" smooth="yes"/>
      <point x="230.11111111111111" y="39.80555555555556"/>
      <point x="221.27777777777777" y="49.638888888888886"/>
    </contour>
  </outline>
</glyph>
<glyph name="J" format="2">
  <advance width="401.1666666666667"/>
  <unicode hex="004A"/>
  <anchor x="238.44444444444446" y="732.0" name="center"/>
  <outline>
    <contour>
      <point x="318.02777777777777" y="139.63888888888889" type="curve" smooth="yes"/>
      <point x="318.02777777777777" y="167.63888888888889"/>
      <point x="312.00016224743825" y="190.01797769372436"/>
      <point x="301.3888888888889" y="220.63888888888889" type="curve" smooth="yes"/>
      <point x="290.88707861562756" y="251.38393270686623"/>
      <point x="288.4328541447443" y="273.6389646908288"/>
      <point x="288.3888888888889" y="300.6388888888889" type="curve" smooth="yes"/>
      <point x="287.9166666666667" y="611.75" type="line" smooth="yes"/>
      <point x="287.9166666666667" y="641.3611111111111"/>
      <point x="296.9166666666667" y="657.6111111111111"/>
      <point x="314.9166666666667" y="662.6111111111111" type="curve" smooth="yes"/>
      <point x="349.94444444444446" y="672.3055555555555" type="line" smooth="yes"/>
      <point x="361.6111111111111" y="674.7777777777778"/>
      <point x="367.9166666666667" y="678.6666666666666"/>
      <point x="367.9166666666667" y="687.3888888888889" type="curve" smooth="yes"/>
      <point x="367.9166666666667" y="695.6388888888889"/>
      <point x="362.0833333333333" y="699.5277777777778"/>
      <point x="347.94444444444446" y="699.5277777777778" type="curve" smooth="yes"/>
      <point x="119.08333333333333" y="699.5277777777778" type="line" smooth="yes"/>
      <point x="104.47222222222223" y="699.5277777777778"/>
      <point x="98.63888888888889" y="695.6388888888889"/>
      <point x="98.63888888888889" y="686.8611111111111" type="curve" smooth="yes"/>
      <point x="98.63888888888889" y="678.1388888888889"/>
      <point x="104.94444444444444" y="674.7777777777778"/>
      <point x="117.66666666666666" y="672.3055555555555" type="curve" smooth="yes"/>
      <point x="161.66666666666666" y="662.6111111111111" type="line" smooth="yes"/>
      <point x="185.33333333333334" y="657.6666666666666"/>
      <point x="197.11111111111111" y="646.1944444444445"/>
      <point x="197.11111111111111" y="621.3055555555555" type="curve" smooth="yes"/>
      <point x="197.11111111111111" y="278.6388888888889" type="line" smooth="yes"/>
      <point x="197.11111111111111" y="250.63888888888889"/>
      <point x="203.58333333333334" y="217.47222222222223"/>
      <point x="221.11111111111111" y="186.63888888888889" type="curve" smooth="yes"/>
      <point x="241.80555555555554" y="151.58333333333334"/>
      <point x="251.86111111111111" y="124.16666666666667"/>
      <point x="251.86111111111111" y="94.16666666666667" type="curve" smooth="yes"/>
      <point x="251.86111111111111" y="44.666666666666664"/>
      <point x="221.75" y="16.38888888888889"/>
      <point x="174.58333333333334" y="16.38888888888889" type="curve" smooth="yes"/>
      <point x="135.30555555555554" y="16.38888888888889"/>
      <point x="121.72222222222223" y="38.083333333333336"/>
      <point x="121.72222222222223" y="71.36111111111111" type="curve" smooth="yes"/>
      <point x="121.72222222222223" y="102.66666666666667" type="line" smooth="yes"/>
      <point x="121.72222222222223" y="133.5"/>
      <point x="106.30555555555556" y="156.86111111111111"/>
      <point x="74.94444444444444" y="156.86111111111111" type="curve" smooth="yes"/>
      <point x="39.75" y="156.86111111111111"/>
      <point x="21.916666666666664" y="132.91666666666666"/>
      <point x="21.916666666666664" y="97.02777777777777" type="curve" smooth="yes"/>
      <point x="21.916666666666664" y="33.888888888888886"/>
      <point x="71.27777777777777" y="-12.36111111111111"/>
      <point x="161.0" y="-12.36111111111111" type="curve" smooth="yes"/>
      <point x="257.72222222222223" y="-12.36111111111111"/>
      <point x="318.02777777777777" y="47.638888888888886"/>
    </contour>
  </outline>
</glyph>
<glyph name="K" format="2">
  <advance width="665.7777777777778"/>
  <unicode hex="004B"/>
  <outline>
    <contour>
      <point x="159.58333333333334" y="201.0" type="line"/>
      <point x="186.05555555555554" y="189.0" type="line"/>
      <point x="542.3333333333334" y="594.5555555555555" type="line" smooth="yes"/>
      <point x="571.5555555555555" y="627.8333333333334"/>
      <point x="603.5277777777778" y="653.2777777777778"/>
      <point x="639.6388888888889" y="666.1111111111111" type="curve" smooth="yes"/>
      <point x="652.1944444444445" y="671.3611111111111"/>
      <point x="661.8055555555555" y="675.7777777777778"/>
      <point x="661.3333333333334" y="687.3888888888889" type="curve" smooth="yes"/>
      <point x="660.3333333333334" y="694.6944444444445"/>
      <point x="656.5" y="700.0"/>
      <point x="642.8888888888889" y="700.0" type="curve" smooth="yes"/>
      <point x="470.3611111111111" y="700.0" type="line" smooth="yes"/>
      <point x="459.1666666666667" y="700.0"/>
      <point x="450.8611111111111" y="695.5833333333334"/>
      <point x="450.8611111111111" y="687.2777777777778" type="curve" smooth="yes"/>
      <point x="450.8611111111111" y="678.5"/>
      <point x="456.69444444444446" y="675.0833333333334"/>
      <point x="465.05555555555554" y="670.7222222222222" type="curve" smooth="yes"/>
      <point x="498.97222222222223" y="655.25" type="line" smooth="yes"/>
      <point x="511.9166666666667" y="648.8888888888889"/>
      <point x="519.4444444444445" y="642.7222222222222"/>
      <point x="519.4444444444445" y="632.7222222222222" type="curve" smooth="yes"/>
      <point x="519.4444444444445" y="623.1944444444445"/>
      <point x="516.3888888888889" y="614.6111111111111"/>
      <point x="505.8611111111111" y="602.5555555555555" type="curve" smooth="yes"/>
    </contour>
    <contour>
      <point x="314.8333333333333" y="351.55555555555554" type="line"/>
      <point x="477.9166666666667" y="88.83333333333333" type="line" smooth="yes"/>
      <point x="486.8611111111111" y="74.36111111111111"/>
      <point x="492.9166666666667" y="67.41666666666667"/>
      <point x="492.9166666666667" y="52.47222222222222" type="curve" smooth="yes"/>
      <point x="492.9166666666667" y="42.638888888888886"/>
      <point x="487.8611111111111" y="35.166666666666664"/>
      <point x="471.44444444444446" y="28.86111111111111" type="curve" smooth="yes"/>
      <point x="459.5" y="24.5"/>
      <point x="451.1388888888889" y="21.02777777777778"/>
      <point x="451.1388888888889" y="12.722222222222221" type="curve" smooth="yes"/>
      <point x="451.1388888888889" y="4.416666666666666"/>
      <point x="458.44444444444446" y="0.0"/>
      <point x="470.6388888888889" y="0.0" type="curve" smooth="yes"/>
      <point x="645.8055555555555" y="0.0" type="line" smooth="yes"/>
      <point x="661.0" y="0.0"/>
      <point x="667.3611111111111" y="5.361111111111111"/>
      <point x="667.3611111111111" y="14.13888888888889" type="curve" smooth="yes"/>
      <point x="667.3611111111111" y="22.97222222222222"/>
      <point x="661.5277777777778" y="25.38888888888889"/>
      <point x="648.5277777777778" y="29.86111111111111" type="curve" smooth="yes"/>
      <point x="627.0555555555555" y="37.75"/>
      <point x="609.6388888888889" y="46.80555555555556"/>
      <point x="591.6944444444445" y="74.27777777777777" type="curve" smooth="yes"/>
      <point x="370.8611111111111" y="416.27777777777777" type="line"/>
    </contour>
    <component base="I"/>
  </outline>
</glyph>
<glyph name="M" format="2">
  <advance width="865.4722222222222"/>
  <unicode hex="004D"/>
  <outline>
    <contour>
      <point x="454.05555555555554" y="182.72222222222223" type="line"/>
      <point x="231.88888888888889" y="675.9722222222222" type="line" smooth="yes"/>
      <point x="224.05555555555554" y="693.1666666666666"/>
      <point x="214.16666666666666" y="700.0"/>
      <point x="198.44444444444446" y="700.0" type="curve" smooth="yes"/>
      <point x="89.33333333333333" y="700.0" type="line" smooth="yes"/>
      <point x="75.08333333333333" y="700.0"/>
      <point x="65.72222222222223" y="696.1111111111111"/>
      <point x="65.72222222222223" y="687.3333333333334" type="curve" smooth="yes"/>
      <point x="65.72222222222223" y="679.0277777777778"/>
      <point x="72.55555555555556" y="672.7222222222222"/>
      <point x="86.33333333333333" y="667.8333333333334" type="curve" smooth="yes"/>
      <point x="123.27777777777777" y="656.0833333333334" type="line" smooth="yes"/>
      <point x="137.52777777777777" y="651.1944444444445"/>
      <point x="145.72222222222223" y="640.25"/>
      <point x="144.72222222222223" y="623.4166666666666" type="curve" smooth="yes"/>
      <point x="109.77777777777777" y="90.83333333333333" type="line" smooth="yes"/>
      <point x="108.30555555555556" y="68.58333333333333"/>
      <point x="94.36111111111111" y="58.22222222222222"/>
      <point x="74.05555555555556" y="49.33333333333333" type="curve" smooth="yes"/>
      <point x="40.75" y="35.0" type="line" smooth="yes"/>
      <point x="22.02777777777778" y="26.63888888888889"/>
      <point x="16.72222222222222" y="22.86111111111111"/>
      <point x="16.72222222222222" y="13.61111111111111" type="curve" smooth="yes"/>
      <point x="16.72222222222222" y="3.4166666666666665"/>
      <point x="25.5" y="0.0"/>
      <point x="37.166666666666664" y="0.0" type="curve" smooth="yes"/>
      <point x="220.55555555555554" y="0.0" type="line" smooth="yes"/>
      <point x="235.22222222222223" y="0.0"/>
      <point x="245.0" y="5.361111111111111"/>
      <point x="245.0" y="14.61111111111111" type="curve" smooth="yes"/>
      <point x="245.0" y="25.333333333333332"/>
      <point x="238.52777777777777" y="28.694444444444443"/>
      <point x="227.27777777777777" y="33.111111111111114" type="curve" smooth="yes"/>
      <point x="180.77777777777777" y="51.33333333333333" type="line" smooth="yes"/>
      <point x="156.47222222222223" y="60.75"/>
      <point x="145.58333333333334" y="73.05555555555556"/>
      <point x="147.05555555555554" y="90.83333333333333" type="curve" smooth="yes"/>
      <point x="182.0" y="605.1944444444445" type="line"/>
      <point x="168.72222222222223" y="598.1944444444445" type="line"/>
      <point x="392.94444444444446" y="98.19444444444444" type="line" smooth="yes"/>
      <point x="399.25" y="84.58333333333333"/>
      <point x="406.6111111111111" y="77.27777777777777"/>
      <point x="416.3333333333333" y="77.27777777777777" type="curve" smooth="yes"/>
      <point x="426.5833333333333" y="77.27777777777777"/>
      <point x="435.30555555555554" y="85.52777777777777"/>
      <point x="443.0833333333333" y="102.5" type="curve" smooth="yes"/>
      <point x="665.4722222222222" y="618.5555555555555" type="line"/>
      <point x="643.7222222222222" y="617.5555555555555" type="line"/>
      <point x="684.7222222222222" y="73.0" type="line" smooth="yes"/>
      <point x="686.1944444444445" y="51.22222222222222"/>
      <point x="677.3055555555555" y="39.861111111111114"/>
      <point x="661.4166666666666" y="36.388888888888886" type="curve" smooth="yes"/>
      <point x="623.2222222222222" y="27.22222222222222" type="line" smooth="yes"/>
      <point x="611.0277777777778" y="24.27777777777778"/>
      <point x="604.7222222222222" y="21.38888888888889"/>
      <point x="604.7222222222222" y="12.666666666666666" type="curve" smooth="yes"/>
      <point x="604.7222222222222" y="4.416666666666666"/>
      <point x="610.5555555555555" y="0.0"/>
      <point x="624.6388888888889" y="0.0" type="curve" smooth="yes"/>
      <point x="837.1388888888889" y="0.0" type="line" smooth="yes"/>
      <point x="851.2222222222222" y="0.0"/>
      <point x="856.5277777777778" y="3.888888888888889"/>
      <point x="856.5277777777778" y="11.61111111111111" type="curve" smooth="yes"/>
      <point x="856.5277777777778" y="20.333333333333332"/>
      <point x="850.2777777777778" y="22.805555555555557"/>
      <point x="838.5555555555555" y="26.694444444444443" type="curve" smooth="yes"/>
      <point x="807.25" y="36.916666666666664" type="line" smooth="yes"/>
      <point x="786.4166666666666" y="44.33333333333333"/>
      <point x="778.0" y="51.75"/>
      <point x="776.5277777777778" y="73.0" type="curve" smooth="yes"/>
      <point x="734.5277777777778" y="628.1111111111111" type="line" smooth="yes"/>
      <point x="733.0555555555555" y="647.7777777777778"/>
      <point x="741.9444444444445" y="659.6111111111111"/>
      <point x="756.25" y="662.5555555555555" type="curve" smooth="yes"/>
      <point x="798.5555555555555" y="671.1944444444445" type="line" smooth="yes"/>
      <point x="810.2222222222222" y="673.6111111111111"/>
      <point x="816.5277777777778" y="678.0833333333334"/>
      <point x="816.5277777777778" y="688.3888888888889" type="curve" smooth="yes"/>
      <point x="816.5277777777778" y="696.1111111111111"/>
      <point x="811.2222222222222" y="700.0"/>
      <point x="797.1388888888889" y="700.0" type="curve" smooth="yes"/>
      <point x="797.1388888888889" y="700.0"/>
      <point x="698.8992731048805" y="700.0"/>
      <point x="681.5277777777778" y="700.0" type="curve" smooth="yes"/>
      <point x="664.8611111111111" y="700.0"/>
      <point x="655.0833333333334" y="691.2777777777778"/>
      <point x="647.7222222222222" y="674.5555555555555" type="curve" smooth="yes"/>
      <point x="436.72222222222223" y="184.0" type="line"/>
    </contour>
  </outline>
</glyph>
<glyph name="P" format="2">
  <advance width="612.1666666666666"/>
  <unicode hex="0050"/>
  <outline>
    <contour>
      <point x="584.1388888888889" y="446.0" type="curve" smooth="yes"/>
      <point x="584.1388888888889" y="597.7786738351255"/>
      <point x="464.30555555555554" y="700.0"/>
      <point x="284.52777777777777" y="700.0" type="curve" smooth="yes"/>
      <point x="52.0" y="700.0" type="line" smooth="yes"/>
      <point x="37.78853046594982" y="700.0"/>
      <point x="29.97222222222222" y="695.4629629629629"/>
      <point x="29.97222222222222" y="687.3333333333334" type="curve" smooth="yes"/>
      <point x="29.97222222222222" y="679.5555555555555"/>
      <point x="35.80555555555556" y="674.1944444444445"/>
      <point x="49.0" y="672.25" type="curve" smooth="yes"/>
      <point x="89.83333333333333" y="664.1388888888889" type="line" smooth="yes"/>
      <point x="109.47041922457053" y="660.2680045854316"/>
      <point x="119.97222222222223" y="645.4932098765432"/>
      <point x="119.97222222222223" y="626.0" type="curve" smooth="yes"/>
      <point x="119.97222222222223" y="71.41666666666667" type="line" smooth="yes"/>
      <point x="119.97222222222223" y="53.111111111111114"/>
      <point x="109.61111111111111" y="39.27777777777778"/>
      <point x="89.30555555555556" y="35.33333333333333" type="curve" smooth="yes"/>
      <point x="50.05555555555556" y="27.75" type="line" smooth="yes"/>
      <point x="36.01303882052275" y="24.98356013774005"/>
      <point x="29.97222222222222" y="20.444444444444443"/>
      <point x="29.97222222222222" y="12.666666666666666" type="curve" smooth="yes"/>
      <point x="29.97222222222222" y="4.783333333333333"/>
      <point x="37.27777777777778" y="0.0"/>
      <point x="50.41666666666667" y="0.0" type="curve" smooth="yes"/>
      <point x="279.27777777777777" y="0.0" type="line" smooth="yes"/>
      <point x="292.4551971326165" y="0.0"/>
      <point x="300.77777777777777" y="4.277777777777778"/>
      <point x="300.77777777777777" y="11.61111111111111" type="curve" smooth="yes"/>
      <point x="300.77777777777777" y="20.031400966183575"/>
      <point x="294.0041884257205" y="25.082571801384155"/>
      <point x="281.22222222222223" y="27.75" type="curve" smooth="yes"/>
      <point x="240.38888888888889" y="35.861111111111114" type="line" smooth="yes"/>
      <point x="221.13888888888889" y="39.80555555555556"/>
      <point x="210.77777777777777" y="53.111111111111114"/>
      <point x="210.77777777777777" y="70.36111111111111" type="curve" smooth="yes"/>
      <point x="210.77777777777777" y="664.4722222222222" type="line"/>
      <point x="279.52777777777777" y="664.4722222222222" type="line" smooth="yes"/>
      <point x="401.3946119486321" y="664.4722222222222"/>
      <point x="488.3888888888889" y="580.5555555555555"/>
      <point x="488.3888888888889" y="464.0" type="curve" smooth="yes"/>
      <point x="488.3888888888889" y="345.6666666666667"/>
      <point x="415.9166666666667" y="267.44444444444446"/>
      <point x="307.97222222222223" y="267.44444444444446" type="curve" smooth="yes"/>
      <point x="235.77777777777777" y="267.44444444444446"/>
      <point x="190.97222222222223" y="280.97222222222223"/>
      <point x="150.97222222222223" y="306.1388888888889" type="curve"/>
      <point x="140.97222222222223" y="273.80555555555554" type="line"/>
      <point x="182.5" y="247.11111111111111"/>
      <point x="228.30555555555554" y="232.11111111111111"/>
      <point x="310.97222222222223" y="232.11111111111111" type="curve" smooth="yes"/>
      <point x="473.47222222222223" y="232.11111111111111"/>
      <point x="584.1388888888889" y="317.84241452991455"/>
    </contour>
  </outline>
</glyph>
<glyph name="S" format="2">
  <advance width="552.1111111111111"/>
  <unicode hex="0053"/>
  <outline>
    <contour>
      <point x="293.55555555555554" y="-12.36111111111111" type="curve" smooth="yes"/>
      <point x="423.80555555555554" y="-12.36111111111111"/>
      <point x="500.6388888888889" y="71.52777777777777"/>
      <point x="500.6388888888889" y="177.88888888888889" type="curve" smooth="yes"/>
      <point x="500.6388888888889" y="265.4166666666667"/>
      <point x="448.9166666666667" y="325.30555555555554"/>
      <point x="310.75" y="374.8333333333333" type="curve" smooth="yes"/>
      <point x="171.05555555555554" y="425.4166666666667"/>
      <point x="127.16666666666667" y="468.8888888888889"/>
      <point x="127.16666666666667" y="545.1111111111111" type="curve" smooth="yes"/>
      <point x="127.16666666666667" y="620.0833333333334"/>
      <point x="183.33333333333334" y="674.3611111111111"/>
      <point x="260.6111111111111" y="674.3611111111111" type="curve" smooth="yes"/>
      <point x="339.5" y="674.3611111111111"/>
      <point x="396.94444444444446" y="631.4722222222222"/>
      <point x="466.0833333333333" y="518.8611111111111" type="curve" smooth="yes"/>
      <point x="476.2871516794688" y="504.21770981928074"/>
      <point x="483.3453282828283" y="498.0"/>
      <point x="494.19444444444446" y="498.0" type="curve" smooth="yes"/>
      <point x="504.06038647342996" y="498.0"/>
      <point x="508.80555555555554" y="504.7061965811966"/>
      <point x="508.80555555555554" y="513.6111111111111" type="curve" smooth="yes"/>
      <point x="508.80555555555554" y="523.4747474747475"/>
      <point x="506.71989449064284" y="531.8956134467849"/>
      <point x="504.44444444444446" y="539.0555555555555" type="curve" smooth="yes"/>
      <point x="456.27777777777777" y="693.3333333333334" type="line" smooth="yes"/>
      <point x="452.3888888888889" y="705.0"/>
      <point x="445.55555555555554" y="710.3611111111111"/>
      <point x="438.25" y="710.3611111111111" type="curve" smooth="yes"/>
      <point x="423.12466124661245" y="710.3611111111111"/>
      <point x="403.63482384823845" y="684.3055555555555"/>
      <point x="388.5" y="684.3055555555555" type="curve" smooth="yes"/>
      <point x="367.65255009107466" y="684.3055555555555"/>
      <point x="327.1388888888889" y="710.8888888888889"/>
      <point x="265.9166666666667" y="710.8888888888889" type="curve" smooth="yes"/>
      <point x="140.25" y="710.8888888888889"/>
      <point x="49.0" y="620.4722222222222"/>
      <point x="49.0" y="508.1111111111111" type="curve" smooth="yes"/>
      <point x="49.0" y="410.69444444444446"/>
      <point x="106.72222222222223" y="348.75"/>
      <point x="243.94444444444446" y="303.75" type="curve" smooth="yes"/>
      <point x="384.0" y="258.27777777777777"/>
      <point x="424.05555555555554" y="218.05555555555554"/>
      <point x="424.05555555555554" y="144.0" type="curve" smooth="yes"/>
      <point x="424.05555555555554" y="69.55555555555556"/>
      <point x="375.8333333333333" y="22.75"/>
      <point x="300.02777777777777" y="22.75" type="curve" smooth="yes"/>
      <point x="215.0" y="22.75"/>
      <point x="158.55555555555554" y="64.36111111111111"/>
      <point x="105.41666666666667" y="183.69444444444446" type="curve" smooth="yes"/>
      <point x="95.33333333333333" y="201.66666666666666"/>
      <point x="88.97222222222223" y="207.5"/>
      <point x="80.72222222222223" y="207.5" type="curve" smooth="yes"/>
      <point x="72.0" y="207.5"/>
      <point x="66.22222222222223" y="198.72222222222223"/>
      <point x="68.63888888888889" y="183.58333333333334" type="curve" smooth="yes"/>
      <point x="96.22222222222223" y="5.138888888888888" type="line" smooth="yes"/>
      <point x="97.69444444444444" y="-4.583333333333334"/>
      <point x="102.83630952380953" y="-12.36111111111111"/>
      <point x="112.83333333333333" y="-12.36111111111111" type="curve" smooth="yes"/>
      <point x="127.76543209876544" y="-12.36111111111111"/>
      <point x="146.9777777777778" y="22.333333333333336"/>
      <point x="160.41666666666666" y="22.333333333333336" type="curve" smooth="yes"/>
      <point x="178.97222222222223" y="22.333333333333336"/>
      <point x="217.29718417047184" y="-12.36111111111111"/>
    </contour>
  </outline>
</glyph>
<glyph name="Y" format="2">
  <advance width="625.3611111111111"/>
  <unicode hex="0059"/>
  <anchor x="331.8611111111111" y="710.0" name="center"/>
  <outline>
    <contour>
      <point x="265.05555555555554" y="239.66666666666666" type="line"/>
      <point x="265.05555555555554" y="73.0" type="line" smooth="yes"/>
      <point x="265.05555555555554" y="51.75"/>
      <point x="255.16666666666666" y="41.916666666666664"/>
      <point x="234.33333333333334" y="37.44444444444444" type="curve" smooth="yes"/>
      <point x="196.13888888888889" y="29.333333333333332" type="line" smooth="yes"/>
      <point x="182.88888888888889" y="26.38888888888889"/>
      <point x="176.05555555555554" y="23.5"/>
      <point x="176.05555555555554" y="13.722222222222221" type="curve" smooth="yes"/>
      <point x="176.05555555555554" y="4.416666666666666"/>
      <point x="182.94444444444446" y="0.0"/>
      <point x="198.13888888888889" y="0.0" type="curve" smooth="yes"/>
      <point x="420.6111111111111" y="0.0" type="line" smooth="yes"/>
      <point x="436.8611111111111" y="0.0"/>
      <point x="443.75" y="4.416666666666666"/>
      <point x="443.75" y="13.722222222222221" type="curve" smooth="yes"/>
      <point x="443.75" y="23.5"/>
      <point x="436.3888888888889" y="26.38888888888889"/>
      <point x="422.6111111111111" y="29.333333333333332" type="curve" smooth="yes"/>
      <point x="385.47222222222223" y="37.44444444444444" type="line" smooth="yes"/>
      <point x="364.6388888888889" y="41.916666666666664"/>
      <point x="354.75" y="51.75"/>
      <point x="354.75" y="73.0" type="curve" smooth="yes"/>
      <point x="354.75" y="239.66666666666666" type="line"/>
    </contour>
    <contour>
      <point x="339.1666666666667" y="194.44444444444446" type="line"/>
      <point x="523.5277777777778" y="580.25" type="line" smooth="yes"/>
      <point x="550.175493373279" y="635.6028154253238"/>
      <point x="570.1331352040897" y="654.6698897046635"/>
      <point x="603.1666666666666" y="662.2222222222222" type="curve" smooth="yes"/>
      <point x="617.3611111111111" y="666.0555555555555"/>
      <point x="623.25" y="674.3055555555555"/>
      <point x="623.25" y="683.0277777777778" type="curve" smooth="yes"/>
      <point x="623.25" y="694.1666666666666"/>
      <point x="616.4166666666666" y="700.0"/>
      <point x="600.8055555555555" y="700.0" type="curve" smooth="yes"/>
      <point x="432.3333333333333" y="700.0" type="line" smooth="yes"/>
      <point x="419.0833333333333" y="700.0"/>
      <point x="410.72222222222223" y="693.6388888888889"/>
      <point x="410.72222222222223" y="684.8611111111111" type="curve" smooth="yes"/>
      <point x="410.72222222222223" y="676.6111111111111"/>
      <point x="418.5" y="669.7777777777778"/>
      <point x="433.5833333333333" y="665.4722222222222" type="curve" smooth="yes"/>
      <point x="474.97222222222223" y="655.6388888888889"/>
      <point x="487.25" y="642.1666666666666"/>
      <point x="487.72222222222223" y="621.8888888888889" type="curve" smooth="yes"/>
      <point x="487.72222222222223" y="608.25"/>
      <point x="483.19444444444446" y="594.25"/>
      <point x="475.72222222222223" y="578.25" type="curve" smooth="yes"/>
      <point x="320.72222222222223" y="242.44444444444446" type="line"/>
      <point x="338.3888888888889" y="257.69444444444446" type="line"/>
      <point x="168.52777777777777" y="611.8055555555555" type="line" smooth="yes"/>
      <point x="157.75" y="633.9444444444445"/>
      <point x="165.94444444444446" y="653.5555555555555"/>
      <point x="184.27777777777777" y="657.4444444444445" type="curve" smooth="yes"/>
      <point x="224.27777777777777" y="668.25" type="line" smooth="yes"/>
      <point x="236.11111111111111" y="671.1944444444445"/>
      <point x="243.0" y="675.0833333333334"/>
      <point x="243.0" y="684.8611111111111" type="curve" smooth="yes"/>
      <point x="243.0" y="694.6388888888889"/>
      <point x="235.63888888888889" y="700.0"/>
      <point x="224.33333333333334" y="700.0" type="curve" smooth="yes"/>
      <point x="25.72222222222222" y="700.0" type="line" smooth="yes"/>
      <point x="11.472222222222221" y="700.0"/>
      <point x="2.638888888888889" y="695.6388888888889"/>
      <point x="2.638888888888889" y="686.8611111111111" type="curve" smooth="yes"/>
      <point x="2.638888888888889" y="679.0833333333334"/>
      <point x="6.055555555555555" y="673.25"/>
      <point x="19.72222222222222" y="668.4166666666666" type="curve" smooth="yes"/>
      <point x="44.666666666666664" y="660.4722222222222"/>
      <point x="54.05555555555556" y="647.5277777777778"/>
      <point x="70.36111111111111" y="615.8055555555555" type="curve" smooth="yes"/>
      <point x="282.6388888888889" y="194.44444444444446" type="line"/>
    </contour>
  </outline>
</glyph>
<glyph name="Z" format="2">
  <advance width="568.8888888888889"/>
  <unicode hex="005A"/>
  <outline>
    <contour>
      <point x="530.9166666666666" y="658.9444444444445" type="line" smooth="yes"/>
      <point x="537.75" y="669.6666666666666"/>
      <point x="541.6388888888889" y="676.0277777777778"/>
      <point x="541.6388888888889" y="683.3333333333334" type="curve" smooth="yes"/>
      <point x="541.6388888888889" y="692.6944444444445"/>
      <point x="533.8055555555555" y="699.0555555555555"/>
      <point x="517.25" y="699.0555555555555" type="curve" smooth="yes"/>
      <point x="135.19444444444446" y="699.0555555555555" type="line" smooth="yes"/>
      <point x="117.52777777777777" y="699.0555555555555"/>
      <point x="101.537728026534" y="717.8333333333334"/>
      <point x="85.08333333333333" y="717.8333333333334" type="curve" smooth="yes"/>
      <point x="75.62222222222222" y="717.8333333333334"/>
      <point x="71.66063964243946" y="709.8960562630938"/>
      <point x="68.05555555555556" y="694.5555555555555" type="curve" smooth="yes"/>
      <point x="43.0" y="573.7222222222222" type="line" smooth="yes"/>
      <point x="41.0" y="565.1944444444445"/>
      <point x="39.0" y="558.834595959596"/>
      <point x="39.0" y="551.6666666666666" type="curve" smooth="yes"/>
      <point x="39.0" y="542.4417989417989"/>
      <point x="45.041666666666664" y="537.0555555555555"/>
      <point x="51.083333333333336" y="537.0555555555555" type="curve" smooth="yes"/>
      <point x="62.69444444444444" y="537.0555555555555"/>
      <point x="69.52777777777777" y="542.7777777777778"/>
      <point x="76.25" y="553.4444444444445" type="curve" smooth="yes"/>
      <point x="104.77777777777777" y="604.4722222222222" type="line" smooth="yes"/>
      <point x="128.52777777777777" y="648.3055555555555"/>
      <point x="147.08333333333334" y="663.8888888888889"/>
      <point x="198.55555555555554" y="663.8888888888889" type="curve" smooth="yes"/>
      <point x="450.0" y="663.8888888888889" type="line"/>
      <point x="441.1111111111111" y="676.1388888888889" type="line"/>
      <point x="35.611111111111114" y="43.111111111111114" type="line" smooth="yes"/>
      <point x="26.77777777777778" y="29.38888888888889"/>
      <point x="24.305555555555557" y="24.14957264957265"/>
      <point x="24.305555555555557" y="15.722222222222221" type="curve" smooth="yes"/>
      <point x="24.305555555555557" y="6.438657407407407"/>
      <point x="31.61111111111111" y="-1.4166666666666665"/>
      <point x="49.166666666666664" y="-1.4166666666666665" type="curve" smooth="yes"/>
      <point x="411.3333333333333" y="-1.4166666666666665" type="line" smooth="yes"/>
      <point x="447.94444444444446" y="-1.4166666666666665"/>
      <point x="467.9166666666667" y="-21.666666666666664"/>
      <point x="485.8333333333333" y="-21.666666666666664" type="curve" smooth="yes"/>
      <point x="496.6666666666667" y="-21.666666666666664"/>
      <point x="501.6666666666667" y="-14.833333333333332"/>
      <point x="505.55555555555554" y="3.1944444444444446" type="curve" smooth="yes"/>
      <point x="538.4722222222222" y="155.52777777777777" type="line" smooth="yes"/>
      <point x="540.4722222222222" y="164.47222222222223"/>
      <point x="541.4166666666666" y="167.88888888888889"/>
      <point x="541.4166666666666" y="173.36111111111111" type="curve" smooth="yes"/>
      <point x="541.4166666666666" y="183.02777777777777"/>
      <point x="535.1666666666666" y="188.86111111111111"/>
      <point x="527.3888888888889" y="188.86111111111111" type="curve" smooth="yes"/>
      <point x="517.6666666666666" y="188.86111111111111"/>
      <point x="510.8333333333333" y="182.02777777777777"/>
      <point x="504.05555555555554" y="169.36111111111111" type="curve" smooth="yes"/>
      <point x="472.27777777777777" y="109.77777777777777" type="line" smooth="yes"/>
      <point x="442.77777777777777" y="50.916666666666664"/>
      <point x="412.55555555555554" y="33.75"/>
      <point x="350.1111111111111" y="33.75" type="curve" smooth="yes"/>
      <point x="116.33333333333333" y="33.75" type="line"/>
      <point x="123.0" y="21.555555555555557" type="line"/>
    </contour>
  </outline>
</glyph>
<glyph name="bracketleft" format="2">
  <advance width="328.47222222222223"/>
  <unicode hex="005B"/>
  <outline>
    <contour>
      <point x="183.27777777777777" y="706.6388888888889" type="line" smooth="yes"/>
      <point x="183.27777777777777" y="718.25"/>
      <point x="191.94444444444446" y="727.4444444444445"/>
      <point x="203.08333333333334" y="727.4444444444445" type="curve" smooth="yes"/>
      <point x="298.9166666666667" y="727.4444444444445" type="line" smooth="yes"/>
      <point x="310.1111111111111" y="727.4444444444445"/>
      <point x="316.1111111111111" y="731.3888888888889"/>
      <point x="316.1111111111111" y="740.75" type="curve" smooth="yes"/>
      <point x="316.1111111111111" y="749.1666666666666"/>
      <point x="310.1111111111111" y="755.4722222222222"/>
      <point x="299.8611111111111" y="755.4722222222222" type="curve" smooth="yes"/>
      <point x="141.52777777777777" y="755.4722222222222" type="line" smooth="yes"/>
      <point x="125.91666666666667" y="755.4722222222222"/>
      <point x="114.72222222222223" y="740.3333333333334"/>
      <point x="114.72222222222223" y="722.3055555555555" type="curve" smooth="yes"/>
      <point x="114.72222222222223" y="-147.0" type="line" smooth="yes"/>
      <point x="114.72222222222223" y="-163.44444444444446"/>
      <point x="125.91666666666667" y="-177.0"/>
      <point x="141.0" y="-177.0" type="curve" smooth="yes"/>
      <point x="300.3888888888889" y="-177.0" type="line" smooth="yes"/>
      <point x="311.1666666666667" y="-177.0"/>
      <point x="316.1111111111111" y="-170.16666666666666"/>
      <point x="316.1111111111111" y="-162.27777777777777" type="curve" smooth="yes"/>
      <point x="316.1111111111111" y="-153.44444444444446"/>
      <point x="310.6388888888889" y="-148.97222222222223"/>
      <point x="298.9166666666667" y="-148.97222222222223" type="curve" smooth="yes"/>
      <point x="203.61111111111111" y="-148.97222222222223" type="line" smooth="yes"/>
      <point x="192.47222222222223" y="-148.97222222222223"/>
      <point x="183.27777777777777" y="-139.77777777777777"/>
      <point x="183.27777777777777" y="-128.16666666666666" type="curve" smooth="yes"/>
    </contour>
  </outline>
</glyph>
<glyph name="backslash" format="2">
  <advance width="416.8333333333333"/>
  <unicode hex="005C"/>
  <outline>
    <contour>
      <point x="49.361111111111114" y="708.8611111111111" type="curve" smooth="yes"/>
      <point x="37.05555555555556" y="742.5277777777778"/>
      <point x="50.0" y="759.4722222222222"/>
      <point x="66.47222222222223" y="765.0" type="curve" smooth="yes"/>
      <point x="86.25" y="770.9444444444445"/>
      <point x="103.83333333333333" y="758.75"/>
      <point x="111.88888888888889" y="734.1111111111111" type="curve" smooth="yes"/>
      <point x="128.36111111111111" y="681.8055555555555"/>
      <point x="162.61111111111111" y="519.5833333333334"/>
      <point x="222.19444444444446" y="337.72222222222223" type="curve" smooth="yes"/>
      <point x="280.30555555555554" y="157.75"/>
      <point x="350.05555555555554" y="4.277777777777777"/>
      <point x="367.47222222222223" y="-47.5" type="curve" smooth="yes"/>
      <point x="378.0619570897546" y="-79.26920460259718"/>
      <point x="370.1388888888889" y="-95.69444444444444"/>
      <point x="350.8333333333333" y="-102.16666666666667" type="curve" smooth="yes"/>
      <point x="331.05555555555554" y="-108.11111111111111"/>
      <point x="311.1111111111111" y="-96.86111111111111"/>
      <point x="302.5833333333333" y="-69.91666666666667" type="curve" smooth="yes"/>
      <point x="286.1666666666667" y="-13.833333333333334"/>
      <point x="257.05555555555554" y="137.11111111111111"/>
      <point x="193.69444444444446" y="327.94444444444446" type="curve" smooth="yes"/>
      <point x="133.22222222222223" y="515.4722222222222"/>
      <point x="67.72222222222223" y="658.9722222222222"/>
    </contour>
  </outline>
</glyph>
<glyph name="asciicircum" format="2">
  <advance width="430.0"/>
  <unicode hex="005E"/>
  <outline>
    <contour>
      <point x="67.0" y="495.0" type="curve" smooth="yes"/>
      <point x="144.0" y="652.0" type="line" smooth="yes"/>
      <point x="167.7886192303033" y="700.5040677812677"/>
      <point x="187.0" y="715.0"/>
      <point x="216.0" y="715.0" type="curve" smooth="yes"/>
      <point x="242.0" y="715.0"/>
      <point x="263.2569612474308" y="700.3608097648527"/>
      <point x="286.0" y="654.0" type="curve" smooth="yes"/>
      <point x="364.0" y="495.0" type="line" smooth="yes"/>
      <point x="368.1959727395432" y="486.446670954008"/>
      <point x="374.0" y="474.0"/>
      <point x="374.0" y="462.0" type="curve" smooth="yes"/>
      <point x="374.0" y="449.0"/>
      <point x="367.0" y="442.0"/>
      <point x="352.0" y="442.0" type="curve" smooth="yes"/>
      <point x="343.53846153846155" y="442.0"/>
      <point x="332.1753967447325" y="445.8964014194515"/>
      <point x="319.0" y="464.0" type="curve" smooth="yes"/>
      <point x="188.0" y="644.0" type="line"/>
      <point x="243.0" y="644.0" type="line"/>
      <point x="112.0" y="464.0" type="line" smooth="yes"/>
      <point x="98.82460325526749" y="445.89640141945154"/>
      <point x="87.46153846153845" y="442.0"/>
      <point x="79.0" y="442.0" type="curve" smooth="yes"/>
      <point x="64.0" y="442.0"/>
      <point x="56.0" y="449.0"/>
      <point x="56.0" y="462.0" type="curve" smooth="yes"/>
      <point x="56.0" y="474.0"/>
      <point x="62.37190016668707" y="485.56348475545286"/>
    </contour>
  </outline>
</glyph>
<glyph name="grave" format="2">
  <advance width="265.44444444444446"/>
  <unicode hex="0060"/>
  <anchor x="210.05555555555554" y="486.0833333333333" name="center"/>
  <outline>
    <contour>
      <point x="212.47222222222223" y="543.2777777777778" type="curve" smooth="yes"/>
      <point x="130.63888888888889" y="647.6666666666666" type="line" smooth="yes"/>
      <point x="111.072898466938" y="671.9896048421036"/>
      <point x="95.5758547008547" y="683.3333333333334"/>
      <point x="72.0" y="683.3333333333334" type="curve" smooth="yes"/>
      <point x="52.22222222222222" y="683.3333333333334"/>
      <point x="41.33333333333333" y="670.9166666666666"/>
      <point x="41.33333333333333" y="654.5555555555555" type="curve" smooth="yes"/>
      <point x="41.33333333333333" y="637.235153256705"/>
      <point x="52.76391729573678" y="623.2797227382694"/>
      <point x="74.47222222222223" y="607.4722222222222" type="curve" smooth="yes"/>
      <point x="183.36111111111111" y="525.6666666666666" type="line" smooth="yes"/>
      <point x="193.55555555555554" y="518.8333333333334"/>
      <point x="202.75" y="515.0"/>
      <point x="209.05555555555554" y="515.0" type="curve" smooth="yes"/>
      <point x="216.30555555555554" y="515.0"/>
      <point x="220.72222222222223" y="518.4166666666666"/>
      <point x="220.72222222222223" y="525.7222222222222" type="curve" smooth="yes"/>
      <point x="220.72222222222223" y="531.5555555555555"/>
      <point x="216.36111111111111" y="538.3888888888889"/>
    </contour>
  </outline>
</glyph>
<glyph name="d" format="2">
  <advance width="523.75"/>
  <unicode hex="0064"/>
  <outline>
    <contour>
      <point x="452.05555555555554" y="695.9722222222222" type="line" smooth="yes"/>
      <point x="452.05555555555554" y="707.6944444444445"/>
      <point x="445.75" y="714.5277777777778"/>
      <point x="435.5" y="714.5277777777778" type="curve" smooth="yes"/>
      <point x="428.19444444444446" y="714.5277777777778"/>
      <point x="420.8888888888889" y="710.6388888888889"/>
      <point x="408.1666666666667" y="705.75" type="curve" smooth="yes"/>
      <point x="306.27777777777777" y="664.9444444444445" type="line" smooth="yes"/>
      <point x="296.5" y="661.0555555555555"/>
      <point x="290.6666666666667" y="653.75"/>
      <point x="290.6666666666667" y="647.4444444444445" type="curve" smooth="yes"/>
      <point x="290.6666666666667" y="642.0833333333334"/>
      <point x="296.0833333333333" y="637.7222222222222"/>
      <point x="305.44444444444446" y="637.7222222222222" type="curve" smooth="yes"/>
      <point x="342.1666666666667" y="637.7222222222222" type="line" smooth="yes"/>
      <point x="359.30555555555554" y="637.7222222222222"/>
      <point x="369.02777777777777" y="629.3055555555555"/>
      <point x="369.02777777777777" y="612.2222222222222" type="curve" smooth="yes"/>
      <point x="369.02777777777777" y="34.80555555555556" type="line" smooth="yes"/>
      <point x="369.02777777777777" y="8.88888888888889"/>
      <point x="379.75" y="0.0"/>
      <point x="404.1388888888889" y="0.0" type="curve" smooth="yes"/>
      <point x="499.22222222222223" y="0.0" type="line" smooth="yes"/>
      <point x="512.7777777777778" y="0.0"/>
      <point x="517.1388888888889" y="4.361111111111111"/>
      <point x="517.1388888888889" y="12.61111111111111" type="curve" smooth="yes"/>
      <point x="517.1388888888889" y="19.333333333333332"/>
      <point x="511.8333333333333" y="23.27777777777778"/>
      <point x="500.1666666666667" y="27.166666666666664" type="curve" smooth="yes"/>
      <point x="475.77777777777777" y="34.27777777777778" type="line" smooth="yes"/>
      <point x="460.4166666666667" y="39.22222222222222"/>
      <point x="452.05555555555554" y="48.52777777777778"/>
      <point x="452.05555555555554" y="70.61111111111111" type="curve" smooth="yes"/>
    </contour>
    <contour>
      <point x="397.8611111111111" y="101.11111111111111" type="line"/>
      <point x="351.55555555555554" y="57.75"/>
      <point x="303.77777777777777" y="42.916666666666664"/>
      <point x="260.0" y="42.916666666666664" type="curve" smooth="yes"/>
      <point x="168.0" y="42.916666666666664"/>
      <point x="109.22222222222223" y="116.25"/>
      <point x="109.22222222222223" y="238.55555555555554" type="curve" smooth="yes"/>
      <point x="109.22222222222223" y="353.1388888888889"/>
      <point x="181.94444444444446" y="426.02777777777777"/>
      <point x="267.6111111111111" y="426.02777777777777" type="curve" smooth="yes"/>
      <point x="329.25" y="426.02777777777777"/>
      <point x="362.19444444444446" y="404.55555555555554"/>
      <point x="393.72222222222223" y="353.97222222222223" type="curve"/>
      <point x="411.6388888888889" y="372.22222222222223" type="line"/>
      <point x="369.80555555555554" y="431.0"/>
      <point x="326.1388888888889" y="458.8888888888889"/>
      <point x="258.47222222222223" y="458.8888888888889" type="curve" smooth="yes"/>
      <point x="130.38888888888889" y="458.8888888888889"/>
      <point x="25.194444444444443" y="352.1666666666667"/>
      <point x="25.194444444444443" y="205.55555555555554" type="curve" smooth="yes"/>
      <point x="25.194444444444443" y="77.36111111111111"/>
      <point x="108.38888888888889" y="-11.88888888888889"/>
      <point x="211.94444444444446" y="-11.88888888888889" type="curve" smooth="yes"/>
      <point x="290.44444444444446" y="-11.88888888888889"/>
      <point x="345.8611111111111" y="18.72222222222222"/>
      <point x="411.05555555555554" y="87.86111111111111" type="curve"/>
    </contour>
  </outline>
</glyph>
<glyph name="e" format="2">
  <advance width="440.25"/>
  <unicode hex="0065"/>
  <anchor x="244.33333333333334" y="506.94444444444446" name="center"/>
  <outline>
    <contour>
      <point x="413.69444444444446" y="291.5833333333333" type="curve" smooth="yes"/>
      <point x="413.69444444444446" y="389.4166666666667"/>
      <point x="347.55555555555554" y="458.4166666666667"/>
      <point x="250.25" y="458.4166666666667" type="curve" smooth="yes"/>
      <point x="114.27777777777777" y="458.4166666666667"/>
      <point x="25.194444444444443" y="352.3888888888889"/>
      <point x="25.194444444444443" y="209.55555555555554" type="curve" smooth="yes"/>
      <point x="25.194444444444443" y="75.65002394636015"/>
      <point x="108.19017094017094" y="-12.36111111111111"/>
      <point x="233.41666666666666" y="-12.36111111111111" type="curve" smooth="yes"/>
      <point x="330.7999424294761" y="-12.36111111111111"/>
      <point x="406.94444444444446" y="52.72222222222222"/>
      <point x="411.69444444444446" y="118.11111111111111" type="curve" smooth="yes"/>
      <point x="412.22222222222223" y="125.0"/>
      <point x="408.6296296296296" y="130.36111111111111"/>
      <point x="403.44444444444446" y="130.36111111111111" type="curve" smooth="yes"/>
      <point x="397.4555555555556" y="130.36111111111111"/>
      <point x="392.77777777777777" y="126.0"/>
      <point x="388.47222222222223" y="118.22222222222223" type="curve" smooth="yes"/>
      <point x="368.86386956907086" y="75.65479507326026"/>
      <point x="324.94444444444446" y="49.861111111111114"/>
      <point x="264.19444444444446" y="49.861111111111114" type="curve" smooth="yes"/>
      <point x="173.47222222222223" y="49.861111111111114"/>
      <point x="103.22222222222223" y="122.94857549857551"/>
      <point x="103.22222222222223" y="242.97222222222223" type="curve" smooth="yes"/>
      <point x="103.22222222222223" y="351.1666666666667"/>
      <point x="147.28735632183907" y="424.19444444444446"/>
      <point x="222.25" y="424.19444444444446" type="curve" smooth="yes"/>
      <point x="285.83815192743765" y="424.19444444444446"/>
      <point x="326.8333333333333" y="377.6111111111111"/>
      <point x="326.8333333333333" y="306.6388888888889" type="curve" smooth="yes"/>
      <point x="326.8333333333333" y="288.3333333333333"/>
      <point x="313.47222222222223" y="277.9166666666667"/>
      <point x="295.1666666666667" y="277.9166666666667" type="curve" smooth="yes"/>
      <point x="73.61111111111111" y="277.9166666666667" type="line"/>
      <point x="73.61111111111111" y="252.0" type="line"/>
      <point x="369.27777777777777" y="252.0" type="line" smooth="yes"/>
      <point x="394.6666666666667" y="252.0"/>
      <point x="413.69444444444446" y="265.6666666666667"/>
    </contour>
  </outline>
</glyph>
<glyph name="f" format="2">
  <advance width="307.6666666666667"/>
  <unicode hex="0066"/>
  <outline>
    <contour>
      <point x="188.83333333333334" y="71.97222222222223" type="curve" smooth="yes"/>
      <point x="188.83333333333334" y="415.8333333333333" type="line"/>
      <point x="268.44444444444446" y="415.8333333333333" type="line" smooth="yes"/>
      <point x="283.5833333333333" y="415.8333333333333"/>
      <point x="293.3611111111111" y="424.0833333333333"/>
      <point x="293.3611111111111" y="434.80555555555554" type="curve" smooth="yes"/>
      <point x="293.3611111111111" y="442.5833333333333"/>
      <point x="288.52777777777777" y="446.52777777777777"/>
      <point x="281.1666666666667" y="446.52777777777777" type="curve" smooth="yes"/>
      <point x="189.83333333333334" y="446.52777777777777" type="line"/>
      <point x="189.83333333333334" y="455.8888888888889" type="line" smooth="yes"/>
      <point x="189.83333333333334" y="476.4166666666667"/>
      <point x="183.30555555555554" y="493.30555555555554"/>
      <point x="161.13888888888889" y="522.8333333333334" type="curve" smooth="yes"/>
      <point x="136.63888888888889" y="554.8055555555555"/>
      <point x="126.0" y="580.0833333333334"/>
      <point x="126.0" y="610.0" type="curve" smooth="yes"/>
      <point x="126.0" y="651.9166666666666"/>
      <point x="152.27777777777777" y="681.7222222222222"/>
      <point x="192.19444444444446" y="681.7222222222222" type="curve" smooth="yes"/>
      <point x="213.41666666666666" y="681.7222222222222"/>
      <point x="224.94444444444446" y="670.0"/>
      <point x="224.94444444444446" y="649.9722222222222" type="curve" smooth="yes"/>
      <point x="224.94444444444446" y="632.8611111111111" type="line" smooth="yes"/>
      <point x="224.94444444444446" y="605.0833333333334"/>
      <point x="244.53787878787878" y="586.25"/>
      <point x="270.55555555555554" y="586.25" type="curve" smooth="yes"/>
      <point x="299.4905437352246" y="586.25"/>
      <point x="317.22222222222223" y="605.0471014492754"/>
      <point x="317.22222222222223" y="635.3888888888889" type="curve" smooth="yes"/>
      <point x="317.22222222222223" y="685.0281746031746"/>
      <point x="280.3333333333333" y="715.0"/>
      <point x="219.5" y="715.0" type="curve" smooth="yes"/>
      <point x="133.13888888888889" y="715.0"/>
      <point x="74.41666666666667" y="653.926511954993"/>
      <point x="74.41666666666667" y="574.6388888888889" type="curve" smooth="yes"/>
      <point x="74.41666666666667" y="510.484126984127"/>
      <point x="111.69444444444444" y="477.80555555555554"/>
      <point x="111.69444444444444" y="433.52777777777777" type="curve" smooth="yes"/>
      <point x="111.69444444444444" y="424.80555555555554" type="line"/>
      <point x="124.69444444444444" y="446.52777777777777" type="line"/>
      <point x="41.638888888888886" y="446.52777777777777" type="line" smooth="yes"/>
      <point x="31.86111111111111" y="446.52777777777777"/>
      <point x="26.555555555555557" y="441.6388888888889"/>
      <point x="26.555555555555557" y="434.3888888888889" type="curve" smooth="yes"/>
      <point x="26.555555555555557" y="426.6111111111111"/>
      <point x="33.80555555555556" y="420.8333333333333"/>
      <point x="42.52777777777778" y="418.4166666666667" type="curve" smooth="yes"/>
      <point x="87.13888888888889" y="404.1388888888889" type="line" smooth="yes"/>
      <point x="102.08372967406959" y="399.71450954693756"/>
      <point x="109.80555555555556" y="390.77777777777777"/>
      <point x="109.80555555555556" y="371.05555555555554" type="curve" smooth="yes"/>
      <point x="109.80555555555556" y="67.66666666666666" type="line" smooth="yes"/>
      <point x="109.80555555555556" y="48.99158249158249"/>
      <point x="99.97222222222223" y="39.75"/>
      <point x="87.66666666666667" y="36.80555555555556" type="curve" smooth="yes"/>
      <point x="53.361111111111114" y="28.63888888888889" type="line" smooth="yes"/>
      <point x="41.52151208697302" y="25.876457631042427"/>
      <point x="36.80555555555556" y="21.86111111111111"/>
      <point x="36.80555555555556" y="13.61111111111111" type="curve" smooth="yes"/>
      <point x="36.80555555555556" y="4.690972222222222"/>
      <point x="43.255050505050505" y="0.0"/>
      <point x="53.83333333333333" y="0.0" type="curve" smooth="yes"/>
      <point x="259.9166666666667" y="0.0" type="line" smooth="yes"/>
      <point x="272.0" y="0.0"/>
      <point x="276.8333333333333" y="4.2103174603174605"/>
      <point x="276.8333333333333" y="13.083333333333332" type="curve" smooth="yes"/>
      <point x="276.8333333333333" y="21.03174603174603"/>
      <point x="271.47886882168683" y="24.506671272254017"/>
      <point x="261.75" y="27.11111111111111" type="curve" smooth="yes"/>
      <point x="218.22222222222223" y="37.33333333333333" type="line" smooth="yes"/>
      <point x="200.08333333333334" y="42.22222222222222"/>
      <point x="188.83333333333334" y="54.41666666666667"/>
    </contour>
  </outline>
</glyph>
<glyph name="g" format="2">
  <advance width="468.6666666666667"/>
  <unicode hex="0067"/>
  <outline>
    <contour>
      <point x="321.6388888888889" y="13.333333333333332" type="curve" smooth="yes"/>
      <point x="440.5833333333333" y="-8.666666666666668"/>
      <point x="471.0" y="-51.611111111111114"/>
      <point x="471.0" y="-105.55555555555556" type="curve" smooth="yes"/>
      <point x="471.0" y="-187.27777777777777"/>
      <point x="386.80555555555554" y="-246.05555555555554"/>
      <point x="240.83333333333334" y="-246.05555555555554" type="curve" smooth="yes"/>
      <point x="95.75" y="-246.05555555555554"/>
      <point x="25.97222222222222" y="-195.69444444444446"/>
      <point x="25.97222222222222" y="-128.91666666666666" type="curve" smooth="yes"/>
      <point x="25.97222222222222" y="-72.41666666666667"/>
      <point x="70.75192479869156" y="-22.541193512601097"/>
      <point x="186.16666666666666" y="-9.25" type="curve"/>
      <point x="189.94444444444446" y="-25.75" type="line"/>
      <point x="129.0652124514359" y="-32.40535704419474"/>
      <point x="97.88888888888889" y="-73.02777777777777"/>
      <point x="97.88888888888889" y="-112.08333333333333" type="curve" smooth="yes"/>
      <point x="97.88888888888889" y="-173.94719471947195"/>
      <point x="150.42013888888889" y="-215.66666666666666"/>
      <point x="265.77777777777777" y="-215.66666666666666" type="curve" smooth="yes"/>
      <point x="361.87871077184053" y="-215.66666666666666"/>
      <point x="402.77777777777777" y="-184.9976851851852"/>
      <point x="402.77777777777777" y="-138.19444444444446" type="curve" smooth="yes"/>
      <point x="402.77777777777777" y="-105.55555555555556"/>
      <point x="376.30555555555554" y="-78.91666666666667"/>
      <point x="276.30555555555554" y="-57.388888888888886" type="curve" smooth="yes"/>
      <point x="155.34218610322117" y="-31.65478810372722"/>
      <point x="118.11111111111111" y="3.666666666666666"/>
      <point x="118.11111111111111" y="48.25" type="curve" smooth="yes"/>
      <point x="118.11111111111111" y="81.39814814814815"/>
      <point x="148.49643884815248" y="113.67658234175863"/>
      <point x="204.0" y="126.22222222222223" type="curve"/>
      <point x="209.88888888888889" y="118.27777777777777" type="line"/>
      <point x="193.64309400832053" y="110.97125762499084"/>
      <point x="184.02777777777777" y="98.76543209876543"/>
      <point x="184.02777777777777" y="82.97222222222223" type="curve" smooth="yes"/>
      <point x="184.02777777777777" y="54.85091420534458"/>
      <point x="211.05727483055392" y="33.48311980683007"/>
    </contour>
    <contour>
      <point x="430.1111111111111" y="288.27777777777777" type="curve" smooth="yes"/>
      <point x="430.1111111111111" y="187.02777777777777"/>
      <point x="347.9166666666667" y="108.19444444444444"/>
      <point x="235.83333333333334" y="108.19444444444444" type="curve" smooth="yes"/>
      <point x="110.80555555555556" y="108.19444444444444"/>
      <point x="35.083333333333336" y="185.02777777777777"/>
      <point x="35.083333333333336" y="273.80555555555554" type="curve" smooth="yes"/>
      <point x="35.083333333333336" y="379.5833333333333"/>
      <point x="112.80555555555556" y="458.8888888888889"/>
      <point x="238.83333333333334" y="458.8888888888889" type="curve" smooth="yes"/>
      <point x="363.3333333333333" y="458.8888888888889"/>
      <point x="430.1111111111111" y="376.5833333333333"/>
    </contour>
    <contour>
      <point x="320.0833333333333" y="430.4166666666667" type="line" smooth="yes"/>
      <point x="327.97222222222223" y="446.25" type="line" smooth="yes"/>
      <point x="351.3820645968192" y="494.10647828951204"/>
      <point x="384.623786407767" y="518.0555555555555"/>
      <point x="421.9166666666667" y="518.0555555555555" type="curve" smooth="yes"/>
      <point x="453.53418803418805" y="518.0555555555555"/>
      <point x="480.8611111111111" y="495.52777777777777"/>
      <point x="480.8611111111111" y="462.52777777777777" type="curve" smooth="yes"/>
      <point x="480.8611111111111" y="440.1666666666667"/>
      <point x="463.5" y="422.75"/>
      <point x="446.6111111111111" y="422.75" type="curve" smooth="yes"/>
      <point x="430.0833333333333" y="422.75"/>
      <point x="423.0833333333333" y="429.27777777777777"/>
      <point x="415.5" y="439.02777777777777" type="curve" smooth="yes"/>
      <point x="404.29589448574876" y="451.2572458023551"/>
      <point x="392.8419540229885" y="457.77777777777777"/>
      <point x="379.9166666666667" y="457.77777777777777" type="curve" smooth="yes"/>
      <point x="363.2808641975309" y="457.77777777777777"/>
      <point x="350.67175272124416" y="445.0826626176504"/>
      <point x="335.69444444444446" y="417.80555555555554" type="curve"/>
    </contour>
    <contour>
      <point x="215.88888888888889" y="424.72222222222223" type="curve" smooth="yes"/>
      <point x="159.52777777777777" y="424.72222222222223"/>
      <point x="118.11111111111111" y="377.5"/>
      <point x="118.11111111111111" y="310.22222222222223" type="curve" smooth="yes"/>
      <point x="118.11111111111111" y="220.52777777777777"/>
      <point x="173.0" y="142.36111111111111"/>
      <point x="251.30555555555554" y="142.36111111111111" type="curve" smooth="yes"/>
      <point x="301.19444444444446" y="142.36111111111111"/>
      <point x="345.0833333333333" y="181.52777777777777"/>
      <point x="345.0833333333333" y="251.86111111111111" type="curve" smooth="yes"/>
      <point x="345.0833333333333" y="352.0833333333333"/>
      <point x="290.72222222222223" y="424.72222222222223"/>
    </contour>
  </outline>
</glyph>
<glyph name="n" format="2">
  <advance width="543.25"/>
  <unicode hex="006E"/>
  <outline>
    <contour>
      <point x="173.44444444444446" y="438.9166666666667" type="line" smooth="yes"/>
      <point x="173.44444444444446" y="450.5833333333333"/>
      <point x="167.61111111111111" y="458.8888888888889"/>
      <point x="156.83333333333334" y="458.8888888888889" type="curve" smooth="yes"/>
      <point x="149.05555555555554" y="458.8888888888889"/>
      <point x="139.69444444444446" y="455.47222222222223"/>
      <point x="128.55555555555554" y="450.1666666666667" type="curve" smooth="yes"/>
      <point x="37.47222222222222" y="407.94444444444446" type="line" smooth="yes"/>
      <point x="28.733301034965518" y="403.7406791027197"/>
      <point x="23.97222222222222" y="398.1028806584362"/>
      <point x="23.97222222222222" y="392.5" type="curve" smooth="yes"/>
      <point x="23.97222222222222" y="384.84814814814814"/>
      <point x="28.805555555555557" y="382.30555555555554"/>
      <point x="36.52777777777778" y="382.30555555555554" type="curve" smooth="yes"/>
      <point x="75.33333333333333" y="382.30555555555554" type="line" smooth="yes"/>
      <point x="87.52777777777777" y="382.30555555555554"/>
      <point x="94.41666666666667" y="374.47222222222223"/>
      <point x="94.41666666666667" y="361.27777777777777" type="curve" smooth="yes"/>
      <point x="94.41666666666667" y="60.72222222222222" type="line" smooth="yes"/>
      <point x="94.41666666666667" y="44.58333333333333"/>
      <point x="88.11111111111111" y="38.22222222222222"/>
      <point x="75.33333333333333" y="34.80555555555556" type="curve" smooth="yes"/>
      <point x="41.361111111111114" y="26.22222222222222" type="line" smooth="yes"/>
      <point x="32.166666666666664" y="23.805555555555557"/>
      <point x="27.333333333333332" y="20.86111111111111"/>
      <point x="27.333333333333332" y="13.555555555555555" type="curve" smooth="yes"/>
      <point x="27.333333333333332" y="4.833333333333333"/>
      <point x="34.166666666666664" y="0.0"/>
      <point x="44.361111111111114" y="0.0" type="curve" smooth="yes"/>
      <point x="222.19444444444446" y="0.0" type="line" smooth="yes"/>
      <point x="233.75" y="0.0"/>
      <point x="239.52777777777777" y="4.361111111111111"/>
      <point x="239.52777777777777" y="13.083333333333332" type="curve" smooth="yes"/>
      <point x="239.52777777777777" y="20.333333333333332"/>
      <point x="233.75" y="22.805555555555557"/>
      <point x="223.13888888888889" y="26.166666666666664" type="curve" smooth="yes"/>
      <point x="192.63888888888889" y="34.75" type="line" smooth="yes"/>
      <point x="180.80555555555554" y="38.166666666666664"/>
      <point x="173.44444444444446" y="47.52777777777778"/>
      <point x="173.44444444444446" y="60.72222222222222" type="curve" smooth="yes"/>
    </contour>
    <contour>
      <point x="156.97222222222223" y="338.6666666666667" type="line" smooth="yes"/>
      <point x="178.22222222222223" y="358.97222222222223" type="line" smooth="yes"/>
      <point x="211.16666666666666" y="390.5"/>
      <point x="241.0" y="407.0833333333333"/>
      <point x="277.4166666666667" y="407.0833333333333" type="curve" smooth="yes"/>
      <point x="325.8888888888889" y="407.0833333333333"/>
      <point x="358.25" y="377.44444444444446"/>
      <point x="366.77777777777777" y="313.5" type="curve" smooth="yes"/>
      <point x="401.05555555555554" y="67.36111111111111" type="line" smooth="yes"/>
      <point x="403.52777777777777" y="48.58333333333333"/>
      <point x="395.5833333333333" y="38.22222222222222"/>
      <point x="378.69444444444446" y="34.75" type="curve" smooth="yes"/>
      <point x="348.9166666666667" y="27.805555555555557" type="line" smooth="yes"/>
      <point x="340.02777777777777" y="25.333333333333332"/>
      <point x="333.6111111111111" y="20.916666666666664"/>
      <point x="333.6111111111111" y="13.61111111111111" type="curve" smooth="yes"/>
      <point x="333.6111111111111" y="5.361111111111111"/>
      <point x="341.9166666666667" y="0.0"/>
      <point x="352.5833333333333" y="0.0" type="curve" smooth="yes"/>
      <point x="522.9166666666666" y="0.0" type="line" smooth="yes"/>
      <point x="535.1111111111111" y="0.0"/>
      <point x="539.4722222222222" y="5.888888888888889"/>
      <point x="539.4722222222222" y="12.194444444444445" type="curve" smooth="yes"/>
      <point x="539.4722222222222" y="18.5"/>
      <point x="535.5833333333334" y="22.444444444444443"/>
      <point x="529.1666666666666" y="25.38888888888889" type="curve" smooth="yes"/>
      <point x="508.3888888888889" y="34.80555555555556" type="line" smooth="yes"/>
      <point x="496.44444444444446" y="40.27777777777778"/>
      <point x="487.55555555555554" y="51.22222222222222"/>
      <point x="485.55555555555554" y="65.16666666666667" type="curve" smooth="yes"/>
      <point x="443.75" y="330.1666666666667" type="line" smooth="yes"/>
      <point x="430.1666666666667" y="415.47222222222223"/>
      <point x="383.02777777777777" y="458.8888888888889"/>
      <point x="320.77777777777777" y="458.8888888888889" type="curve" smooth="yes"/>
      <point x="265.05555555555554" y="458.8888888888889"/>
      <point x="221.86111111111111" y="432.8333333333333"/>
      <point x="171.55555555555554" y="384.4166666666667" type="curve" smooth="yes"/>
      <point x="143.30555555555554" y="357.1111111111111" type="line"/>
    </contour>
  </outline>
</glyph>
<glyph name="o" format="2">
  <advance width="524.3333333333334"/>
  <unicode hex="006F"/>
  <outline>
    <contour>
      <point x="271.1388888888889" y="458.4166666666667" type="curve" smooth="yes"/>
      <point x="124.22965879265092" y="458.4166666666667"/>
      <point x="26.13888888888889" y="354.1111111111111"/>
      <point x="26.13888888888889" y="224.33333333333334" type="curve" smooth="yes"/>
      <point x="26.13888888888889" y="86.77777777777777"/>
      <point x="121.6496062992126" y="-12.36111111111111"/>
      <point x="251.66666666666666" y="-12.36111111111111" type="curve" smooth="yes"/>
      <point x="390.40625" y="-12.36111111111111"/>
      <point x="498.6666666666667" y="84.30555555555556"/>
      <point x="498.6666666666667" y="224.33333333333334" type="curve" smooth="yes"/>
      <point x="498.6666666666667" y="360.5833333333333"/>
      <point x="402.6126302083333" y="458.4166666666667"/>
    </contour>
    <contour>
      <point x="410.69444444444446" y="180.63888888888889" type="curve" smooth="yes"/>
      <point x="410.69444444444446" y="85.33333333333333"/>
      <point x="362.52726413910193" y="26.97222222222222"/>
      <point x="287.8888888888889" y="26.97222222222222" type="curve" smooth="yes"/>
      <point x="188.21601771463648" y="26.97222222222222"/>
      <point x="113.11111111111111" y="128.5"/>
      <point x="113.11111111111111" y="257.55555555555554" type="curve" smooth="yes"/>
      <point x="113.11111111111111" y="355.55555555555554"/>
      <point x="164.37157375145182" y="421.0833333333333"/>
      <point x="237.91666666666666" y="421.0833333333333" type="curve" smooth="yes"/>
      <point x="339.30829839273235" y="421.0833333333333"/>
      <point x="410.69444444444446" y="315.3888888888889"/>
    </contour>
  </outline>
</glyph>
<glyph name="p" format="2">
  <advance width="535.6944444444445"/>
  <unicode hex="0070"/>
  <outline>
    <contour>
      <point x="155.61111111111111" y="439.27777777777777" type="line" smooth="yes"/>
      <point x="155.61111111111111" y="451.52777777777777"/>
      <point x="149.25" y="458.8888888888889"/>
      <point x="138.94444444444446" y="458.8888888888889" type="curve" smooth="yes"/>
      <point x="129.63888888888889" y="458.8888888888889"/>
      <point x="120.86111111111111" y="455.0"/>
      <point x="108.08333333333333" y="449.1111111111111" type="curve" smooth="yes"/>
      <point x="22.055555555555554" y="409.8888888888889" type="line" smooth="yes"/>
      <point x="13.277777777777777" y="406.0"/>
      <point x="7.5" y="399.27777777777777"/>
      <point x="7.5" y="392.9166666666667" type="curve" smooth="yes"/>
      <point x="7.5" y="388.0833333333333"/>
      <point x="11.38888888888889" y="383.72222222222223"/>
      <point x="18.63888888888889" y="383.72222222222223" type="curve" smooth="yes"/>
      <point x="49.72222222222222" y="383.72222222222223" type="line" smooth="yes"/>
      <point x="66.33333333333333" y="383.72222222222223"/>
      <point x="76.05555555555556" y="376.8888888888889"/>
      <point x="76.05555555555556" y="359.27777777777777" type="curve" smooth="yes"/>
      <point x="76.05555555555556" y="-170.63888888888889" type="line" smooth="yes"/>
      <point x="76.05555555555556" y="-184.83333333333334"/>
      <point x="69.63888888888889" y="-199.91666666666666"/>
      <point x="54.27777777777778" y="-203.44444444444446" type="curve" smooth="yes"/>
      <point x="28.055555555555554" y="-210.08333333333334" type="line" smooth="yes"/>
      <point x="17.65302957856762" y="-212.49575779309637"/>
      <point x="10.972222222222221" y="-215.2685185185185"/>
      <point x="10.5" y="-224.69444444444446" type="curve" smooth="yes"/>
      <point x="10.027777777777777" y="-234.24074074074073"/>
      <point x="15.333333333333332" y="-239.72222222222223"/>
      <point x="29.88888888888889" y="-239.72222222222223" type="curve" smooth="yes"/>
      <point x="223.36111111111111" y="-239.72222222222223" type="line" smooth="yes"/>
      <point x="234.55555555555554" y="-239.72222222222223"/>
      <point x="239.91666666666666" y="-233.8125"/>
      <point x="239.91666666666666" y="-225.69444444444446" type="curve" smooth="yes"/>
      <point x="239.91666666666666" y="-217.81111111111113"/>
      <point x="234.67261300470585" y="-214.68959301339143"/>
      <point x="224.36111111111111" y="-212.55555555555554" type="curve" smooth="yes"/>
      <point x="185.47222222222223" y="-204.33333333333334" type="line" smooth="yes"/>
      <point x="166.38888888888889" y="-200.38888888888889"/>
      <point x="155.61111111111111" y="-190.13888888888889"/>
      <point x="155.61111111111111" y="-168.63888888888889" type="curve" smooth="yes"/>
    </contour>
    <contour>
      <point x="133.08333333333334" y="337.97222222222223" type="line"/>
      <point x="186.41666666666666" y="387.25"/>
      <point x="226.88888888888889" y="405.3611111111111"/>
      <point x="271.94444444444446" y="405.3611111111111" type="curve" smooth="yes"/>
      <point x="360.80555555555554" y="405.3611111111111"/>
      <point x="426.0" y="333.0"/>
      <point x="426.0" y="209.08333333333334" type="curve" smooth="yes"/>
      <point x="426.0" y="93.91666666666667"/>
      <point x="362.6388888888889" y="22.333333333333332"/>
      <point x="278.3333333333333" y="22.333333333333332" type="curve" smooth="yes"/>
      <point x="216.97222222222223" y="22.333333333333332"/>
      <point x="171.55555555555554" y="43.22222222222222"/>
      <point x="142.66666666666666" y="89.05555555555556" type="curve"/>
      <point x="119.27777777777777" y="70.66666666666667" type="line"/>
      <point x="160.58333333333334" y="12.944444444444445"/>
      <point x="209.25" y="-12.416666666666666"/>
      <point x="279.3333333333333" y="-12.416666666666666" type="curve" smooth="yes"/>
      <point x="406.3611111111111" y="-12.416666666666666"/>
      <point x="510.5" y="94.83333333333333"/>
      <point x="510.5" y="242.5" type="curve" smooth="yes"/>
      <point x="510.5" y="372.27777777777777"/>
      <point x="429.8333333333333" y="458.8888888888889"/>
      <point x="328.22222222222223" y="458.8888888888889" type="curve" smooth="yes"/>
      <point x="249.30555555555554" y="458.8888888888889"/>
      <point x="194.0" y="428.22222222222223"/>
      <point x="120.41666666666667" y="349.6388888888889" type="curve"/>
    </contour>
  </outline>
</glyph>
<glyph name="s" format="2">
  <advance width="405.8888888888889"/>
  <unicode hex="0073"/>
  <outline>
    <contour>
      <point x="211.77777777777777" y="17.805555555555557" type="curve" smooth="yes"/>
      <point x="164.88888888888889" y="17.805555555555557"/>
      <point x="121.77777777777777" y="45.02777777777778"/>
      <point x="76.38888888888889" y="114.52777777777777" type="curve" smooth="yes"/>
      <point x="68.19444444444444" y="127.08333333333333"/>
      <point x="62.41666666666667" y="131.38888888888889"/>
      <point x="55.166666666666664" y="131.38888888888889" type="curve" smooth="yes"/>
      <point x="48.44444444444444" y="131.38888888888889"/>
      <point x="44.02777777777778" y="127.02777777777777"/>
      <point x="44.02777777777778" y="119.25" type="curve" smooth="yes"/>
      <point x="44.02777777777778" y="111.88888888888889"/>
      <point x="45.97222222222222" y="104.58333333333333"/>
      <point x="49.388888888888886" y="94.80555555555556" type="curve" smooth="yes"/>
      <point x="78.33333333333333" y="-0.11111111111111116" type="line" smooth="yes"/>
      <point x="81.27777777777777" y="-9.416666666666666"/>
      <point x="85.16666666666667" y="-12.36111111111111"/>
      <point x="90.58333333333333" y="-12.36111111111111" type="curve" smooth="yes"/>
      <point x="99.94444444444444" y="-12.36111111111111"/>
      <point x="106.30555555555556" y="4.583333333333334"/>
      <point x="120.88888888888889" y="4.583333333333334" type="curve" smooth="yes"/>
      <point x="135.36111111111111" y="4.583333333333334"/>
      <point x="167.83333333333334" y="-12.36111111111111"/>
      <point x="209.77777777777777" y="-12.36111111111111" type="curve" smooth="yes"/>
      <point x="302.9166666666667" y="-12.36111111111111"/>
      <point x="360.69444444444446" y="46.47222222222222"/>
      <point x="360.69444444444446" y="120.72222222222223" type="curve" smooth="yes"/>
      <point x="360.69444444444446" y="182.02777777777777"/>
      <point x="322.22222222222223" y="232.69444444444446"/>
      <point x="225.02777777777777" y="258.80555555555554" type="curve" smooth="yes"/>
      <point x="132.78375345442313" y="283.8228851649406"/>
      <point x="104.0" y="313.5"/>
      <point x="104.0" y="359.44444444444446" type="curve" smooth="yes"/>
      <point x="104.0" y="397.8703703703704"/>
      <point x="135.47222222222223" y="429.1388888888889"/>
      <point x="188.94444444444446" y="429.1388888888889" type="curve" smooth="yes"/>
      <point x="239.33333333333334" y="429.1388888888889"/>
      <point x="284.82434633755895" y="402.2229739455333"/>
      <point x="334.97222222222223" y="320.19444444444446" type="curve" smooth="yes"/>
      <point x="341.75" y="309.94444444444446"/>
      <point x="349.0" y="304.1666666666667"/>
      <point x="357.6666666666667" y="304.1666666666667" type="curve" smooth="yes"/>
      <point x="365.8611111111111" y="304.1666666666667"/>
      <point x="370.27777777777777" y="309.0"/>
      <point x="370.27777777777777" y="316.77777777777777" type="curve" smooth="yes"/>
      <point x="370.27777777777777" y="321.3263888888889"/>
      <point x="368.0220485039613" y="328.69806679327036"/>
      <point x="365.44444444444446" y="335.9166666666667" type="curve" smooth="yes"/>
      <point x="329.8333333333333" y="445.69444444444446" type="line" smooth="yes"/>
      <point x="326.47222222222223" y="454.47222222222223"/>
      <point x="322.1111111111111" y="458.8888888888889"/>
      <point x="315.27777777777777" y="458.8888888888889" type="curve" smooth="yes"/>
      <point x="306.3888888888889" y="458.8888888888889"/>
      <point x="301.44444444444446" y="440.3611111111111"/>
      <point x="281.6388888888889" y="440.3611111111111" type="curve" smooth="yes"/>
      <point x="265.1568100358423" y="440.3611111111111"/>
      <point x="235.52777777777777" y="458.4166666666667"/>
      <point x="190.94444444444446" y="458.4166666666667" type="curve" smooth="yes"/>
      <point x="96.33333333333333" y="458.4166666666667"/>
      <point x="34.138888888888886" y="394.1111111111111"/>
      <point x="34.138888888888886" y="321.3333333333333" type="curve" smooth="yes"/>
      <point x="34.138888888888886" y="254.02777777777777"/>
      <point x="75.52665503299963" y="213.80414712018788"/>
      <point x="169.63888888888889" y="188.83333333333334" type="curve" smooth="yes"/>
      <point x="259.8888888888889" y="164.19444444444446"/>
      <point x="289.8333333333333" y="133.13888888888889"/>
      <point x="289.8333333333333" y="87.5" type="curve" smooth="yes"/>
      <point x="289.8333333333333" y="47.388888888888886"/>
      <point x="260.30555555555554" y="17.805555555555557"/>
    </contour>
  </outline>
</glyph>
<glyph name="t" format="2">
  <advance width="300.44444444444446"/>
  <unicode hex="0074"/>
  <outline>
    <contour>
      <point x="53.638888888888886" y="404.19444444444446" type="line" smooth="yes"/>
      <point x="68.72445407857852" y="398.88514178597075"/>
      <point x="75.19444444444444" y="388.37698412698415"/>
      <point x="75.19444444444444" y="371.22222222222223" type="curve" smooth="yes"/>
      <point x="75.19444444444444" y="92.77777777777777" type="line" smooth="yes"/>
      <point x="75.19444444444444" y="26.36111111111111"/>
      <point x="113.86111111111111" y="-10.0"/>
      <point x="178.63888888888889" y="-10.0" type="curve" smooth="yes"/>
      <point x="232.63888888888889" y="-10.0"/>
      <point x="272.55555555555554" y="17.25"/>
      <point x="285.30555555555554" y="61.27777777777778" type="curve" smooth="yes"/>
      <point x="287.25" y="69.05555555555556"/>
      <point x="284.0777777777778" y="74.41666666666667"/>
      <point x="278.52777777777777" y="74.41666666666667" type="curve" smooth="yes"/>
      <point x="273.99666666666667" y="74.41666666666667"/>
      <point x="270.1760305900897" y="72.41117390960936"/>
      <point x="265.02777777777777" y="68.05555555555556" type="curve" smooth="yes"/>
      <point x="252.3267753373777" y="49.83610556474734"/>
      <point x="237.27777777777777" y="39.58333333333333"/>
      <point x="217.88888888888889" y="39.58333333333333" type="curve" smooth="yes"/>
      <point x="179.52777777777777" y="39.58333333333333"/>
      <point x="154.69444444444446" y="63.76068376068376"/>
      <point x="154.69444444444446" y="113.55555555555556" type="curve" smooth="yes"/>
      <point x="154.69444444444446" y="528.9444444444445" type="line" smooth="yes"/>
      <point x="154.69444444444446" y="539.6666666666666"/>
      <point x="149.38888888888889" y="545.9722222222222"/>
      <point x="141.61111111111111" y="545.9722222222222" type="curve" smooth="yes"/>
      <point x="134.77777777777777" y="545.9722222222222"/>
      <point x="127.0" y="541.0833333333334"/>
      <point x="120.16666666666667" y="529.4166666666666" type="curve" smooth="yes"/>
      <point x="78.88888888888889" y="463.30555555555554" type="line" smooth="yes"/>
      <point x="72.47222222222223" y="453.0"/>
      <point x="63.05555555555556" y="446.52777777777777"/>
      <point x="49.69444444444444" y="446.52777777777777" type="curve" smooth="yes"/>
      <point x="18.916666666666664" y="446.52777777777777" type="line" smooth="yes"/>
      <point x="8.338383838383837" y="446.52777777777777"/>
      <point x="2.361111111111111" y="440.75"/>
      <point x="2.361111111111111" y="432.9166666666667" type="curve" smooth="yes"/>
      <point x="2.361111111111111" y="425.6111111111111"/>
      <point x="7.666666666666666" y="420.30555555555554"/>
      <point x="20.38888888888889" y="415.4166666666667" type="curve" smooth="yes"/>
    </contour>
    <contour>
      <point x="93.13888888888889" y="415.3611111111111" type="line"/>
      <point x="93.13888888888889" y="415.3611111111111"/>
      <point x="228.2825404180826" y="415.3611111111111"/>
      <point x="255.02777777777777" y="415.3611111111111" type="curve" smooth="yes"/>
      <point x="272.0547619047619" y="415.3611111111111"/>
      <point x="283.8333333333333" y="423.6666666666667"/>
      <point x="283.8333333333333" y="434.8611111111111" type="curve" smooth="yes"/>
      <point x="283.8333333333333" y="442.6388888888889"/>
      <point x="279.26464646464643" y="446.52777777777777"/>
      <point x="271.6388888888889" y="446.52777777777777" type="curve" smooth="yes"/>
      <point x="252.59546850301393" y="446.52777777777777"/>
      <point x="99.61111111111111" y="446.52777777777777"/>
      <point x="99.61111111111111" y="446.52777777777777" type="curve"/>
    </contour>
  </outline>
</glyph>
<glyph name="u" format="2">
  <advance width="521.8055555555555"/>
  <unicode hex="0075"/>
  <anchor x="255.30555555555554" y="506.6111111111111" name="center"/>
  <outline>
    <contour>
      <point x="443.77777777777777" y="440.3888888888889" type="line" smooth="yes"/>
      <point x="443.77777777777777" y="452.1111111111111"/>
      <point x="437.94444444444446" y="458.94444444444446"/>
      <point x="428.22222222222223" y="458.94444444444446" type="curve" smooth="yes"/>
      <point x="420.3888888888889" y="458.94444444444446"/>
      <point x="414.0833333333333" y="456.52777777777777"/>
      <point x="400.8888888888889" y="451.5833333333333" type="curve" smooth="yes"/>
      <point x="310.3333333333333" y="415.55555555555554" type="line" smooth="yes"/>
      <point x="301.1388888888889" y="412.1388888888889"/>
      <point x="295.77777777777777" y="405.3611111111111"/>
      <point x="295.77777777777777" y="400.52777777777777" type="curve" smooth="yes"/>
      <point x="295.77777777777777" y="393.84444444444443"/>
      <point x="301.18859649122805" y="389.3888888888889"/>
      <point x="310.3888888888889" y="389.3888888888889" type="curve" smooth="yes"/>
      <point x="339.8888888888889" y="389.3888888888889" type="line" smooth="yes"/>
      <point x="354.55555555555554" y="389.3888888888889"/>
      <point x="363.3333333333333" y="381.55555555555554"/>
      <point x="363.3333333333333" y="363.94444444444446" type="curve" smooth="yes"/>
      <point x="363.3333333333333" y="33.166666666666664" type="line" smooth="yes"/>
      <point x="363.3333333333333" y="8.305555555555555"/>
      <point x="374.5833333333333" y="0.0"/>
      <point x="399.5" y="0.0" type="curve" smooth="yes"/>
      <point x="490.3611111111111" y="0.0" type="line" smooth="yes"/>
      <point x="503.97222222222223" y="0.0"/>
      <point x="508.80555555555554" y="6.305555555555555"/>
      <point x="508.80555555555554" y="15.027777777777777" type="curve" smooth="yes"/>
      <point x="508.80555555555554" y="23.22222222222222"/>
      <point x="501.55555555555554" y="26.11111111111111"/>
      <point x="492.3611111111111" y="28.055555555555554" type="curve" smooth="yes"/>
      <point x="465.3888888888889" y="34.75" type="line" smooth="yes"/>
      <point x="451.1388888888889" y="38.22222222222222"/>
      <point x="443.77777777777777" y="50.361111111111114"/>
      <point x="443.77777777777777" y="73.75" type="curve" smooth="yes"/>
    </contour>
    <contour>
      <point x="148.72222222222223" y="440.3888888888889" type="line" smooth="yes"/>
      <point x="148.72222222222223" y="451.5833333333333"/>
      <point x="143.36111111111111" y="458.4166666666667"/>
      <point x="134.58333333333334" y="458.4166666666667" type="curve" smooth="yes"/>
      <point x="126.22222222222223" y="458.4166666666667"/>
      <point x="119.38888888888889" y="455.47222222222223"/>
      <point x="106.19444444444444" y="451.05555555555554" type="curve" smooth="yes"/>
      <point x="15.583333333333332" y="415.02777777777777" type="line" smooth="yes"/>
      <point x="6.388888888888889" y="411.6111111111111"/>
      <point x="1.083333333333333" y="405.6759259259259"/>
      <point x="1.083333333333333" y="401.0" type="curve" smooth="yes"/>
      <point x="1.083333333333333" y="394.03333333333336"/>
      <point x="5.966374269005849" y="389.3888888888889"/>
      <point x="14.63888888888889" y="389.3888888888889" type="curve" smooth="yes"/>
      <point x="45.72222222222222" y="389.3888888888889" type="line" smooth="yes"/>
      <point x="61.388888888888886" y="389.3888888888889"/>
      <point x="70.16666666666667" y="382.0833333333333"/>
      <point x="70.16666666666667" y="365.0" type="curve" smooth="yes"/>
      <point x="70.16666666666667" y="131.44444444444446" type="line" smooth="yes"/>
      <point x="70.16666666666667" y="45.833333333333336"/>
      <point x="129.94444444444446" y="-7.416666666666666"/>
      <point x="204.61111111111111" y="-7.416666666666666" type="curve" smooth="yes"/>
      <point x="277.27777777777777" y="-7.416666666666666"/>
      <point x="334.47222222222223" y="26.0"/>
      <point x="386.30555555555554" y="93.30555555555556" type="curve"/>
      <point x="377.05555555555554" y="108.33333333333333" type="line"/>
      <point x="333.1111111111111" y="64.38888888888889"/>
      <point x="289.1666666666667" y="45.44444444444444"/>
      <point x="246.69444444444446" y="45.44444444444444" type="curve" smooth="yes"/>
      <point x="193.97222222222223" y="45.44444444444444"/>
      <point x="148.72222222222223" y="79.86111111111111"/>
      <point x="148.72222222222223" y="153.16666666666666" type="curve" smooth="yes"/>
    </contour>
  </outline>
</glyph>
<glyph name="w" format="2">
  <advance width="756.1111111111111"/>
  <unicode hex="0077"/>
  <outline>
    <contour>
      <point x="221.61111111111111" y="-10.0" type="curve" smooth="yes"/>
      <point x="235.91666666666666" y="-10.0" type="line" smooth="yes"/>
      <point x="248.8558201058201" y="-10.0"/>
      <point x="258.29298576116196" y="-2.269780656830095"/>
      <point x="265.6388888888889" y="16.13888888888889" type="curve" smooth="yes"/>
      <point x="392.8333333333333" y="333.3333333333333" type="line"/>
      <point x="370.69444444444446" y="370.22222222222223" type="line"/>
      <point x="244.02777777777777" y="49.58333333333333" type="line" smooth="yes"/>
      <point x="260.3888888888889" y="46.638888888888886" type="line"/>
      <point x="146.16666666666666" y="357.77777777777777" type="line" smooth="yes"/>
      <point x="141.69444444444446" y="369.72222222222223"/>
      <point x="138.27777777777777" y="377.98333333333335"/>
      <point x="138.27777777777777" y="390.19444444444446" type="curve" smooth="yes"/>
      <point x="138.27777777777777" y="402.6049382716049"/>
      <point x="145.94825471258358" y="408.27326181681997"/>
      <point x="164.16666666666666" y="412.72222222222223" type="curve" smooth="yes"/>
      <point x="191.38888888888889" y="419.25" type="line" smooth="yes"/>
      <point x="201.75" y="421.72222222222223"/>
      <point x="207.63888888888889" y="426.4236111111111"/>
      <point x="207.63888888888889" y="435.3333333333333" type="curve" smooth="yes"/>
      <point x="207.63888888888889" y="443.1111111111111"/>
      <point x="201.09674329501917" y="446.52777777777777"/>
      <point x="189.61111111111111" y="446.52777777777777" type="curve" smooth="yes"/>
      <point x="23.75" y="446.52777777777777" type="line" smooth="yes"/>
      <point x="8.396825396825395" y="446.52777777777777"/>
      <point x="2.888888888888889" y="440.6358024691358"/>
      <point x="2.888888888888889" y="431.97222222222223" type="curve" smooth="yes"/>
      <point x="2.888888888888889" y="424.72222222222223"/>
      <point x="11.156743297163683" y="419.06264367662914"/>
      <point x="22.444444444444443" y="413.1111111111111" type="curve" smooth="yes"/>
      <point x="35.13026628737331" y="408.47828895210444"/>
      <point x="46.138888888888886" y="396.05555555555554"/>
      <point x="53.19444444444444" y="376.4166666666667" type="curve" smooth="yes"/>
      <point x="187.88888888888889" y="19.72222222222222" type="line" smooth="yes"/>
      <point x="195.04473204111517" y="0.0487666560280533"/>
      <point x="205.72222222222223" y="-10.0"/>
    </contour>
    <contour>
      <point x="539.0833333333334" y="-10.0" type="line" smooth="yes"/>
      <point x="550.9555555555555" y="-10.0"/>
      <point x="560.9348756291731" y="-4.915902571351012"/>
      <point x="568.2777777777778" y="15.25" type="curve" smooth="yes"/>
      <point x="692.3888888888889" y="346.47222222222223" type="line" smooth="yes"/>
      <point x="704.4444444444445" y="379.1666666666667"/>
      <point x="720.6666666666666" y="399.5"/>
      <point x="739.1944444444445" y="410.75" type="curve" smooth="yes"/>
      <point x="747.8222463474955" y="417.26960993083827"/>
      <point x="753.75" y="423.01234567901236"/>
      <point x="753.75" y="432.44444444444446" type="curve" smooth="yes"/>
      <point x="753.75" y="441.0462962962963"/>
      <point x="747.2100122100122" y="446.52777777777777"/>
      <point x="732.7777777777778" y="446.52777777777777" type="curve" smooth="yes"/>
      <point x="600.8888888888889" y="446.52777777777777" type="line" smooth="yes"/>
      <point x="591.1111111111111" y="446.52777777777777"/>
      <point x="585.75" y="442.6388888888889"/>
      <point x="585.75" y="434.9166666666667" type="curve" smooth="yes"/>
      <point x="585.75" y="428.1388888888889"/>
      <point x="590.4275517334856" y="423.0462679770906"/>
      <point x="598.4166666666666" y="419.8888888888889" type="curve" smooth="yes"/>
      <point x="631.5277777777778" y="407.8888888888889" type="line" smooth="yes"/>
      <point x="649.8888888888889" y="400.94444444444446"/>
      <point x="656.0555555555555" y="388.77777777777777"/>
      <point x="656.0555555555555" y="373.02777777777777" type="curve" smooth="yes"/>
      <point x="656.0555555555555" y="356.1388888888889"/>
      <point x="652.6388888888889" y="345.1388888888889"/>
      <point x="645.2777777777778" y="324.52777777777777" type="curve" smooth="yes"/>
      <point x="549.3055555555555" y="52.22222222222222" type="line" smooth="yes"/>
      <point x="561.1944444444445" y="48.22222222222222" type="line"/>
      <point x="440.72222222222223" y="360.94444444444446" type="line" smooth="yes"/>
      <point x="436.77777777777777" y="370.30555555555554"/>
      <point x="435.30555555555554" y="378.25"/>
      <point x="435.30555555555554" y="388.19444444444446" type="curve" smooth="yes"/>
      <point x="435.30555555555554" y="401.25"/>
      <point x="440.8333333333333" y="406.30555555555554"/>
      <point x="455.8333333333333" y="411.72222222222223" type="curve" smooth="yes"/>
      <point x="479.05555555555554" y="419.72222222222223" type="line" smooth="yes"/>
      <point x="488.94444444444446" y="423.6111111111111"/>
      <point x="494.30555555555554" y="427.02777777777777"/>
      <point x="494.30555555555554" y="434.80555555555554" type="curve" smooth="yes"/>
      <point x="494.30555555555554" y="443.1111111111111"/>
      <point x="488.0" y="446.52777777777777"/>
      <point x="476.27777777777777" y="446.52777777777777" type="curve" smooth="yes"/>
      <point x="301.5" y="446.52777777777777" type="line" smooth="yes"/>
      <point x="292.6666666666667" y="446.52777777777777"/>
      <point x="288.25" y="441.6388888888889"/>
      <point x="288.25" y="434.27777777777777" type="curve" smooth="yes"/>
      <point x="288.25" y="427.97222222222223"/>
      <point x="294.6111111111111" y="424.1388888888889"/>
      <point x="308.8611111111111" y="417.30555555555554" type="curve" smooth="yes"/>
      <point x="326.46117217230585" y="409.80553374798603"/>
      <point x="342.32612615563494" y="393.774742522809"/>
      <point x="348.80555555555554" y="377.47222222222223" type="curve" smooth="yes"/>
      <point x="492.5833333333333" y="17.194444444444443" type="line" smooth="yes"/>
      <point x="500.0879554767851" y="-1.419362772701132"/>
      <point x="511.54273504273505" y="-10.0"/>
      <point x="524.25" y="-10.0" type="curve" smooth="yes"/>
    </contour>
  </outline>
</glyph>
<glyph name="x" format="2">
  <advance width="471.8333333333333"/>
  <unicode hex="0078"/>
  <outline>
    <contour>
      <point x="216.97222222222223" y="218.27777777777777" type="line"/>
      <point x="120.91666666666667" y="96.88888888888889" type="line" smooth="yes"/>
      <point x="91.7916796642338" y="60.451907185793054"/>
      <point x="66.79530829426703" y="43.00438262912232"/>
      <point x="28.47222222222222" y="31.416666666666668" type="curve" smooth="yes"/>
      <point x="13.027777777777777" y="26.583333333333332"/>
      <point x="3.4166666666666665" y="23.694444444444443"/>
      <point x="3.4166666666666665" y="12.083333333333332" type="curve" smooth="yes"/>
      <point x="3.4166666666666665" y="4.833333333333333"/>
      <point x="7.25" y="0.0"/>
      <point x="19.805555555555557" y="0.0" type="curve" smooth="yes"/>
      <point x="172.13888888888889" y="0.0" type="line" smooth="yes"/>
      <point x="182.27777777777777" y="0.0"/>
      <point x="189.05555555555554" y="4.361111111111111"/>
      <point x="189.05555555555554" y="12.555555555555555" type="curve" smooth="yes"/>
      <point x="189.05555555555554" y="17.86111111111111"/>
      <point x="186.58333333333334" y="20.27777777777778"/>
      <point x="179.11111111111111" y="23.27777777777778" type="curve" smooth="yes"/>
      <point x="163.33333333333334" y="30.63888888888889" type="line" smooth="yes"/>
      <point x="147.27777777777777" y="37.638888888888886"/>
      <point x="139.69444444444446" y="46.33333333333333"/>
      <point x="139.69444444444446" y="59.5" type="curve" smooth="yes"/>
      <point x="139.69444444444446" y="69.44444444444444"/>
      <point x="144.94444444444446" y="78.27777777777777"/>
      <point x="157.88888888888889" y="95.27777777777777" type="curve" smooth="yes"/>
      <point x="238.94444444444446" y="201.08333333333334" type="line"/>
    </contour>
    <contour>
      <point x="173.94444444444446" y="362.72222222222223" type="line" smooth="yes"/>
      <point x="165.0" y="374.19444444444446"/>
      <point x="161.47222222222223" y="381.19444444444446"/>
      <point x="161.47222222222223" y="389.6666666666667" type="curve" smooth="yes"/>
      <point x="161.47222222222223" y="401.1388888888889"/>
      <point x="168.47222222222223" y="407.1388888888889"/>
      <point x="174.94444444444446" y="411.1388888888889" type="curve" smooth="yes"/>
      <point x="186.52777777777777" y="418.72222222222223" type="line" smooth="yes"/>
      <point x="195.88888888888889" y="424.6666666666667"/>
      <point x="202.72222222222223" y="426.10897435897436"/>
      <point x="202.72222222222223" y="434.80555555555554" type="curve" smooth="yes"/>
      <point x="202.72222222222223" y="443.1111111111111"/>
      <point x="195.41666666666666" y="446.52777777777777"/>
      <point x="185.16666666666666" y="446.52777777777777" type="curve" smooth="yes"/>
      <point x="22.333333333333332" y="446.52777777777777" type="line" smooth="yes"/>
      <point x="9.25" y="446.52777777777777"/>
      <point x="4.361111111111111" y="441.69444444444446"/>
      <point x="4.361111111111111" y="433.3888888888889" type="curve" smooth="yes"/>
      <point x="4.361111111111111" y="424.6111111111111"/>
      <point x="9.25" y="419.25"/>
      <point x="18.555555555555557" y="416.77777777777777" type="curve" smooth="yes"/>
      <point x="36.72222222222222" y="410.72222222222223"/>
      <point x="51.77777777777778" y="399.25"/>
      <point x="74.72222222222223" y="370.72222222222223" type="curve" smooth="yes"/>
      <point x="311.6666666666667" y="68.94444444444444" type="line" smooth="yes"/>
      <point x="316.6111111111111" y="62.05555555555556"/>
      <point x="320.97222222222223" y="56.638888888888886"/>
      <point x="320.97222222222223" y="49.75" type="curve" smooth="yes"/>
      <point x="320.97222222222223" y="43.75"/>
      <point x="318.2293999013895" y="38.65070967908014"/>
      <point x="310.97222222222223" y="35.80555555555556" type="curve" smooth="yes"/>
      <point x="280.19444444444446" y="26.694444444444443" type="line" smooth="yes"/>
      <point x="271.47222222222223" y="23.333333333333332"/>
      <point x="266.1666666666667" y="19.916666666666664"/>
      <point x="266.1666666666667" y="11.666666666666666" type="curve" smooth="yes"/>
      <point x="266.1666666666667" y="3.888888888888889"/>
      <point x="272.94444444444446" y="0.0"/>
      <point x="283.1388888888889" y="0.0" type="curve" smooth="yes"/>
      <point x="453.3333333333333" y="0.0" type="line" smooth="yes"/>
      <point x="466.47222222222223" y="0.0"/>
      <point x="471.8333333333333" y="5.833333333333333"/>
      <point x="471.8333333333333" y="14.13888888888889" type="curve" smooth="yes"/>
      <point x="471.8333333333333" y="19.444444444444443"/>
      <point x="467.0" y="25.75"/>
      <point x="454.44444444444446" y="30.11111111111111" type="curve" smooth="yes"/>
      <point x="440.69257440105935" y="33.54907862195738"/>
      <point x="426.1388888888889" y="42.69444444444444"/>
      <point x="403.6111111111111" y="70.80555555555556" type="curve" smooth="yes"/>
    </contour>
    <contour>
      <point x="254.61111111111111" y="208.08333333333334" type="line"/>
      <point x="388.8611111111111" y="369.19444444444446" type="line" smooth="yes"/>
      <point x="413.03412878193353" y="398.51565548982614"/>
      <point x="428.9166666666667" y="410.72222222222223"/>
      <point x="448.3888888888889" y="419.72222222222223" type="curve" smooth="yes"/>
      <point x="460.1111111111111" y="426.0833333333333"/>
      <point x="467.8888888888889" y="427.5"/>
      <point x="467.8888888888889" y="434.80555555555554" type="curve" smooth="yes"/>
      <point x="467.8888888888889" y="441.6388888888889"/>
      <point x="462.52777777777777" y="446.52777777777777"/>
      <point x="449.3888888888889" y="446.52777777777777" type="curve" smooth="yes"/>
      <point x="314.3611111111111" y="446.52777777777777" type="line" smooth="yes"/>
      <point x="303.41898148148147" y="446.52777777777777"/>
      <point x="296.27777777777777" y="443.1111111111111"/>
      <point x="296.27777777777777" y="435.80555555555554" type="curve" smooth="yes"/>
      <point x="296.27777777777777" y="429.9166666666667"/>
      <point x="300.69444444444446" y="426.02777777777777"/>
      <point x="308.05555555555554" y="422.6111111111111" type="curve" smooth="yes"/>
      <point x="328.30555555555554" y="412.25" type="line" smooth="yes"/>
      <point x="340.98639877285666" y="405.90957839134944"/>
      <point x="346.0" y="396.19444444444446"/>
      <point x="346.0" y="384.6666666666667" type="curve" smooth="yes"/>
      <point x="346.0" y="368.1388888888889"/>
      <point x="337.30752720636264" y="354.4807565268505"/>
      <point x="326.05555555555554" y="340.55555555555554" type="curve" smooth="yes"/>
      <point x="239.22222222222223" y="231.97222222222223" type="line"/>
    </contour>
  </outline>
</glyph>
<glyph name="y" format="2">
  <advance width="479.3611111111111"/>
  <unicode hex="0079"/>
  <anchor x="255.52777777777777" y="489.94444444444446" name="center"/>
  <outline>
    <contour>
      <point x="275.0" y="51.083333333333336" type="line"/>
      <point x="143.69444444444446" y="362.25" type="line" smooth="yes"/>
      <point x="139.69444444444446" y="372.30555555555554"/>
      <point x="137.69444444444446" y="380.30555555555554"/>
      <point x="137.69444444444446" y="390.19444444444446" type="curve" smooth="yes"/>
      <point x="137.69444444444446" y="400.6111111111111"/>
      <point x="145.16666666666666" y="407.6111111111111"/>
      <point x="157.88888888888889" y="410.6111111111111" type="curve" smooth="yes"/>
      <point x="189.69444444444446" y="419.30555555555554" type="line" smooth="yes"/>
      <point x="199.94444444444446" y="421.77777777777777"/>
      <point x="205.25" y="427.0833333333333"/>
      <point x="205.25" y="434.80555555555554" type="curve" smooth="yes"/>
      <point x="205.25" y="443.1111111111111"/>
      <point x="197.41666666666666" y="446.52777777777777"/>
      <point x="184.16666666666666" y="446.52777777777777" type="curve" smooth="yes"/>
      <point x="17.75" y="446.52777777777777" type="line" smooth="yes"/>
      <point x="4.138888888888888" y="446.52777777777777"/>
      <point x="-3.166666666666667" y="440.1666666666667"/>
      <point x="-3.166666666666667" y="431.44444444444446" type="curve" smooth="yes"/>
      <point x="-3.166666666666667" y="423.19444444444446"/>
      <point x="2.1388888888888884" y="416.8888888888889"/>
      <point x="11.38888888888889" y="413.05555555555554" type="curve" smooth="yes"/>
      <point x="32.05711927963619" y="405.88155351342425"/>
      <point x="42.23251741214649" y="393.93293613990085"/>
      <point x="52.611111111111114" y="369.25" type="curve" smooth="yes"/>
      <point x="231.63888888888889" y="-46.25" type="line"/>
    </contour>
    <contour>
      <point x="183.27777777777777" y="-135.16666666666666" type="line" smooth="yes"/>
      <point x="166.05555555555554" y="-178.77777777777777"/>
      <point x="152.58333333333334" y="-188.72222222222223"/>
      <point x="132.58333333333334" y="-188.72222222222223" type="curve" smooth="yes"/>
      <point x="118.11111111111111" y="-188.72222222222223"/>
      <point x="110.16666666666667" y="-178.66666666666666"/>
      <point x="100.22222222222223" y="-162.19444444444446" type="curve" smooth="yes"/>
      <point x="90.27777777777777" y="-145.72222222222223" type="line" smooth="yes"/>
      <point x="76.18362347007437" y="-122.39742937889764"/>
      <point x="63.692080378250594" y="-114.19444444444444"/>
      <point x="44.55555555555556" y="-114.19444444444444" type="curve" smooth="yes"/>
      <point x="17.83933933933934" y="-114.19444444444444"/>
      <point x="-0.8055555555555554" y="-133.28968253968253"/>
      <point x="-0.8055555555555554" y="-164.08333333333334" type="curve" smooth="yes"/>
      <point x="-0.8055555555555554" y="-210.52380952380952"/>
      <point x="34.027777777777786" y="-245.0"/>
      <point x="90.47222222222223" y="-245.0" type="curve" smooth="yes"/>
      <point x="144.6280487804878" y="-245.0"/>
      <point x="186.41915632218257" y="-217.90355763292985"/>
      <point x="218.38888888888889" y="-138.63888888888889" type="curve" smooth="yes"/>
      <point x="411.22222222222223" y="339.75" type="line" smooth="yes"/>
      <point x="430.34266023180237" y="387.11591339872354"/>
      <point x="444.3333333333333" y="401.80555555555554"/>
      <point x="464.3888888888889" y="410.22222222222223" type="curve" smooth="yes"/>
      <point x="474.1111111111111" y="415.05555555555554"/>
      <point x="480.94444444444446" y="421.27991452991455"/>
      <point x="480.94444444444446" y="431.02777777777777" type="curve" smooth="yes"/>
      <point x="480.94444444444446" y="440.22222222222223"/>
      <point x="475.1111111111111" y="446.52777777777777"/>
      <point x="460.02777777777777" y="446.52777777777777" type="curve" smooth="yes"/>
      <point x="321.3611111111111" y="446.52777777777777" type="line" smooth="yes"/>
      <point x="313.1111111111111" y="446.52777777777777"/>
      <point x="306.27777777777777" y="442.9635416666667"/>
      <point x="306.27777777777777" y="434.80555555555554" type="curve" smooth="yes"/>
      <point x="306.27777777777777" y="427.23765432098764"/>
      <point x="311.5960649078287" y="421.68272565956426"/>
      <point x="323.4166666666667" y="417.25" type="curve" smooth="yes"/>
      <point x="350.5833333333333" y="407.19444444444446" type="line" smooth="yes"/>
      <point x="368.3572479919095" y="400.6616016622258"/>
      <point x="375.94444444444446" y="389.4007936507937"/>
      <point x="375.94444444444446" y="369.77777777777777" type="curve" smooth="yes"/>
      <point x="375.94444444444446" y="353.53688524590166"/>
      <point x="371.8929847979733" y="339.4680299561596"/>
      <point x="363.4166666666667" y="318.19444444444446" type="curve" smooth="yes"/>
    </contour>
  </outline>
</glyph>
<glyph name="z" format="2">
  <advance width="429.52777777777777"/>
  <unicode hex="007A"/>
  <anchor x="241.69444444444446" y="501.97222222222223" name="center"/>
  <outline>
    <contour>
      <point x="378.3333333333333" y="392.3888888888889" type="line" smooth="yes"/>
      <point x="392.47222222222223" y="412.3611111111111"/>
      <point x="394.8888888888889" y="421.4655172413793"/>
      <point x="394.8888888888889" y="427.44444444444446" type="curve" smooth="yes"/>
      <point x="394.8888888888889" y="438.22222222222223"/>
      <point x="387.05555555555554" y="446.52777777777777"/>
      <point x="371.3888888888889" y="446.52777777777777" type="curve" smooth="yes"/>
      <point x="122.66666666666666" y="446.52777777777777" type="line" smooth="yes"/>
      <point x="108.47222222222223" y="446.52777777777777"/>
      <point x="96.58111111111111" y="458.4166666666667"/>
      <point x="84.02777777777777" y="458.4166666666667" type="curve" smooth="yes"/>
      <point x="74.56944444444444" y="458.4166666666667"/>
      <point x="69.0" y="453.1111111111111"/>
      <point x="65.11111111111111" y="438.55555555555554" type="curve" smooth="yes"/>
      <point x="41.416666666666664" y="348.6111111111111" type="line" smooth="yes"/>
      <point x="39.94444444444444" y="343.19444444444446"/>
      <point x="39.0" y="339.8333333333333"/>
      <point x="39.0" y="334.94444444444446" type="curve" smooth="yes"/>
      <point x="39.0" y="326.1666666666667"/>
      <point x="45.833333333333336" y="321.27777777777777"/>
      <point x="53.138888888888886" y="321.27777777777777" type="curve" smooth="yes"/>
      <point x="62.33333333333333" y="321.27777777777777"/>
      <point x="70.11111111111111" y="325.5833333333333"/>
      <point x="78.77777777777777" y="338.6666666666667" type="curve" smooth="yes"/>
      <point x="95.25" y="366.8333333333333" type="line" smooth="yes"/>
      <point x="115.09903357907466" y="401.5130581150127"/>
      <point x="133.86111111111111" y="416.30555555555554"/>
      <point x="162.30555555555554" y="416.30555555555554" type="curve" smooth="yes"/>
      <point x="318.55555555555554" y="416.30555555555554" type="line"/>
      <point x="309.55555555555554" y="425.5" type="line"/>
      <point x="46.44444444444444" y="52.52777777777778" type="line" smooth="yes"/>
      <point x="35.138888888888886" y="36.80555555555556"/>
      <point x="33.138888888888886" y="27.5"/>
      <point x="33.138888888888886" y="20.61111111111111" type="curve" smooth="yes"/>
      <point x="33.138888888888886" y="9.305555555555555"/>
      <point x="41.5" y="-0.4722222222222222"/>
      <point x="61.166666666666664" y="-0.4722222222222222" type="curve" smooth="yes"/>
      <point x="280.05555555555554" y="-0.4722222222222222" type="line" smooth="yes"/>
      <point x="318.1111111111111" y="-0.4722222222222222"/>
      <point x="333.19444444444446" y="-12.36111111111111"/>
      <point x="350.80555555555554" y="-12.36111111111111" type="curve" smooth="yes"/>
      <point x="364.5833333333333" y="-12.36111111111111"/>
      <point x="370.47222222222223" y="-5.527777777777778"/>
      <point x="374.8888888888889" y="11.61111111111111" type="curve" smooth="yes"/>
      <point x="400.05555555555554" y="108.05555555555556" type="line" smooth="yes"/>
      <point x="402.5833333333333" y="117.58333333333333"/>
      <point x="403.1111111111111" y="121.0"/>
      <point x="403.1111111111111" y="126.0" type="curve" smooth="yes"/>
      <point x="403.1111111111111" y="135.72222222222223"/>
      <point x="397.80555555555554" y="141.02777777777777"/>
      <point x="390.55555555555554" y="141.02777777777777" type="curve" smooth="yes"/>
      <point x="381.30555555555554" y="141.02777777777777"/>
      <point x="375.47222222222223" y="135.19444444444446"/>
      <point x="368.22222222222223" y="123.52777777777777" type="curve" smooth="yes"/>
      <point x="350.9166666666667" y="93.22222222222223" type="line" smooth="yes"/>
      <point x="328.05555555555554" y="50.916666666666664"/>
      <point x="306.77777777777777" y="30.75"/>
      <point x="260.05555555555554" y="30.75" type="curve" smooth="yes"/>
      <point x="111.27777777777777" y="30.75" type="line"/>
      <point x="118.52777777777777" y="21.61111111111111" type="line"/>
    </contour>
  </outline>
</glyph>
<glyph name="braceleft" format="2">
  <advance width="383.6666666666667"/>
  <unicode hex="007B"/>
  <outline>
    <contour>
      <point x="184.08333333333334" y="289.0" type="curve" smooth="yes"/>
      <point x="184.08333333333334" y="293.4166666666667"/>
      <point x="187.5" y="296.8333333333333"/>
      <point x="192.38888888888889" y="296.8333333333333" type="curve" smooth="yes"/>
      <point x="237.94444444444446" y="296.8333333333333"/>
      <point x="267.80555555555554" y="333.1111111111111"/>
      <point x="267.80555555555554" y="385.55555555555554" type="curve" smooth="yes"/>
      <point x="267.80555555555554" y="461.8611111111111"/>
      <point x="204.52777777777777" y="528.6944444444445"/>
      <point x="204.52777777777777" y="598.0" type="curve" smooth="yes"/>
      <point x="204.52777777777777" y="675.5555555555555"/>
      <point x="247.94444444444446" y="727.5"/>
      <point x="302.52777777777777" y="727.5" type="curve" smooth="yes"/>
      <point x="354.1111111111111" y="727.5" type="line" smooth="yes"/>
      <point x="364.4166666666667" y="727.5"/>
      <point x="371.30555555555554" y="732.9166666666666"/>
      <point x="371.30555555555554" y="741.75" type="curve" smooth="yes"/>
      <point x="371.30555555555554" y="748.5833333333334"/>
      <point x="365.3611111111111" y="755.0"/>
      <point x="355.05555555555554" y="755.0" type="curve" smooth="yes"/>
      <point x="302.52777777777777" y="755.0" type="line" smooth="yes"/>
      <point x="198.38888888888889" y="755.0"/>
      <point x="124.13888888888889" y="692.0"/>
      <point x="124.13888888888889" y="600.0" type="curve" smooth="yes"/>
      <point x="124.13888888888889" y="502.0"/>
      <point x="208.41666666666666" y="439.0"/>
      <point x="208.41666666666666" y="359.0" type="curve" smooth="yes"/>
      <point x="208.41666666666666" y="329.46643518518516"/>
      <point x="183.72222222222223" y="313.6111111111111"/>
      <point x="151.97222222222223" y="313.6111111111111" type="curve" smooth="yes"/>
      <point x="127.69444444444444" y="313.6111111111111"/>
      <point x="105.38888888888889" y="331.3611111111111"/>
      <point x="84.86111111111111" y="331.3611111111111" type="curve" smooth="yes"/>
      <point x="63.97222222222222" y="331.3611111111111"/>
      <point x="46.138888888888886" y="311.0"/>
      <point x="46.138888888888886" y="290.0" type="curve" smooth="yes"/>
      <point x="46.138888888888886" y="268.05555555555554"/>
      <point x="63.02777777777778" y="249.69444444444446"/>
      <point x="86.86111111111111" y="249.69444444444446" type="curve" smooth="yes"/>
      <point x="106.38888888888889" y="249.69444444444446"/>
      <point x="127.69444444444444" y="266.3888888888889"/>
      <point x="151.97222222222223" y="266.3888888888889" type="curve" smooth="yes"/>
      <point x="186.25" y="266.3888888888889"/>
      <point x="208.41666666666666" y="247.11530398322853"/>
      <point x="208.41666666666666" y="216.0" type="curve" smooth="yes"/>
      <point x="208.41666666666666" y="141.0"/>
      <point x="124.13888888888889" y="76.0"/>
      <point x="124.13888888888889" y="-30.0" type="curve" smooth="yes"/>
      <point x="124.13888888888889" y="-120.0"/>
      <point x="200.5" y="-185.0"/>
      <point x="307.80555555555554" y="-185.0" type="curve" smooth="yes"/>
      <point x="354.52777777777777" y="-185.0" type="line" smooth="yes"/>
      <point x="364.8333333333333" y="-185.0"/>
      <point x="371.30555555555554" y="-178.69444444444446"/>
      <point x="371.30555555555554" y="-171.22222222222223" type="curve" smooth="yes"/>
      <point x="371.30555555555554" y="-160.91666666666666"/>
      <point x="364.4166666666667" y="-156.97222222222223"/>
      <point x="353.5833333333333" y="-156.97222222222223" type="curve" smooth="yes"/>
      <point x="307.80555555555554" y="-156.97222222222223" type="line" smooth="yes"/>
      <point x="251.11111111111111" y="-156.97222222222223"/>
      <point x="204.52777777777777" y="-103.02777777777777"/>
      <point x="204.52777777777777" y="-28.0" type="curve" smooth="yes"/>
      <point x="204.52777777777777" y="46.30555555555556"/>
      <point x="267.80555555555554" y="117.13888888888889"/>
      <point x="267.80555555555554" y="190.44444444444446" type="curve" smooth="yes"/>
      <point x="267.80555555555554" y="240.83333333333334"/>
      <point x="242.0" y="281.6388888888889"/>
      <point x="192.91666666666666" y="281.6388888888889" type="curve" smooth="yes"/>
      <point x="188.02777777777777" y="281.6388888888889"/>
      <point x="184.08333333333334" y="284.1111111111111"/>
    </contour>
  </outline>
</glyph>
<glyph name="bar" format="2">
  <advance width="351.19444444444446"/>
  <unicode hex="007C"/>
  <outline>
    <contour>
      <point x="158.27777777777777" y="260.77777777777777" type="curve" smooth="yes"/>
      <point x="158.27777777777777" y="31.410026818722372"/>
      <point x="140.0" y="-119.62936318103593"/>
      <point x="140.0" y="-210.0" type="curve" smooth="yes"/>
      <point x="140.0" y="-236.58333333333334"/>
      <point x="155.52777777777777" y="-250.0"/>
      <point x="175.36111111111111" y="-250.0" type="curve" smooth="yes"/>
      <point x="194.72222222222223" y="-250.0"/>
      <point x="209.30555555555554" y="-236.58333333333334"/>
      <point x="209.30555555555554" y="-211.41666666666666" type="curve" smooth="yes"/>
      <point x="209.30555555555554" y="-130.44748163172477"/>
      <point x="191.97222222222223" y="26.77716104247169"/>
      <point x="191.97222222222223" y="259.8333333333333" type="curve" smooth="yes"/>
      <point x="191.97222222222223" y="481.0845681120685"/>
      <point x="207.41666666666666" y="637.25"/>
      <point x="207.41666666666666" y="725.4166666666666" type="curve" smooth="yes"/>
      <point x="207.41666666666666" y="750.6388888888889"/>
      <point x="192.83333333333334" y="765.0"/>
      <point x="173.94444444444446" y="765.0" type="curve" smooth="yes"/>
      <point x="155.52777777777777" y="765.0"/>
      <point x="140.47222222222223" y="751.5833333333334"/>
      <point x="140.47222222222223" y="724.4722222222222" type="curve" smooth="yes"/>
      <point x="140.47222222222223" y="632.5277777777778"/>
      <point x="158.27777777777777" y="487.36111111111114"/>
    </contour>
  </outline>
</glyph>
<glyph name="currency" format="2">
  <advance width="498.75"/>
  <unicode hex="00A4"/>
  <outline>
    <contour>
      <point x="248.63888888888889" y="149.83333333333334" type="curve" smooth="yes"/>
      <point x="154.63888888888889" y="149.83333333333334"/>
      <point x="77.63888888888889" y="229.83333333333334"/>
      <point x="77.63888888888889" y="322.8333333333333" type="curve" smooth="yes"/>
      <point x="77.63888888888889" y="416.8333333333333"/>
      <point x="154.63888888888889" y="493.8333333333333"/>
      <point x="248.63888888888889" y="493.8333333333333" type="curve" smooth="yes"/>
      <point x="344.6388888888889" y="493.8333333333333"/>
      <point x="420.6388888888889" y="416.8333333333333"/>
      <point x="420.6388888888889" y="322.8333333333333" type="curve" smooth="yes"/>
      <point x="420.6388888888889" y="229.83333333333334"/>
      <point x="344.6388888888889" y="149.83333333333334"/>
    </contour>
    <contour>
      <point x="249.63888888888889" y="196.0" type="curve" smooth="yes"/>
      <point x="317.6111111111111" y="196.0"/>
      <point x="375.47222222222223" y="251.86111111111111"/>
      <point x="375.47222222222223" y="322.8333333333333" type="curve" smooth="yes"/>
      <point x="375.47222222222223" y="393.80555555555554"/>
      <point x="317.6111111111111" y="448.6666666666667"/>
      <point x="249.63888888888889" y="448.6666666666667" type="curve" smooth="yes"/>
      <point x="178.13888888888889" y="448.6666666666667"/>
      <point x="124.80555555555556" y="393.80555555555554"/>
      <point x="124.80555555555556" y="322.8333333333333" type="curve" smooth="yes"/>
      <point x="124.80555555555556" y="251.86111111111111"/>
      <point x="178.13888888888889" y="196.0"/>
    </contour>
    <contour>
      <point x="346.27777777777777" y="444.30555555555554" type="line"/>
      <point x="372.22222222222223" y="477.72222222222223"/>
      <point x="385.1666666666667" y="497.6666666666667"/>
      <point x="395.6388888888889" y="508.1388888888889" type="curve" smooth="yes"/>
      <point x="415.5833333333333" y="529.0833333333334"/>
      <point x="432.05555555555554" y="527.0833333333334"/>
      <point x="441.52777777777777" y="516.6111111111111" type="curve" smooth="yes"/>
      <point x="451.0" y="506.1388888888889"/>
      <point x="453.0" y="490.19444444444446"/>
      <point x="433.05555555555554" y="470.72222222222223" type="curve" smooth="yes"/>
      <point x="422.5833333333333" y="460.25"/>
      <point x="402.6388888888889" y="447.30555555555554"/>
      <point x="369.22222222222223" y="421.3611111111111" type="curve"/>
    </contour>
    <contour>
      <point x="127.58333333333333" y="420.94444444444446" type="line"/>
      <point x="95.16666666666667" y="445.8888888888889"/>
      <point x="76.22222222222223" y="458.3611111111111"/>
      <point x="65.75" y="468.8333333333333" type="curve" smooth="yes"/>
      <point x="45.80555555555556" y="488.77777777777777"/>
      <point x="48.27777777777778" y="506.1388888888889"/>
      <point x="57.75" y="516.6111111111111" type="curve" smooth="yes"/>
      <point x="67.22222222222223" y="527.0833333333334"/>
      <point x="84.16666666666667" y="529.0833333333334"/>
      <point x="104.11111111111111" y="508.1388888888889" type="curve" smooth="yes"/>
      <point x="114.58333333333333" y="497.6666666666667"/>
      <point x="127.05555555555556" y="478.72222222222223"/>
      <point x="152.0" y="446.30555555555554" type="curve"/>
    </contour>
    <contour>
      <point x="66.22222222222223" y="173.0" type="curve" smooth="yes"/>
      <point x="77.69444444444444" y="183.47222222222223"/>
      <point x="97.63888888888889" y="196.41666666666666"/>
      <point x="131.05555555555554" y="223.36111111111111" type="curve"/>
      <point x="153.0" y="201.41666666666666" type="line"/>
      <point x="126.05555555555556" y="168.0"/>
      <point x="113.11111111111111" y="148.05555555555554"/>
      <point x="102.63888888888889" y="136.58333333333334" type="curve" smooth="yes"/>
      <point x="85.16666666666667" y="116.63888888888889"/>
      <point x="67.22222222222223" y="118.63888888888889"/>
      <point x="57.75" y="128.11111111111111" type="curve" smooth="yes"/>
      <point x="48.27777777777778" y="137.58333333333334"/>
      <point x="46.27777777777778" y="154.05555555555554"/>
    </contour>
    <contour>
      <point x="433.05555555555554" y="173.0" type="curve" smooth="yes"/>
      <point x="453.0" y="154.52777777777777"/>
      <point x="451.0" y="137.58333333333334"/>
      <point x="441.52777777777777" y="128.11111111111111" type="curve" smooth="yes"/>
      <point x="432.05555555555554" y="118.63888888888889"/>
      <point x="414.1111111111111" y="116.63888888888889"/>
      <point x="396.6388888888889" y="136.58333333333334" type="curve" smooth="yes"/>
      <point x="387.1666666666667" y="147.05555555555554"/>
      <point x="374.69444444444446" y="167.0"/>
      <point x="348.27777777777777" y="198.41666666666666" type="curve"/>
      <point x="371.22222222222223" y="221.36111111111111" type="line"/>
      <point x="402.6388888888889" y="195.41666666666666"/>
      <point x="422.5833333333333" y="182.47222222222223"/>
    </contour>
  </outline>
</glyph>
<glyph name="yen" format="2">
  <advance width="597.8055555555555"/>
  <unicode hex="00A5"/>
  <outline>
    <contour>
      <point x="522.1111111111111" y="178.13888888888889" type="curve" smooth="yes"/>
      <point x="545.5277777777778" y="178.13888888888889"/>
      <point x="555.4722222222222" y="191.13888888888889"/>
      <point x="555.4722222222222" y="204.61111111111111" type="curve" smooth="yes"/>
      <point x="555.4722222222222" y="220.44444444444446"/>
      <point x="545.0555555555555" y="233.44444444444446"/>
      <point x="522.1111111111111" y="233.91666666666666" type="curve" smooth="yes"/>
      <point x="495.8611111111111" y="234.38888888888889"/>
      <point x="454.1111111111111" y="217.33333333333334"/>
      <point x="296.3611111111111" y="217.33333333333334" type="curve" smooth="yes"/>
      <point x="143.27777777777777" y="217.33333333333334"/>
      <point x="104.41666666666667" y="232.5"/>
      <point x="77.63888888888889" y="232.5" type="curve" smooth="yes"/>
      <point x="54.69444444444444" y="232.5"/>
      <point x="43.75" y="217.61111111111111"/>
      <point x="43.75" y="202.72222222222223" type="curve" smooth="yes"/>
      <point x="43.75" y="189.25"/>
      <point x="54.22222222222222" y="176.25"/>
      <point x="76.69444444444444" y="176.25" type="curve" smooth="yes"/>
      <point x="101.58333333333333" y="176.25"/>
      <point x="141.86111111111111" y="191.41666666666666"/>
      <point x="296.3611111111111" y="191.41666666666666" type="curve" smooth="yes"/>
      <point x="453.6388888888889" y="191.41666666666666"/>
      <point x="495.8611111111111" y="178.13888888888889"/>
    </contour>
    <contour>
      <point x="238.63888888888889" y="329.8611111111111" type="line"/>
      <point x="132.63888888888889" y="333.44444444444446"/>
      <point x="100.94444444444444" y="344.02777777777777"/>
      <point x="77.63888888888889" y="344.02777777777777" type="curve" smooth="yes"/>
      <point x="54.69444444444444" y="344.02777777777777"/>
      <point x="43.75" y="329.1388888888889"/>
      <point x="43.75" y="314.25" type="curve" smooth="yes"/>
      <point x="43.75" y="300.77777777777777"/>
      <point x="54.22222222222222" y="287.77777777777777"/>
      <point x="76.69444444444444" y="287.77777777777777" type="curve" smooth="yes"/>
      <point x="99.05555555555556" y="287.77777777777777"/>
      <point x="132.1814066163193" y="298.83416142039243"/>
      <point x="248.55555555555554" y="302.4166666666667" type="curve"/>
    </contour>
    <contour>
      <point x="522.1111111111111" y="289.6666666666667" type="curve" smooth="yes"/>
      <point x="545.5277777777778" y="289.6666666666667"/>
      <point x="555.4722222222222" y="302.6666666666667"/>
      <point x="555.4722222222222" y="316.1388888888889" type="curve" smooth="yes"/>
      <point x="555.4722222222222" y="331.97222222222223"/>
      <point x="545.0555555555555" y="344.97222222222223"/>
      <point x="522.1111111111111" y="345.44444444444446" type="curve" smooth="yes"/>
      <point x="500.8611111111111" y="345.9166666666667"/>
      <point x="469.7235758760049" y="335.4423305145248"/>
      <point x="373.97222222222223" y="330.3888888888889" type="curve"/>
      <point x="365.47222222222223" y="301.8888888888889" type="line"/>
      <point x="467.834686987116" y="297.7798917076974"/>
      <point x="500.3888888888889" y="289.6666666666667"/>
    </contour>
    <component base="Y" xScale="0.9135172474836407" yScale="0.9135172474836407" xOffset="12.63888888888889"/>
  </outline>
</glyph>
<glyph name="brokenbar" format="2">
  <advance width="351.19444444444446"/>
  <unicode hex="00A6"/>
  <outline>
    <contour>
      <point x="135.27777777777777" y="-200.27777777777777" type="curve" smooth="yes"/>
      <point x="135.27777777777777" y="-231.58333333333334"/>
      <point x="153.56734006734007" y="-245.0"/>
      <point x="173.0" y="-245.0" type="curve" smooth="yes"/>
      <point x="192.43265993265993" y="-245.0"/>
      <point x="210.72222222222223" y="-231.58333333333334"/>
      <point x="210.72222222222223" y="-200.27777777777777" type="curve" smooth="yes"/>
      <point x="210.72222222222223" y="-149.37717013888889"/>
      <point x="187.72222222222223" y="-91.11111111111111"/>
      <point x="187.72222222222223" y="184.27777777777777" type="curve" smooth="yes"/>
      <point x="187.72222222222223" y="200.58333333333334"/>
      <point x="183.30555555555554" y="207.0"/>
      <point x="173.0" y="207.0" type="curve" smooth="yes"/>
      <point x="162.69444444444446" y="207.0"/>
      <point x="158.27777777777777" y="200.58333333333334"/>
      <point x="158.27777777777777" y="184.27777777777777" type="curve" smooth="yes"/>
      <point x="158.27777777777777" y="-91.11111111111111"/>
      <point x="135.27777777777777" y="-149.37717013888889"/>
    </contour>
    <contour>
      <point x="135.27777777777777" y="721.2777777777778" type="curve" smooth="yes"/>
      <point x="135.27777777777777" y="670.5242526790751"/>
      <point x="158.27777777777777" y="612.0348668981482"/>
      <point x="158.27777777777777" y="336.72222222222223" type="curve" smooth="yes"/>
      <point x="158.27777777777777" y="320.3117283950617"/>
      <point x="162.69444444444446" y="314.0"/>
      <point x="173.0" y="314.0" type="curve" smooth="yes"/>
      <point x="183.30555555555554" y="314.0"/>
      <point x="187.72222222222223" y="320.3117283950617"/>
      <point x="187.72222222222223" y="336.72222222222223" type="curve" smooth="yes"/>
      <point x="187.72222222222223" y="612.0348668981482"/>
      <point x="210.72222222222223" y="670.5242526790751"/>
      <point x="210.72222222222223" y="721.2777777777778" type="curve" smooth="yes"/>
      <point x="210.72222222222223" y="752.5833333333334"/>
      <point x="194.25" y="766.0"/>
      <point x="173.0" y="766.0" type="curve" smooth="yes"/>
      <point x="152.22222222222223" y="766.0"/>
      <point x="135.27777777777777" y="752.5833333333334"/>
    </contour>
  </outline>
</glyph>
<glyph name="section" format="2">
  <advance width="529.9722222222222"/>
  <unicode hex="00A7"/>
  <outline>
    <contour>
      <point x="291.6388888888889" y="-208.0" type="curve" smooth="yes"/>
      <point x="224.66666666666666" y="-208.0"/>
      <point x="168.80555555555554" y="-172.25"/>
      <point x="109.61111111111111" y="-59.58333333333333" type="curve" smooth="yes"/>
      <point x="99.94444444444444" y="-43.138888888888886"/>
      <point x="92.63888888888889" y="-36.833333333333336"/>
      <point x="83.86111111111111" y="-36.833333333333336" type="curve" smooth="yes"/>
      <point x="73.66666666666667" y="-36.833333333333336"/>
      <point x="68.77777777777777" y="-43.666666666666664"/>
      <point x="68.77777777777777" y="-53.861111111111114" type="curve" smooth="yes"/>
      <point x="68.77777777777777" y="-62.22222222222222"/>
      <point x="70.72222222222223" y="-72.47222222222223"/>
      <point x="74.08333333333333" y="-83.08333333333333" type="curve" smooth="yes"/>
      <point x="117.52777777777777" y="-228.38888888888889" type="line" smooth="yes"/>
      <point x="120.94444444444444" y="-240.11111111111111"/>
      <point x="126.36111111111111" y="-243.52777777777777"/>
      <point x="132.25" y="-243.52777777777777" type="curve" smooth="yes"/>
      <point x="144.13888888888889" y="-243.52777777777777"/>
      <point x="166.75" y="-218.41666666666666"/>
      <point x="179.63888888888889" y="-218.41666666666666" type="curve" smooth="yes"/>
      <point x="198.75" y="-218.41666666666666"/>
      <point x="234.47222222222223" y="-244.05555555555554"/>
      <point x="291.75" y="-244.05555555555554" type="curve" smooth="yes"/>
      <point x="396.1388888888889" y="-244.05555555555554"/>
      <point x="464.97222222222223" y="-169.86111111111111"/>
      <point x="464.97222222222223" y="-77.5" type="curve" smooth="yes"/>
      <point x="464.97222222222223" y="-4.277777777777778"/>
      <point x="426.22222222222223" y="57.05555555555556"/>
      <point x="291.3888888888889" y="127.83333333333333" type="curve" smooth="yes"/>
      <point x="155.97222222222223" y="198.66666666666666"/>
      <point x="120.44444444444444" y="252.77777777777777"/>
      <point x="120.44444444444444" y="297.19444444444446" type="curve" smooth="yes"/>
      <point x="120.44444444444444" y="347.1111111111111"/>
      <point x="151.44444444444446" y="380.9166666666667"/>
      <point x="195.83333333333334" y="380.9166666666667" type="curve"/>
      <point x="198.30555555555554" y="412.25" type="line"/>
      <point x="111.13888888888889" y="412.25"/>
      <point x="50.0" y="340.94444444444446"/>
      <point x="50.0" y="259.05555555555554" type="curve" smooth="yes"/>
      <point x="50.0" y="187.91666666666666"/>
      <point x="96.5" y="125.61111111111111"/>
      <point x="229.94444444444446" y="58.69444444444444" type="curve" smooth="yes"/>
      <point x="362.77777777777777" y="-7.944444444444445"/>
      <point x="392.94444444444446" y="-53.388888888888886"/>
      <point x="392.47222222222223" y="-111.13888888888889" type="curve" smooth="yes"/>
      <point x="392.0" y="-169.47222222222223"/>
      <point x="352.4166666666667" y="-208.0"/>
    </contour>
    <contour>
      <point x="333.19444444444446" y="86.86111111111111" type="curve"/>
      <point x="331.19444444444446" y="55.52777777777778" type="line"/>
      <point x="423.55555555555554" y="55.52777777777778"/>
      <point x="479.97222222222223" y="125.88888888888889"/>
      <point x="479.97222222222223" y="208.72222222222223" type="curve" smooth="yes"/>
      <point x="479.97222222222223" y="273.72222222222223"/>
      <point x="441.5" y="331.77777777777777"/>
      <point x="300.02777777777777" y="406.25" type="curve" smooth="yes"/>
      <point x="173.33333333333334" y="473.3611111111111"/>
      <point x="139.38888888888889" y="522.1111111111111"/>
      <point x="139.38888888888889" y="580.8055555555555" type="curve" smooth="yes"/>
      <point x="139.38888888888889" y="639.1388888888889"/>
      <point x="181.80555555555554" y="675.7777777777778"/>
      <point x="237.38888888888889" y="675.7777777777778" type="curve" smooth="yes"/>
      <point x="302.0" y="675.7777777777778"/>
      <point x="359.75" y="640.5"/>
      <point x="425.55555555555554" y="524.5277777777778" type="curve" smooth="yes"/>
      <point x="433.80555555555554" y="511.3888888888889"/>
      <point x="442.52777777777777" y="504.1388888888889"/>
      <point x="453.6666666666667" y="504.1388888888889" type="curve" smooth="yes"/>
      <point x="464.3333333333333" y="504.1388888888889"/>
      <point x="468.75" y="510.97222222222223"/>
      <point x="468.75" y="520.6944444444445" type="curve" smooth="yes"/>
      <point x="468.75" y="527.6388888888889"/>
      <point x="466.3333333333333" y="537.4166666666666"/>
      <point x="463.44444444444446" y="545.1944444444445" type="curve" smooth="yes"/>
      <point x="412.9166666666667" y="695.6944444444445" type="line" smooth="yes"/>
      <point x="408.55555555555554" y="707.4166666666666"/>
      <point x="402.19444444444446" y="711.7777777777778"/>
      <point x="394.8888888888889" y="711.7777777777778" type="curve" smooth="yes"/>
      <point x="383.47222222222223" y="711.7777777777778"/>
      <point x="362.75" y="686.6666666666666"/>
      <point x="348.9166666666667" y="686.6666666666666" type="curve" smooth="yes"/>
      <point x="328.8611111111111" y="686.6666666666666"/>
      <point x="295.5" y="711.8333333333334"/>
      <point x="237.75" y="711.8333333333334" type="curve" smooth="yes"/>
      <point x="139.02777777777777" y="711.8333333333334"/>
      <point x="65.0" y="636.2222222222222"/>
      <point x="65.0" y="545.2777777777778" type="curve" smooth="yes"/>
      <point x="65.0" y="465.9166666666667"/>
      <point x="110.83333333333333" y="402.69444444444446"/>
      <point x="242.83333333333334" y="335.69444444444446" type="curve" smooth="yes"/>
      <point x="375.4166666666667" y="268.6388888888889"/>
      <point x="411.4166666666667" y="215.0"/>
      <point x="411.4166666666667" y="172.94444444444446" type="curve" smooth="yes"/>
      <point x="411.4166666666667" y="122.08333333333333"/>
      <point x="381.8333333333333" y="86.86111111111111"/>
    </contour>
  </outline>
</glyph>
